<svg xmlns="http://www.w3.org/2000/svg" viewBox="0 0 640 506.67"><path d="M119.9,266.67,301.56,387.78c42.77,28.51,64.15,42.76,87.26,48.3a133.22,133.22,0,0,0,62.15,0c23.11-5.54,44.5-19.79,87.26-48.3L719.9,266.67M226.56,633.33H613.23c37.34,0,56,0,70.27-7.26a66.64,66.64,0,0,0,29.13-29.14c7.27-14.26,7.27-32.93,7.27-70.26V273.33c0-37.33,0-56-7.27-70.26a66.64,66.64,0,0,0-29.13-29.14c-14.26-7.26-32.93-7.26-70.27-7.26H226.56c-37.33,0-56,0-70.26,7.26a66.62,66.62,0,0,0-29.14,29.14c-7.26,14.26-7.26,32.93-7.26,70.26V526.67c0,37.33,0,56,7.26,70.26a66.62,66.62,0,0,0,29.14,29.14C170.56,633.33,189.23,633.33,226.56,633.33Z" transform="translate(-99.9 -146.67)" fill="none" stroke="currentColor" stroke-linecap="round" stroke-linejoin="round" stroke-width="40"/></svg>