<svg xmlns="http://www.w3.org/2000/svg" xmlns:xlink="http://www.w3.org/1999/xlink" viewBox="0 0 716.67 616.67"><path d="M216.67,495a25,25,0,0,0-25-25H25a25,25,0,0,0,0,50H191.67a25,25,0,0,0,25-25" fill-rule="evenodd" fill="currentColor"/><path d="M500,128.34a25,25,0,0,1,25-25H691.67a25,25,0,0,1,0,50H525a25,25,0,0,1-25-25" fill-rule="evenodd" fill="currentColor"/><path d="M716.67,495a25,25,0,0,0-25-25h-300a25,25,0,0,0,0,50h300a25,25,0,0,0,25-25" fill-rule="evenodd" fill="currentColor"/><path d="M0,128.34a25,25,0,0,1,25-25H325a25,25,0,0,1,0,50H25a25,25,0,0,1-25-25" fill-rule="evenodd" fill="currentColor"/><path d="M291.67,416.67a75,75,0,1,1-75,75,75,75,0,0,1,75-75m125,75a125,125,0,1,0-125,125,125,125,0,0,0,125-125" fill-rule="evenodd" fill="currentColor"/><path d="M425,50a75,75,0,1,0,75,75,75,75,0,0,0-75-75M300,125A125,125,0,1,1,425,250,125,125,0,0,1,300,125" fill-rule="evenodd" fill="currentColor"/></svg>