<svg xmlns="http://www.w3.org/2000/svg" xmlns:xlink="http://www.w3.org/1999/xlink" viewBox="0 0 600 733.33"><path d="M66.67,283.33C66.67,169.79,167,66.67,300,66.67S533.33,169.79,533.33,283.33c0,71.5-43.74,151.36-101.31,225.37-45.5,58.5-96.11,109.06-132,144.45-35.91-35.39-86.52-85.95-132-144.45-57.57-74-101.31-153.87-101.31-225.37M300,0C133,0,0,130.21,0,283.33c0,95.17,56.26,190.32,115.35,266.3C166.5,615.38,224,671.91,259.91,707.24c6.19,6.1,11.75,11.56,16.52,16.33a33.34,33.34,0,0,0,47.14,0c4.77-4.77,10.33-10.23,16.52-16.32h0C376,671.91,433.5,615.38,484.65,549.63,543.74,473.65,600,378.5,600,283.33,600,130.21,467,0,300,0m0,383.33A83.33,83.33,0,1,0,216.67,300,83.33,83.33,0,0,0,300,383.33" fill-rule="evenodd" fill="currentColor"/></svg>