<svg xmlns="http://www.w3.org/2000/svg" xmlns:xlink="http://www.w3.org/1999/xlink" viewBox="0 0 699.02 699.02"><path d="M302.37,19.53a66.67,66.67,0,0,1,90-3.9l4.24,3.9L460,82.84h89.54A66.67,66.67,0,0,1,616,144.53l.19,5v89.54l63.31,63.32a66.67,66.67,0,0,1,3.9,90l-3.9,4.24L616.18,460v89.54A66.67,66.67,0,0,1,554.48,616l-5,.19H460l-63.32,63.31a66.67,66.67,0,0,1-90,3.9l-4.24-3.9-63.32-63.31H149.51A66.66,66.66,0,0,1,83,554.49l-.19-5V460L19.53,396.65a66.67,66.67,0,0,1-3.9-90l3.9-4.24,63.31-63.32V149.51A66.66,66.66,0,0,1,144.53,83l5-.19h89.54Zm149.79,229.4L310.67,390.41l-58.92-58.92a33.33,33.33,0,0,0-47.14,47.14l80.14,80.14a36.68,36.68,0,0,0,51.85,0l162.7-162.7a33.33,33.33,0,0,0-47.14-47.14" fill="currentColor" fill-rule="evenodd"/></svg>