<svg xmlns="http://www.w3.org/2000/svg" xmlns:xlink="http://www.w3.org/1999/xlink" viewBox="0 0 658.24 658.33"><path d="M418.54,443.26l-15.18,16s-36.09,38-134.59-65.71-62.41-141.69-62.41-141.69l9.56-10.07c23.55-24.8,25.77-64.6,5.22-93.67l-42-59.45c-25.43-36-74.58-40.72-103.73-10L23.06,133.7c-14.45,15.22-24.14,35-23,56.83,3,56,26.92,176.44,160.41,317,141.56,149,274.38,155,328.7,149.59,17.18-1.69,32.12-11,44.16-23.63l47.35-49.86c32-33.65,22.95-91.34-17.94-114.88l-63.69-36.65c-26.85-15.46-59.56-10.92-80.55,11.18" fill="currentColor"/><path d="M342,21A25,25,0,0,1,370.7.33c.85.16,3.56.66,5,1,2.85.63,6.82,1.61,11.76,3.05a295.92,295.92,0,0,1,40.3,15.23C461,34.82,505.15,61.45,551,107.31s72.49,90.06,87.71,123.27A294.87,294.87,0,0,1,654,270.88c1.44,4.94,2.41,8.91,3,11.75.31,1.43.55,2.57.71,3.41l.19,1c2.2,13.63-7,27.05-20.59,29.26a25,25,0,0,1-28.65-20.57c-.07-.37-.26-1.34-.47-2.27-.41-1.84-1.12-4.77-2.25-8.64a244.9,244.9,0,0,0-12.68-33.45c-13-28.34-36.36-67.48-77.62-108.74S435.25,78,406.91,65a245.92,245.92,0,0,0-33.45-12.67c-3.87-1.13-8.74-2.25-10.58-2.66A25.29,25.29,0,0,1,342,21" fill="currentColor"/><path d="M349.52,136a25,25,0,0,1,30.91-17.17l-6.87,24,6.87-24h.1l.11,0,.26.07.66.21c.5.16,1.13.37,1.88.64,1.49.53,3.47,1.28,5.9,2.32A171.86,171.86,0,0,1,409,132.23c16.32,9.66,38.59,25.7,64.76,51.86s42.2,48.44,51.86,64.76a173.53,173.53,0,0,1,10.12,19.64c1,2.43,1.79,4.4,2.32,5.9.27.75.48,1.38.64,1.88l.2.66.08.26,0,.11,0,.05s0,0-24,6.92l24-6.87a25,25,0,0,1-48,14.07l-.12-.36c-.18-.5-.54-1.49-1.16-2.93a122.77,122.77,0,0,0-7.19-13.87c-7.43-12.56-20.86-31.53-44.19-54.86s-42.31-36.76-54.86-44.19a121.82,121.82,0,0,0-13.88-7.19c-1.44-.62-2.42-1-2.92-1.16l-.36-.13A25,25,0,0,1,349.52,136" fill="currentColor" fill-rule="evenodd"/></svg>