<svg xmlns="http://www.w3.org/2000/svg" xmlns:xlink="http://www.w3.org/1999/xlink" viewBox="0 0 682.84 683.33"><path d="M375,25s77.78,7.07,176.78,106.07S657.84,307.84,657.84,307.84" fill="none" stroke="currentColor" stroke-linecap="round" stroke-miterlimit="133.33" stroke-width="50"/><path d="M398.57,142.85s33,9.43,82.49,58.93S540,284.28,540,284.28" fill="none" stroke="currentColor" stroke-linecap="round" stroke-miterlimit="133.33" stroke-width="50"/><path d="M428.36,459.24,410.23,442Zm15.18-16,18.13,17.21Zm80.55-11.18-12.47,21.66Zm63.69,36.65L575.31,490.4Zm17.94,114.88,18.13,17.22Zm-47.35,49.86-18.13-17.22ZM514.21,657.1,516.66,682ZM185.51,507.51l18.13-17.22ZM25.1,190.53l-25,1.34Zm215.82,51.24L259,259Zm5.22-93.67,20.41-14.43Zm-42-59.45L183.7,103.09Zm-103.73-10,18.13,17.22ZM48.06,133.7,29.94,116.49ZM293.77,393.53l18.13-17.22Zm152.71,82.93,15.19-16L425.41,426l-15.18,16Zm65.14-22.72,63.69,36.66,24.94-43.33-63.68-36.66Zm76,112.66-47.36,49.85,36.26,34.43,47.35-49.85Zm-75.85,65.82c-47.83,4.73-172.64.7-308.11-141.93l-36.25,34.43C315,680.17,455.87,688,516.66,682ZM203.64,490.29c-129.2-136-150.88-250.77-153.58-301.1L.13,191.87c3.31,61.64,29.48,187.81,167.26,332.85Zm45.84-221.24L259,259l-36.25-34.44-9.56,10.07Zm17.07-135.38-42-59.45L183.7,103.09l42,59.45ZM82.26,61.4,29.94,116.49l36.25,34.43,52.32-55.08Zm149.1,190.43c-18.13-17.21-18.15-17.19-18.18-17.16s0,0,0,.05l-.1.1-.2.22-.45.5q-.46.54-1,1.23c-.73.93-1.56,2.07-2.43,3.43A53.51,53.51,0,0,0,203.7,251c-3.25,9.15-5,21.27-2.81,36.41,4.36,29.74,23.84,69.73,74.75,123.33l36.26-34.44c-47.59-50.1-59.31-81-61.54-96.14-1.07-7.33,0-11.19.45-12.4.24-.68.4-.87.25-.63s-.23.34-.48.66l-.46.55-.29.33-.17.18-.09.1,0,0s-.05.05-18.17-17.17m44.28,158.92C326.41,464.19,364.74,485.2,394,490c15,2.44,27.16.49,36.36-3.14a50.19,50.19,0,0,0,10.73-5.75,40.67,40.67,0,0,0,3.33-2.62c.45-.4.85-.76,1.19-1.1l.48-.47.21-.21a.94.94,0,0,1,.1-.1l.05-.05s0-.05-18.08-17.27S410.25,442,410.28,442l0-.05.09-.09.17-.18.32-.31c.2-.2.38-.36.54-.5.32-.28.56-.46.71-.57.31-.22.28-.15-.14,0-.65.25-3.68,1.32-10,.3-13.42-2.18-42.37-14-90.11-64.29ZM224.52,74.22C190.74,26.43,123.13,18.37,82.26,61.4l36.25,34.44c17.43-18.35,48.11-16.91,65.19,7.25Zm-174.46,115c-.71-13.31,5.08-26.64,16.13-38.27L29.94,116.49C12.07,135.29-1.5,161.41.13,191.87ZM540.24,616.25c-9.3,9.79-19,15-28.49,16L516.66,682c24.91-2.46,45.06-15.74,59.84-31.3ZM259,259c32.26-34,34.54-87.1,7.51-125.32l-40.82,28.87c14.07,19.9,11.91,46.38-2.94,62ZM575.31,490.4c27.36,15.75,32.71,54.49,12.29,76l36.25,34.43c43.5-45.8,30.83-122.43-23.6-153.76ZM461.67,460.47c12.84-13.52,32.86-16.56,49.95-6.73l25-43.33c-36.62-21.08-82-15-111.16,15.63Z" fill="currentColor"/></svg>