<svg xmlns="http://www.w3.org/2000/svg" xmlns:xlink="http://www.w3.org/1999/xlink" viewBox="0 0 716.84 716.86"><path d="M691.67,391.67V258.33C691.67,91.67,625,25,458.33,25h-200C91.67,25,25,91.67,25,258.33v200C25,625,91.67,691.67,258.33,691.67H391.67" transform="translate(0)" fill="none" stroke="currentColor" stroke-linecap="round" stroke-linejoin="round" stroke-width="50"/><path d="M202.67,441.33l79.33-103a33.47,33.47,0,0,1,47-6l61,48a33.71,33.71,0,0,0,47-5.66l77-99.34" transform="translate(0)" fill="none" stroke="currentColor" stroke-linecap="round" stroke-linejoin="round" stroke-width="50"/><path d="M607.67,485.66l9.33,19c4.67,9.34,16.33,18,26.67,20l12.66,2c38,6.34,47,34.34,19.67,62l-11.67,11.67c-7.66,8-12,23.33-9.66,34l1.66,7c10.34,46-14,63.67-54,39.67l-8.66-5c-10.34-6-27-6-37.34,0l-8.66,5c-40.34,24.33-64.67,6.33-54-39.67l1.66-7c2.33-10.67-2-26-9.66-34L474,588.66c-27.33-27.66-18.33-55.66,19.67-62l12.66-2c10-1.66,22-10.66,26.67-20l9.33-19C560.33,449.33,589.67,449.33,607.67,485.66Z" transform="translate(0)" fill="none" stroke="currentColor" stroke-linecap="round" stroke-linejoin="round" stroke-width="50"/></svg>