<svg xmlns="http://www.w3.org/2000/svg" xmlns:xlink="http://www.w3.org/1999/xlink" viewBox="0 0 770.63 741.87"><path d="M611.81,732.54a39.16,39.16,0,0,1-16.88-3.75L393.06,628.16,195.56,737.54c-14.38,8.12-32.5,4.37-43.75-7.5-6.88-7.5-10-18.13-8.75-28.75l33.75-223.13L11.18,323.79a34.24,34.24,0,0,1-9.37-36.25,33.5,33.5,0,0,1,28.12-24.38l223.13-37.5,95-205A36.13,36.13,0,0,1,378.68,0a34.91,34.91,0,0,1,32.5,18.75L515.56,219.41l224.37,27.5a34.41,34.41,0,0,1,28.75,23.75,35.26,35.26,0,0,1-8.12,36.25L602.43,468.79l43.13,221.87a36.51,36.51,0,0,1-6.88,28.75C631.81,727.54,621.81,732.54,611.81,732.54ZM391.81,590a39.14,39.14,0,0,1,16.87,3.75l199.38,99.37-42.5-218.75a34.13,34.13,0,0,1,9.37-31.25L731.18,284.41l-221.25-27.5a35.3,35.3,0,0,1-26.87-18.75L380.56,40.66,286.18,242.54a35.81,35.81,0,0,1-26.25,20l-220,36.25,162.5,151.87a34.37,34.37,0,0,1,10.63,31.25l-33.13,220,195-107.5A56,56,0,0,1,391.81,590Z" fill="currentColor"/></svg>