<svg xmlns="http://www.w3.org/2000/svg" xmlns:xlink="http://www.w3.org/1999/xlink" viewBox="0 0 800 800"><path d="M529.56,221.74c27.83,31.3,40.87,73.91,34.79,119.13-10.44,83.48-71.31,113-125.22,113h-4.35v20.87a34.78,34.78,0,1,1-69.56,0V447c0-28.7,12.17-62.61,73.91-62.61,33.91,0,51.3-17.39,55.65-52.18,1.74-11.3,2.61-41.74-18.26-64.34C460,249.57,433,240,396.52,240c-78.26,0-80.87,51.3-80.87,56.52a34.78,34.78,0,1,1-69.56,0c0-34.78,27-126.09,150.43-126.09,72.18,0,112.18,27.83,133,51.31M397.39,539.13c-11.3,0-22.61,4.35-30.43,13-7.83,7.83-13,19.13-13,30.44s4.35,22.61,13,30.43c7.82,7.83,19.13,13.05,30.43,13.05S420,621.74,427.83,613c7.82-7.82,13-19.13,13-30.43s-4.35-22.61-13-30.44c-7.83-7.82-18.27-13-30.44-13M800,400c0,220.87-179.13,400-400,400S0,620.87,0,400,179.13,0,400,0,800,179.13,800,400m-69.57,0C730.43,217.39,582.61,69.57,400,69.57S69.56,217.39,69.56,400,217.39,730.43,400,730.43,730.43,582.61,730.43,400" fill="currentColor"/></svg>