<svg xmlns="http://www.w3.org/2000/svg" viewBox="0 0 800 800"><path d="M592,459.69c-1.56-.75-59.88-29.47-70.25-33.2-4.23-1.52-8.76-3-13.58-3-7.88,0-14.49,3.93-19.64,11.63-5.83,8.66-23.47,29.28-28.92,35.44-.71.81-1.68,1.78-2.26,1.78s-9.55-3.71-12.28-4.9c-62.57-27.18-110-92.53-116.57-103.55a6.67,6.67,0,0,1-1-2.31c.23-.83,2.33-2.94,3.42-4,3.17-3.14,6.61-7.29,9.94-11.3,1.58-1.89,3.16-3.8,4.71-5.59,4.83-5.62,7-10,9.48-15l1.3-2.62c6.09-12.1.89-22.31-.79-25.6-1.38-2.76-26-62.19-28.62-68.44-6.3-15.07-14.62-22.08-26.18-22.08-1.07,0,0,0-4.5.19-5.48.23-35.31,4.16-48.5,12.47-14,8.82-37.65,36.93-37.65,86.36,0,44.49,28.24,86.5,40.36,102.48.3.4.85,1.22,1.66,2.39,46.42,67.8,104.29,118,163,141.48,56.48,22.56,83.23,25.17,98.43,25.17h0a152.12,152.12,0,0,0,16-.95l2.86-.27c19.51-1.73,62.39-24,72.15-51.05,7.68-21.35,9.7-44.67,4.59-53.14C605.63,466.25,599.6,463.36,592,459.69Z" fill="currentColor"/><path d="M407.1,0C190.44,0,14.17,175,14.17,390A387.14,387.14,0,0,0,68,587.2L.55,786.28a10.39,10.39,0,0,0,13,13.23l207.58-66a395.59,395.59,0,0,0,186,46.37C623.75,779.92,800,605,800,390S623.75,0,407.1,0Zm0,698.69a311.29,311.29,0,0,1-171.26-51.06,10.39,10.39,0,0,0-8.85-1.21L123,679.47l33.56-99a10.37,10.37,0,0,0-1.45-9.47A304.46,304.46,0,0,1,95.86,390c0-170.24,139.62-308.74,311.24-308.74S718.3,219.74,718.3,390,578.7,698.69,407.1,698.69Z" fill="currentColor"/></svg>