<svg xmlns="http://www.w3.org/2000/svg" xmlns:xlink="http://www.w3.org/1999/xlink" width="508.27" height="604.09" viewBox="0 0 508.27 604.09"><defs><clipPath id="a" transform="translate(0 0)"><rect width="508.27" height="604.09" fill="none"/></clipPath></defs><g clip-path="url(#a)"><path d="M335.56,194.22a21.1,21.1,0,1,1-42.13,2.44l-3.17-54.78a21.1,21.1,0,0,1,42.13-2.43Z" transform="translate(0 0)" fill="#fff"/><path d="M335.56,194.22a21.1,21.1,0,1,1-42.13,2.44l-3.17-54.78a21.1,21.1,0,0,1,42.13-2.43Z" transform="translate(0 0)" fill="none" stroke="#000" stroke-linecap="round" stroke-linejoin="round" stroke-width="4"/><path d="M309.87,176.26a20.4,20.4,0,1,0-40.38-5.79l-19,71.6-70.77,35.31a20.35,20.35,0,1,0,22.3,34l70.07-34.85a21.8,21.8,0,0,0,16.32-19.77Z" transform="translate(0 0)" fill="#38a1ab"/><path d="M309.87,176.26a20.4,20.4,0,1,0-40.38-5.79l-19,71.6-70.77,35.31a20.35,20.35,0,1,0,22.3,34l70.07-34.85a21.8,21.8,0,0,0,16.32-19.77Z" transform="translate(0 0)" fill="none" stroke="#000" stroke-linecap="round" stroke-linejoin="round" stroke-width="4"/><path d="M336.2,576.89c.11,5.54,1.8,22.31-3.94,22.31-20.24,0-61,7-61.66-.83-1.11-13.32,34.52-11,35.14-24.45" transform="translate(0 0)" fill="#38a1ab"/><path d="M336.2,576.89c.11,5.54,1.8,22.31-3.94,22.31-20.24,0-61,7-61.66-.83-1.11-13.32,34.52-11,35.14-24.45" transform="translate(0 0)" fill="none" stroke="#000" stroke-linecap="round" stroke-linejoin="round" stroke-width="4"/><path d="M329.37,279.51a28.69,28.69,0,0,1,27.37,30.18l-9.4,114.88c-1.55,10.08-1.42,29.47-2.52,48.16L336.2,576.89A18.88,18.88,0,0,1,324.44,580c-6.58-.65-18.7-6.09-18.7-6.09s-13.06-113.61-13.19-117.74c-.41-3.26-.55-2.36-.38-5.84l7-143.46a28.71,28.71,0,0,1,30.19-27.37" transform="translate(0 0)" fill="#fff"/><path d="M329.37,279.51a28.69,28.69,0,0,1,27.37,30.18l-9.4,114.88c-1.55,10.08-1.42,29.47-2.52,48.16L336.2,576.89A18.88,18.88,0,0,1,324.44,580c-6.58-.65-18.7-6.09-18.7-6.09s-13.06-113.61-13.19-117.74c-.41-3.26-.55-2.36-.38-5.84l7-143.46A28.71,28.71,0,0,1,329.37,279.51Z" transform="translate(0 0)" fill="none" stroke="#000" stroke-linecap="round" stroke-linejoin="round" stroke-width="4"/><path d="M419.88,575c1.17,5.42,6.07,21.54.43,22.65-4.21.83-19.33,3.64-24.91,3.64-20.95,0-38.16,1.6-37.91-1.52.61-7.87,10.5-9.72,20.81-12.81,8.48-2.53,11.93-3.55,11.11-9" transform="translate(0 0)" fill="#38a1ab"/><path d="M419.88,575c1.17,5.42,6.07,21.54.43,22.65-4.21.83-19.33,3.64-24.91,3.64-20.95,0-38.16,1.6-37.91-1.52.61-7.87,10.5-9.72,20.81-12.81,8.48-2.53,11.93-3.55,11.11-9" transform="translate(0 0)" fill="none" stroke="#000" stroke-linecap="round" stroke-linejoin="round" stroke-width="4"/><path d="M377.78,283.37a28.7,28.7,0,0,1,29.36,28.25l-1.51,115.25c-.85,10.16.06,25.69,2.59,44.25L419.88,575s-7,4.41-13.82,5c-8.14.72-16.65-2.06-16.65-2.06s-34.75-109-35.68-113a25.71,25.71,0,0,1-1.37-8.62l-2.83-143.6a28.73,28.73,0,0,1,28.25-29.38" transform="translate(0 0)" fill="#fff"/><path d="M377.78,283.37a28.7,28.7,0,0,1,29.36,28.25l-1.51,115.25c-.85,10.16.06,25.69,2.59,44.25L419.88,575s-7,4.41-13.82,5c-8.14.72-16.65-2.06-16.65-2.06s-34.75-109-35.68-113a25.71,25.71,0,0,1-1.37-8.62l-2.83-143.6A28.73,28.73,0,0,1,377.78,283.37Z" transform="translate(0 0)" fill="none" stroke="#000" stroke-linecap="round" stroke-linejoin="round" stroke-width="4"/><path d="M287.64,153.08c8.1-1.53,17.4,4.87,26.85,9.21L334,142.19c20.13-1.92,70.14-13.12,65.08,45L412,322.81c3.05,31.95-13,36.08-33.16,38L348.9,363c-38.82,0-54.49-3.18-57.54-35.13l-6.64-123.45" transform="translate(0 0)" fill="#38a1ab"/><path d="M287.64,153.08c8.1-1.53,17.4,4.87,26.85,9.21L334,142.19c20.13-1.92,70.14-13.12,65.08,45L412,322.81c3.05,31.95-13,36.08-33.16,38L348.9,363c-38.82,0-54.49-3.18-57.54-35.13l-6.64-123.45" transform="translate(0 0)" fill="none" stroke="#000" stroke-linecap="round" stroke-linejoin="round" stroke-width="4"/><path d="M299.35,138.53a56.45,56.45,0,1,0-52.41-60.14,56.43,56.43,0,0,0,52.41,60.14" transform="translate(0 0)" fill="#fff"/><path d="M299.35,138.53a56.45,56.45,0,1,0-52.41-60.14A56.43,56.43,0,0,0,299.35,138.53Z" transform="translate(0 0)" fill="none" stroke="#000" stroke-linecap="round" stroke-linejoin="round" stroke-width="4"/><path d="M291.7,80.77a5.11,5.11,0,0,0,7.21-.42" transform="translate(0 0)" fill="#fff"/><path d="M291.7,80.77a5.11,5.11,0,0,0,7.21-.42" transform="translate(0 0)" fill="none" stroke="#000" stroke-linecap="round" stroke-linejoin="round" stroke-width="4"/><path d="M254.62,83a5.1,5.1,0,0,0,7.2-.43" transform="translate(0 0)" fill="#fff"/><path d="M254.62,83a5.1,5.1,0,0,0,7.2-.43" transform="translate(0 0)" fill="none" stroke="#000" stroke-linecap="round" stroke-linejoin="round" stroke-width="4"/><path d="M298.48,109.31a24.16,24.16,0,0,1-34.13,2" transform="translate(0 0)" fill="#fff"/><path d="M298.48,109.31a24.16,24.16,0,0,1-34.13,2" transform="translate(0 0)" fill="none" stroke="#000" stroke-linecap="round" stroke-linejoin="round" stroke-width="4"/><path d="M328.75,67c1-.55,2-1.07,3-1.54.27,8-.93,15.9-.62,23.82,2.76-7,16.84-25.5,18.49-7.07.78,8.76-3.38,16-8.07,23,5.51-.57,8.38,7.69,11.52,11.6,12.43-26.13,23.06-70.33-6.28-90.37-8.83-6-21.29-4.88-31.81-5.36-13.13-.6-26.3-.74-39.44-1C267.36,20,253.06,17.8,246.35,24c-8.84,8.15-2.59,26.47,3.37,34.94,8.1-3.14,17.41-3.7,26-5.13,5.35-.9,45.23-6.4,44-14C321.46,51,317.5,62.13,318,73.37c3.31-2.2,7.19-4.5,10.74-6.39" transform="translate(0 0)" fill="#fff"/><path d="M328.75,67c1-.55,2-1.07,3-1.54.27,8-.93,15.9-.62,23.82,2.76-7,16.84-25.5,18.49-7.07.78,8.76-3.38,16-8.07,23,5.51-.57,8.38,7.69,11.52,11.6,12.43-26.13,23.06-70.33-6.28-90.37-8.83-6-21.29-4.88-31.81-5.36-13.13-.6-26.3-.74-39.44-1C267.36,20,253.06,17.8,246.35,24c-8.84,8.15-2.59,26.47,3.37,34.94,8.1-3.14,17.41-3.7,26-5.13,5.35-.9,45.23-6.4,44-14C321.46,51,317.5,62.13,318,73.37,321.32,71.17,325.2,68.87,328.75,67Z" transform="translate(0 0)" fill="none" stroke="#000" stroke-linecap="round" stroke-linejoin="round" stroke-width="4"/><path d="M269.21,82.55c-.89,6.9-2.44,11.84-4.08,19.87,1.57.09,4.16.44,5.46.09" transform="translate(0 0)" fill="#fff"/><path d="M269.21,82.55c-.89,6.9-2.44,11.84-4.08,19.87,1.57.09,4.16.44,5.46.09" transform="translate(0 0)" fill="none" stroke="#000" stroke-linecap="round" stroke-linejoin="round" stroke-width="4"/><path d="M396.27,299.33c-9,6.32-26.43,7.34-36.79,3.87" transform="translate(0 0)" fill="none" stroke="#000" stroke-linecap="round" stroke-linejoin="round" stroke-width="4"/><path d="M120.33,172.9a21.1,21.1,0,1,1-42.17-1.67l2.17-54.83a21.1,21.1,0,0,1,42.17,1.67Z" transform="translate(0 0)" fill="#fff"/><path d="M120.33,172.9a21.1,21.1,0,1,1-42.17-1.67l2.17-54.83a21.1,21.1,0,0,1,42.17,1.67Z" transform="translate(0 0)" fill="none" stroke="#000" stroke-linecap="round" stroke-linejoin="round" stroke-width="4"/><path d="M141.21,333.89s-5.55,19.7-5,30.82,8-8.9,8-8.9c-1.85,11-12.67,23.71-1.7,25.55a20.8,20.8,0,0,0,23.52-16.78l-4-32.19Z" transform="translate(0 0)" fill="#fff"/><path d="M141.21,333.89s-5.55,19.7-5,30.82,8-8.9,8-8.9c-1.85,11-12.67,23.71-1.7,25.55a20.8,20.8,0,0,0,23.52-16.78l-4-32.19Z" transform="translate(0 0)" fill="none" stroke="#000" stroke-linecap="round" stroke-linejoin="round" stroke-width="4"/><path d="M96.35,576.89c-.1,5.54-1.8,22.31,3.94,22.31,20.24,0,61,7,61.67-.83,1.1-13.32-34.52-11-35.15-24.45" transform="translate(0 0)" fill="#fff"/><path d="M96.35,576.89c-.1,5.54-1.8,22.31,3.94,22.31,20.24,0,61,7,61.67-.83,1.1-13.32-34.52-11-35.15-24.45" transform="translate(0 0)" fill="none" stroke="#000" stroke-linecap="round" stroke-linejoin="round" stroke-width="4"/><path d="M103.19,279.51a28.68,28.68,0,0,0-27.37,30.18l9.39,114.88c1.55,10.08,1.42,29.47,2.53,48.16l8.61,104.16A18.9,18.9,0,0,0,108.12,580c6.57-.65,18.69-6.09,18.69-6.09S139.87,460.31,140,456.18c.41-3.26.55-2.36.38-5.84l-7-143.46a28.72,28.72,0,0,0-30.19-27.37" transform="translate(0 0)" fill="#fff"/><path d="M103.19,279.51a28.68,28.68,0,0,0-27.37,30.18l9.39,114.88c1.55,10.08,1.42,29.47,2.53,48.16l8.61,104.16A18.9,18.9,0,0,0,108.12,580c6.57-.65,18.69-6.09,18.69-6.09S139.87,460.31,140,456.18c.41-3.26.55-2.36.38-5.84l-7-143.46A28.72,28.72,0,0,0,103.19,279.51Z" transform="translate(0 0)" fill="none" stroke="#000" stroke-linecap="round" stroke-linejoin="round" stroke-width="4"/><path d="M166.05,346.27l-27.33,2.65-.52-73.75.6-100.31-2.07,181.3-43,12.74,5.21-205,20.87-26.48s6.45-5.12,16.89-3.63c12.55,1.8,21.2,19.27,22.78,30.72,1.78,12.89,6.56,181.72,6.56,181.72" transform="translate(0 0)" fill="#fff"/><path d="M166.05,346.27l-27.33,2.65-.52-73.75.6-100.31-2.07,181.3-43,12.74,5.21-205,20.87-26.48s6.45-5.12,16.89-3.63c12.55,1.8,21.2,19.27,22.78,30.72C161.27,177.44,166.05,346.27,166.05,346.27Z" transform="translate(0 0)" fill="none" stroke="#000" stroke-linecap="round" stroke-linejoin="round" stroke-width="4"/><path d="M137.05,290.74c-6.86,4.8-14.5,7.83-19.33,7.76L115.9,337s3.24,1.13,13.87-4a31.05,31.05,0,0,0,7.28-4.86Z" transform="translate(0 0)" fill="#fff"/><path d="M137.05,290.74c-6.86,4.8-14.5,7.83-19.33,7.76L115.9,337s3.24,1.13,13.87-4a31.05,31.05,0,0,0,7.28-4.86Z" transform="translate(0 0)" fill="none" stroke="#000" stroke-linecap="round" stroke-linejoin="round" stroke-width="4"/><path d="M6.67,575C5.5,580.4.6,596.52,6.23,597.63c4.22.83,19.33,3.64,24.92,3.64,20.94,0,38.15,1.6,37.91-1.52-.62-7.87-10.51-9.72-20.82-12.81-8.48-2.53-11.92-3.55-11.11-9" transform="translate(0 0)" fill="#fff"/><path d="M6.67,575C5.5,580.4.6,596.52,6.23,597.63c4.22.83,19.33,3.64,24.92,3.64,20.94,0,38.15,1.6,37.91-1.52-.62-7.87-10.51-9.72-20.82-12.81-8.48-2.53-11.92-3.55-11.11-9" transform="translate(0 0)" fill="none" stroke="#000" stroke-linecap="round" stroke-linejoin="round" stroke-width="4"/><path d="M48.77,283.37A28.71,28.71,0,0,0,19.4,311.62l1.51,115.25c.86,10.16-.06,25.69-2.58,44.25L6.67,575s7,4.41,13.81,5c8.14.72,16.65-2.06,16.65-2.06S71.88,469,72.81,465a25.46,25.46,0,0,0,1.38-8.62L77,312.75a28.72,28.72,0,0,0-28.24-29.38" transform="translate(0 0)" fill="#fff"/><path d="M48.77,283.37A28.71,28.71,0,0,0,19.4,311.62l1.51,115.25c.86,10.16-.06,25.69-2.58,44.25L6.67,575s7,4.41,13.81,5c8.14.72,16.65-2.06,16.65-2.06S71.88,469,72.81,465a25.46,25.46,0,0,0,1.38-8.62L77,312.75A28.72,28.72,0,0,0,48.77,283.37Z" transform="translate(0 0)" fill="none" stroke="#000" stroke-linecap="round" stroke-linejoin="round" stroke-width="4"/><path d="M125.13,120.55A57.7,57.7,0,1,1,150.23,43a57.68,57.68,0,0,1-25.1,77.57" transform="translate(0 0)" fill="#fff"/><path d="M125.13,120.55A57.7,57.7,0,1,1,150.23,43,57.68,57.68,0,0,1,125.13,120.55Z" transform="translate(0 0)" fill="none" stroke="#000" stroke-linecap="round" stroke-linejoin="round" stroke-width="4"/><path d="M118.29,105.27c11.91,6.69,25.6,0,28.52-4" transform="translate(0 0)" fill="none" stroke="#000" stroke-linecap="round" stroke-linejoin="round" stroke-width="4"/><path d="M81.21,61.81c.16,6.12-.58,10.07-.25,16.19-7.21-6.41-19-4.56-17.23,6.66,1.59,9.93,7.33,14.66,14.08,21.11-3.92-3.74-6.75,9.87-8.71,14.45C51.16,119.56,42.81,99.57,35,72.69c-3.58-12.34-5.26-53.12,16.23-46.6,17.64-18,36.17-25.95,62-23.73,20,1.71,37.41,15.47,55.66,22.12-10.71,8.45-27.81,15.46-41.18,17.57-5.16.82-44.43-.72-45-6.93.69,7.42,4.85,17.16,7.28,24.05a57.26,57.26,0,0,0-8.79,2.64" transform="translate(0 0)" fill="#fff"/><path d="M81.21,61.81c.16,6.12-.58,10.07-.25,16.19-7.21-6.41-19-4.56-17.23,6.66,1.59,9.93,7.33,14.66,14.08,21.11-3.92-3.74-6.75,9.87-8.71,14.45C51.16,119.56,42.81,99.57,35,72.69c-3.58-12.34-5.26-53.12,16.23-46.6,17.64-18,36.17-25.95,62-23.73,20,1.71,37.41,15.47,55.66,22.12-10.71,8.45-27.81,15.46-41.18,17.57-5.16.82-44.43-.72-45-6.93.69,7.42,4.85,17.16,7.28,24.05A57.26,57.26,0,0,0,81.21,61.81Z" transform="translate(0 0)" fill="none" stroke="#000" stroke-linecap="round" stroke-linejoin="round" stroke-width="4"/><path d="M119.42,73.33a1.92,1.92,0,1,1-1.92-1.92,1.92,1.92,0,0,1,1.92,1.92" transform="translate(0 0)" fill="#fff"/><path d="M119.42,73.33a1.92,1.92,0,1,1-1.92-1.92A1.92,1.92,0,0,1,119.42,73.33Z" transform="translate(0 0)" fill="none" stroke="#000" stroke-linecap="round" stroke-linejoin="round" stroke-width="4"/><path d="M150.65,69.1a1.92,1.92,0,1,1-1.92-1.92,1.92,1.92,0,0,1,1.92,1.92" transform="translate(0 0)" fill="#fff"/><path d="M150.65,69.1a1.92,1.92,0,1,1-1.92-1.92A1.92,1.92,0,0,1,150.65,69.1Z" transform="translate(0 0)" fill="none" stroke="#000" stroke-linecap="round" stroke-linejoin="round" stroke-width="4"/><polyline points="137.63 71.01 143.86 89.1 134.18 90.54" fill="none" stroke="#000" stroke-linecap="round" stroke-linejoin="round" stroke-width="4"/><path d="M4.82,185.2c.19,1.69.4,3.32.64,4.88,8.56,57,1,113-3.46,170.12,0,0,17.63,9.41,35.87,11.46,22.78,2.56,57.25-2.76,57.25-2.76l5.21-205s-36.64-34.87-36.69-34.87c-11.52.3-42.16,6-47.18,13C8.77,152.8,3.3,171.66,4.82,185.2" transform="translate(0 0)" fill="#fff"/><path d="M4.82,185.2c.19,1.69.4,3.32.64,4.88,8.56,57,1,113-3.46,170.12,0,0,17.63,9.41,35.87,11.46,22.78,2.56,57.25-2.76,57.25-2.76l5.21-205s-36.64-34.87-36.69-34.87c-11.52.3-42.16,6-47.18,13C8.77,152.8,3.3,171.66,4.82,185.2Z" transform="translate(0 0)" fill="none" stroke="#000" stroke-linecap="round" stroke-linejoin="round" stroke-width="4"/><line x1="63.64" y1="129.07" x2="95.21" y2="199.63" fill="none" stroke="#000" stroke-linecap="round" stroke-linejoin="round" stroke-width="4"/><path d="M101.92,166.82a7.58,7.58,0,1,0-5.09-.18L81,299.11l18.42,19.95,17.48-19.95Z" transform="translate(0 0)" fill="#38a1ab"/><path d="M101.92,166.82a7.58,7.58,0,1,0-5.09-.18L81,299.11l18.42,19.95,17.48-19.95Z" transform="translate(0 0)" fill="none" stroke="#000" stroke-linecap="round" stroke-linejoin="round" stroke-width="4"/><path d="M97.51,279.75a20,20,0,0,1,11.14-38.47L195.3,278.2a20,20,0,1,1-11.13,38.48Z" transform="translate(0 0)" fill="#fff"/><path d="M97.51,279.75a20,20,0,0,1,11.14-38.47L195.3,278.2a20,20,0,1,1-11.13,38.48Z" transform="translate(0 0)" fill="none" stroke="#000" stroke-linecap="round" stroke-linejoin="round" stroke-width="4"/><path d="M24.46,149.25C54.72,145.7,50,171,59.5,193c7.69,17.95,26,33.77,43.1,42.77,19.22,10.11,64.26,25.19,73.86,30.36,3.14,1.68-5.8,24-8.08,30.32-2.09,5.75-4.46,11.29-6,17.2-.13.51-.26,1-.38,1.55-13-2.88-73-32-88-41.46-21.05-13.31-45.66-34.37-55.37-58" transform="translate(0 0)" fill="#fff"/><path d="M24.46,149.25C54.72,145.7,50,171,59.5,193c7.69,17.95,26,33.77,43.1,42.77,19.22,10.11,64.26,25.19,73.86,30.36,3.14,1.68-5.8,24-8.08,30.32-2.09,5.75-4.46,11.29-6,17.2-.13.51-.26,1-.38,1.55-13-2.88-73-32-88-41.46-21.05-13.31-45.66-34.37-55.37-58" transform="translate(0 0)" fill="none" stroke="#000" stroke-linecap="round" stroke-linejoin="round" stroke-width="4"/><path d="M61.67,301.31c-10,4.6-27.31,2.46-36.89-2.81v42.29s4.45,3.64,18.45,5.58,18.44-5.58,18.44-5.58Z" transform="translate(0 0)" fill="#fff"/><path d="M61.67,301.31c-10,4.6-27.31,2.46-36.89-2.81v42.29s4.45,3.64,18.45,5.58,18.44-5.58,18.44-5.58Z" transform="translate(0 0)" fill="none" stroke="#000" stroke-linecap="round" stroke-linejoin="round" stroke-width="4"/><line x1="106.8" y1="197.77" x2="134.18" y2="133.56" fill="none" stroke="#000" stroke-linecap="round" stroke-linejoin="round" stroke-width="4"/><polygon points="98.43 150.88 86.24 167.76 63.64 129.07 80.03 123.89 98.43 150.88" fill="#fff"/><polygon points="98.43 150.88 86.24 167.76 63.64 129.07 80.03 123.89 98.43 150.88" fill="none" stroke="#000" stroke-linecap="round" stroke-linejoin="round" stroke-width="4"/><polygon points="101 152.04 114.22 165.04 134.18 133.56 122.51 123.89 101 152.04" fill="#fff"/><polygon points="101 152.04 114.22 165.04 134.18 133.56 122.51 123.89 101 152.04" fill="none" stroke="#000" stroke-linecap="round" stroke-linejoin="round" stroke-width="4"/><path d="M337.11,367.3A9.31,9.31,0,0,0,327,375.77L318.66,472c-.44,5.11,9.61,26.19,14.71,26.63l144.05-3.48a9.29,9.29,0,0,0,10.07-8.45l17.43-81.2c.45-5.13-12.4-24.64-17.51-25.09Z" transform="translate(0 0)" fill="#fff"/><path d="M337.11,367.3A9.31,9.31,0,0,0,327,375.77L318.66,472c-.44,5.11,9.61,26.19,14.71,26.63l144.05-3.48a9.29,9.29,0,0,0,10.07-8.45l17.43-81.2c.45-5.13-12.4-24.64-17.51-25.09Z" transform="translate(0 0)" fill="none" stroke="#000" stroke-linecap="round" stroke-linejoin="round" stroke-width="4"/><path d="M347.49,385.26a9.31,9.31,0,0,0-10.08,8.46L329,489.93A9.3,9.3,0,0,0,337.49,500l150.29,13.1a9.31,9.31,0,0,0,10.08-8.45l8.38-96.21a9.31,9.31,0,0,0-8.47-10.08Z" transform="translate(0 0)" fill="#fff"/><path d="M347.49,385.26a9.31,9.31,0,0,0-10.08,8.46L329,489.93A9.3,9.3,0,0,0,337.49,500l150.29,13.1a9.31,9.31,0,0,0,10.08-8.45l8.38-96.21a9.31,9.31,0,0,0-8.47-10.08Z" transform="translate(0 0)" fill="none" stroke="#000" stroke-linecap="round" stroke-linejoin="round" stroke-width="4"/><line x1="492.8" y1="388.4" x2="454.37" y2="385.05" fill="none" stroke="#000" stroke-linecap="round" stroke-linejoin="round" stroke-width="4"/><line x1="390.24" y1="379.47" x2="350.09" y2="375.97" fill="none" stroke="#000" stroke-linecap="round" stroke-linejoin="round" stroke-width="4"/><path d="M408.14,381l1.45-16.61A9.59,9.59,0,0,1,420,355.73l7.06.6a9.61,9.61,0,0,1,8.7,10.37l-1.45,16.6,12.46,1.09,1.51-17.3a20.92,20.92,0,0,0-19-22.62l-8.92-.78a20.92,20.92,0,0,0-22.64,19L396.17,380Z" transform="translate(0 0)" fill="#fff"/><path d="M408.14,381l1.45-16.61A9.59,9.59,0,0,1,420,355.73l7.06.6a9.61,9.61,0,0,1,8.7,10.37l-1.45,16.6,12.46,1.09,1.51-17.3a20.92,20.92,0,0,0-19-22.62l-8.92-.78a20.92,20.92,0,0,0-22.64,19L396.17,380Z" transform="translate(0 0)" fill="none" stroke="#000" stroke-linecap="round" stroke-linejoin="round" stroke-width="4"/><path d="M421.06,367.61c-9.08.68-7.69-4.42-8.34-11.3-.34-3.65-1.67-15.63-7.67-9.18-1.58-3.55,2.39-10,3.42-13.7.76-2.74-2.13-3.14.2-5.82,1-1.14,7.46-1.9,9.16-2.79,10.65-5.55,5.89-3.78,12.3,4.83,7.12,9.58,13.78,9.5,9.23,24.07-2.74,8.75-9.3,13.23-18.3,13.89" transform="translate(0 0)" fill="#fff"/><path d="M421.06,367.61c-9.08.68-7.69-4.42-8.34-11.3-.34-3.65-1.67-15.63-7.67-9.18-1.58-3.55,2.39-10,3.42-13.7.76-2.74-2.13-3.14.2-5.82,1-1.14,7.46-1.9,9.16-2.79,10.65-5.55,5.89-3.78,12.3,4.83,7.12,9.58,13.78,9.5,9.23,24.07C436.62,362.47,430.06,367,421.06,367.61Z" transform="translate(0 0)" fill="none" stroke="#000" stroke-linecap="round" stroke-linejoin="round" stroke-width="4"/><path d="M380.12,143.72c16.05,6.71,21.44,20.55,22.25,32.05l33.8,152.71-30.56,5.17L361,178.64" transform="translate(0 0)" fill="#38a1ab"/><path d="M380.12,143.72c16.05,6.71,21.44,20.55,22.25,32.05l33.8,152.71-30.56,5.17L361,178.64" transform="translate(0 0)" fill="none" stroke="#000" stroke-linecap="round" stroke-linejoin="round" stroke-width="4"/><path d="M171.12,319.92c-4.54-2.35-8.91-5.52-9.82-10.21-1.31-6.75,1.23-11.08,4.79-16.16a20,20,0,1,1,32.85,22.92c-2.11,2.36-4.52,6.69-7.17,8.2-4.22,2.39-10.17,0-14.11-1.76-1.95-.85-4.27-1.82-6.54-3" transform="translate(0 0)" fill="#fff"/><path d="M171.12,319.92c-4.54-2.35-8.91-5.52-9.82-10.21-1.31-6.75,1.23-11.08,4.79-16.16a20,20,0,1,1,32.85,22.92c-2.11,2.36-4.52,6.69-7.17,8.2-4.22,2.39-10.17,0-14.11-1.76C175.71,322.06,173.39,321.09,171.12,319.92Z" transform="translate(0 0)" fill="none" stroke="#000" stroke-linecap="round" stroke-linejoin="round" stroke-width="4"/><line x1="314.49" y1="162.29" x2="336.51" y2="359.91" fill="none" stroke="#000" stroke-linecap="round" stroke-linejoin="round" stroke-width="4"/><path d="M317.55,169.21a7.58,7.58,0,1,0-5.08.37L311.06,303l20.48,17.83,15.21-21.71Z" transform="translate(0 0)" fill="#fff"/><path d="M317.55,169.21a7.58,7.58,0,1,0-5.08.37L311.06,303l20.48,17.83,15.21-21.71Z" transform="translate(0 0)" fill="none" stroke="#000" stroke-linecap="round" stroke-linejoin="round" stroke-width="4"/></g></svg>