<svg xmlns="http://www.w3.org/2000/svg" viewBox="0 0 2226.63 685"><path d="M1555.87,1100.92c234,22.41,243.05,202,472.41,149.67,79.18-18.08,238-61.82,376.15-100.07" transform="translate(-615.24 -576.94)" fill="none" stroke="#000" stroke-linecap="round" stroke-linejoin="round" stroke-width="3.65" stroke-dasharray="7.29 12.76"/><path d="M1627.27,1018.54c.15-1.87.51-6.18.51-6.18a3.69,3.69,0,0,0-3.4-4s-4.05,0-6.15-.13c-1.06-.08-2.09-1.14-2.83-1.14h0l12.91,14.58v-.2A4.28,4.28,0,0,1,1627.27,1018.54Z" transform="translate(-615.24 -576.94)" fill="#fff" stroke="#000" stroke-linecap="round" stroke-linejoin="round" stroke-width="3.65"/><path d="M1616.34,978.64s-1.85,22.63-2,24.75a4.09,4.09,0,0,0,1.09,2.94,4.36,4.36,0,0,0,2.83,1.53l6.15.51a3.69,3.69,0,0,1,3.4,4s-.36,4.31-.51,6.18a3.83,3.83,0,0,0,1,2.75,3.66,3.66,0,0,0,2.37,1.29l33.33,2.73a3.71,3.71,0,0,0,4-3.39l3.18-38.78a3.71,3.71,0,0,0-3.41-4l-47.44-3.88A3.71,3.71,0,0,0,1616.34,978.64Z" transform="translate(-615.24 -576.94)" fill="#fff" stroke="#000" stroke-linecap="round" stroke-linejoin="round" stroke-width="3.65"/><path d="M1627.23,1010.12a3.68,3.68,0,0,1,.55,2.24s-.36,4.31-.51,6.18a3.83,3.83,0,0,0,1,2.75,3.66,3.66,0,0,0,2.37,1.29l7.6.62Z" transform="translate(-615.24 -576.94)" fill-opacity="0.2"/><line x1="1020.98" y1="432.81" x2="1022.76" y2="411.36" fill="#fff" stroke="#000" stroke-linecap="round" stroke-linejoin="round" stroke-width="3.65"/><line x1="1031.22" y1="433.95" x2="1033" y2="412.49" fill="#fff" stroke="#000" stroke-linecap="round" stroke-linejoin="round" stroke-width="3.65"/><line x1="1041.46" y1="435.08" x2="1043.24" y2="413.63" fill="#fff" stroke="#000" stroke-linecap="round" stroke-linejoin="round" stroke-width="3.65"/><path d="M1814.53,956.7l-2.5-6.26a6.27,6.27,0,0,0-5.77-3.48,49.07,49.07,0,0,1-7.15-.19c-1.24-.14-2.7-1.67-3.95-1.67h0A190.1,190.1,0,0,0,1817,959.36v-.08A5.52,5.52,0,0,1,1814.53,956.7Z" transform="translate(-615.24 -576.94)" fill="#fff" stroke="#000" stroke-linecap="round" stroke-linejoin="round" stroke-width="3.65"/><path d="M1782.46,916.5l10,25.15a8.48,8.48,0,0,0,2.69,3.18,8.57,8.57,0,0,0,3.95,1.8,55.61,55.61,0,0,0,7.15.33,6.28,6.28,0,0,1,5.77,3.48s1.74,4.37,2.5,6.26a5.35,5.35,0,0,0,2.51,2.51,5.15,5.15,0,0,0,3.24.67c3.58,3,34.49-16.25,32.48-19.2a8.1,8.1,0,0,0,1.18-7.25l-15.54-39c-.81-2-2.61-2.07-4.16-.21a54.64,54.64,0,0,1-48.94,19.28C1782.9,913.17,1781.63,914.42,1782.46,916.5Z" transform="translate(-615.24 -576.94)" fill="#fff" stroke="#000" stroke-linecap="round" stroke-linejoin="round" stroke-width="3.65"/><path d="M1810.3,948.31a5.12,5.12,0,0,1,1.73,2.13s1.74,4.37,2.5,6.26a5.35,5.35,0,0,0,2.51,2.51,5.15,5.15,0,0,0,3.24.67,54.43,54.43,0,0,0,8.4-2.25A157.5,157.5,0,0,1,1810.3,948.31Z" transform="translate(-615.24 -576.94)" fill-opacity="0.2"/><path d="M1819.92,945.37q-4.34-10.85-8.65-21.71" transform="translate(-615.24 -576.94)" fill="#fff" stroke="#000" stroke-linecap="round" stroke-linejoin="round" stroke-width="3.65"/><path d="M1830.94,941.31l-8.63-21.68" transform="translate(-615.24 -576.94)" fill="#fff" stroke="#000" stroke-linecap="round" stroke-linejoin="round" stroke-width="3.65"/><path d="M1840.84,935l-8.61-21.65" transform="translate(-615.24 -576.94)" fill="#fff" stroke="#000" stroke-linecap="round" stroke-linejoin="round" stroke-width="3.65"/><path d="M1709.34,881.55a33.24,33.24,0,0,0-3.77.3c-1.33-8.54-7.19-15.4-16-15.19-4.2.09-15,1.56-15.54,13.51-13-5.06-22.65,6-22.39,16.55.24,11.2,11.09,19,24.18,18.67s22.81-.49,34.34-.75c13.12-.32,19.85-7.89,19.64-17S1722.46,881.24,1709.34,881.55Z" transform="translate(-615.24 -576.94)" fill="#fff" stroke="#000" stroke-linecap="round" stroke-linejoin="round" stroke-width="3.65"/><path d="M1162.17,1091.29A40.07,40.07,0,1,1,1122.1,1051,40.18,40.18,0,0,1,1162.17,1091.29Z" transform="translate(-615.24 -576.94)" fill="#fff" stroke="#000" stroke-miterlimit="10" stroke-width="3.65"/><path d="M1123.39,1067h-2.33a10,10,0,0,0-9.93,10v2.35a10,10,0,0,0,9.93,10h2.33a10,10,0,0,0,9.93-10V1077a10,10,0,0,0-9.93-10" transform="translate(-615.24 -576.94)" fill="#fff" stroke="#000" stroke-miterlimit="10" stroke-width="3.65"/><path d="M1141.26,1103.56v0a19.29,19.29,0,0,0-9.4-16.57c-.32.35-.64.7-1,1a33.12,33.12,0,0,0-8.78,15.28,34.76,34.76,0,0,0-8.78-15.28c-.34-.35-.67-.7-1-1.06a19.3,19.3,0,0,0-9.41,16.58c0,.09,0,.18,0,.28a3.29,3.29,0,0,0,0,.45v1a10.28,10.28,0,0,0,10.24,10.31h17.9a10.27,10.27,0,0,0,10.24-10.31v-1C1141.29,1104,1141.27,1103.79,1141.26,1103.56Z" transform="translate(-615.24 -576.94)" fill="#00aeef" stroke="#000" stroke-linecap="round" stroke-linejoin="round" stroke-width="3.65"/><path d="M945.6,1113.8a22,22,0,1,1-22-22.08A22,22,0,0,1,945.6,1113.8Z" transform="translate(-615.24 -576.94)" fill="#fff" stroke="#000" stroke-miterlimit="10" stroke-width="3.65"/><path d="M924.36,1100.48h-1.28a5.46,5.46,0,0,0-5.44,5.48v1.28a5.46,5.46,0,0,0,5.44,5.47h1.28a5.46,5.46,0,0,0,5.44-5.47V1106a5.46,5.46,0,0,0-5.44-5.48" transform="translate(-615.24 -576.94)" fill="#fff" stroke="#000" stroke-miterlimit="10" stroke-width="3.65"/><path d="M934.14,1120.52v0a10.57,10.57,0,0,0-5.15-9.08,7.15,7.15,0,0,1-.53.57,18.19,18.19,0,0,0-4.81,8.39,19,19,0,0,0-4.81-8.39c-.19-.18-.36-.37-.54-.57a10.58,10.58,0,0,0-5.16,9.08v1a5.63,5.63,0,0,0,5.6,5.64h9.81a5.63,5.63,0,0,0,5.61-5.64v-.58C934.16,1120.77,934.15,1120.64,934.14,1120.52Z" transform="translate(-615.24 -576.94)" fill="#00aeef" stroke="#000" stroke-linecap="round" stroke-linejoin="round" stroke-width="3.65"/><path d="M919,942.39a17.12,17.12,0,1,1-17.11-17.21A17.17,17.17,0,0,1,919,942.39Z" transform="translate(-615.24 -576.94)" fill="#fff" stroke="#000" stroke-miterlimit="10" stroke-width="3.65"/><path d="M902.46,932h-1a4.26,4.26,0,0,0-4.24,4.27v1a4.25,4.25,0,0,0,4.24,4.26h1a4.25,4.25,0,0,0,4.24-4.26v-1a4.26,4.26,0,0,0-4.24-4.27" transform="translate(-615.24 -576.94)" fill="#fff" stroke="#000" stroke-miterlimit="10" stroke-width="3.65"/><path d="M910.09,947.63v0a8.25,8.25,0,0,0-4-7.08q-.2.22-.42.45a14.09,14.09,0,0,0-3.74,6.53,14.79,14.79,0,0,0-3.76-6.53l-.42-.45a8.25,8.25,0,0,0-4,7.08v.76a4.39,4.39,0,0,0,4.37,4.4h7.65a4.39,4.39,0,0,0,4.37-4.4v-.44C910.1,947.83,910.09,947.73,910.09,947.63Z" transform="translate(-615.24 -576.94)" fill="#00aeef" stroke="#000" stroke-linecap="round" stroke-linejoin="round" stroke-width="3.65"/><path d="M798.37,1145.08a29.59,29.59,0,1,1-29.59-29.76A29.68,29.68,0,0,1,798.37,1145.08Z" transform="translate(-615.24 -576.94)" fill="#fff" stroke="#000" stroke-miterlimit="10" stroke-width="3.65"/><path d="M769.73,1127.13H768a7.37,7.37,0,0,0-7.34,7.38v1.73a7.36,7.36,0,0,0,7.34,7.38h1.71a7.36,7.36,0,0,0,7.34-7.38v-1.73a7.37,7.37,0,0,0-7.34-7.38" transform="translate(-615.24 -576.94)" fill="#fff" stroke="#000" stroke-miterlimit="10" stroke-width="3.65"/><path d="M782.93,1154.15v0a14.24,14.24,0,0,0-6.94-12.24c-.23.26-.47.51-.72.77a24.45,24.45,0,0,0-6.49,11.3,25.62,25.62,0,0,0-6.48-11.3l-.73-.77a14.24,14.24,0,0,0-7,12.24v.2c0,.11,0,.23,0,.34v.78a7.58,7.58,0,0,0,7.56,7.6h13.22a7.58,7.58,0,0,0,7.57-7.6v-.78C783,1154.48,782.94,1154.31,782.93,1154.15Z" transform="translate(-615.24 -576.94)" fill="#00aeef" stroke="#000" stroke-linecap="round" stroke-linejoin="round" stroke-width="3.65"/><path d="M1042.27,973.16a27,27,0,1,1-27-27.12A27,27,0,0,1,1042.27,973.16Z" transform="translate(-615.24 -576.94)" fill="#fff" stroke="#000" stroke-miterlimit="10" stroke-width="3.65"/><path d="M1016.17,956.81h-1.56a6.69,6.69,0,0,0-6.68,6.71v1.59a6.69,6.69,0,0,0,6.68,6.71h1.56a6.7,6.7,0,0,0,6.69-6.71v-1.59a6.7,6.7,0,0,0-6.69-6.71" transform="translate(-615.24 -576.94)" fill="#fff" stroke="#000" stroke-miterlimit="10" stroke-width="3.65"/><path d="M1028.2,981.42v0a13,13,0,0,0-6.32-11.16l-.67.71a22.23,22.23,0,0,0-5.9,10.29,23.43,23.43,0,0,0-5.91-10.29l-.67-.71a13,13,0,0,0-6.33,11.16c0,.05,0,.11,0,.18s0,.2,0,.31v.7a6.91,6.91,0,0,0,6.89,6.93h12.05a6.91,6.91,0,0,0,6.89-6.93v-.7C1028.22,981.72,1028.2,981.57,1028.2,981.42Z" transform="translate(-615.24 -576.94)" fill="#00aeef" stroke="#000" stroke-linecap="round" stroke-linejoin="round" stroke-width="3.65"/><path d="M1317.49,1079.84a34.13,34.13,0,1,1-32.31-32.51A34.23,34.23,0,0,1,1317.49,1079.84Z" transform="translate(-615.24 -576.94)" fill="#fff" stroke="#000" stroke-miterlimit="10" stroke-width="3.65"/><path d="M1284.5,1060.92h-2a8.49,8.49,0,0,0-8.46,8.51v2a8.48,8.48,0,0,0,8.46,8.51h2a8.48,8.48,0,0,0,8.47-8.51v-2a8.5,8.5,0,0,0-8.47-8.51" transform="translate(-615.24 -576.94)" fill="#fff" stroke="#000" stroke-miterlimit="10" stroke-width="3.65"/><path d="M1299.72,1092.08v0a16.42,16.42,0,0,0-8-14.12c-.27.29-.54.59-.84.89a28.25,28.25,0,0,0-7.47,13,29.66,29.66,0,0,0-7.48-13l-.85-.9a16.43,16.43,0,0,0-8,14.13v.23c0,.12,0,.26,0,.39v.89a8.74,8.74,0,0,0,8.72,8.77H1291a8.74,8.74,0,0,0,8.72-8.77v-.89C1299.75,1092.46,1299.73,1092.27,1299.72,1092.08Z" transform="translate(-615.24 -576.94)" fill="#38a1ab" stroke="#000" stroke-linecap="round" stroke-linejoin="round" stroke-width="3.65"/><path d="M1213.69,991A26.93,26.93,0,1,1,1186.77,964,27,27,0,0,1,1213.69,991Z" transform="translate(-615.24 -576.94)" fill="#fff" stroke="#000" stroke-miterlimit="10" stroke-width="3.65"/><path d="M1187.63,974.71h-1.56a6.7,6.7,0,0,0-6.68,6.71V983a6.7,6.7,0,0,0,6.68,6.72h1.56a6.69,6.69,0,0,0,6.68-6.72v-1.56a6.69,6.69,0,0,0-6.68-6.71" transform="translate(-615.24 -576.94)" fill="#fff" stroke="#000" stroke-miterlimit="10" stroke-width="3.65"/><path d="M1199.64,999.28v0a13,13,0,0,0-6.32-11.14c-.2.23-.43.47-.66.71a22.2,22.2,0,0,0-5.89,10.27,23.4,23.4,0,0,0-5.9-10.27l-.66-.71a12.93,12.93,0,0,0-6.33,11.14s0,.12,0,.18a3,3,0,0,0,0,.31v.7a6.91,6.91,0,0,0,6.88,6.93h12a6.9,6.9,0,0,0,6.88-6.93v-.7C1199.66,999.58,1199.65,999.43,1199.64,999.28Z" transform="translate(-615.24 -576.94)" fill="#38a1ab" stroke="#000" stroke-linecap="round" stroke-linejoin="round" stroke-width="3.65"/><line x1="596.58" y1="438.26" x2="638.29" y2="479.46" fill="none" stroke="#000" stroke-linecap="round" stroke-linejoin="round" stroke-width="3.65"/><line x1="552.69" y1="510.54" x2="627.59" y2="506.89" fill="none" stroke="#000" stroke-linecap="round" stroke-linejoin="round" stroke-width="3.65"/><line x1="425.74" y1="417.73" x2="484.52" y2="474.75" fill="none" stroke="#000" stroke-linecap="round" stroke-linejoin="round" stroke-width="3.65"/><line x1="336.94" y1="530.98" x2="458.38" y2="516.99" fill="none" stroke="#000" stroke-linecap="round" stroke-linejoin="round" stroke-width="3.65"/><line x1="708.9" y1="504.26" x2="795.29" y2="502.43" fill="none" stroke="#000" stroke-linecap="round" stroke-linejoin="round" stroke-width="3.65"/><line x1="281.19" y1="540.71" x2="190.71" y2="562.1" fill="none" stroke="#000" stroke-linecap="round" stroke-linejoin="round" stroke-width="3.65"/><line x1="314.56" y1="369.1" x2="369.01" y2="384.83" fill="none" stroke="#000" stroke-linecap="round" stroke-linejoin="round" stroke-width="3.65"/><line x1="103.02" y1="586.09" x2="0.76" y2="633.34" fill="none" stroke="#000" stroke-miterlimit="10" stroke-width="3.65"/><path d="M1524.25,1079.21a52.59,52.59,0,1,0-52.59,52.59A52.58,52.58,0,0,0,1524.25,1079.21Z" transform="translate(-615.24 -576.94)" fill="#38a1ab"/><path d="M1466.26,1103.49c1.59-8.42,3.2-17,5.1-25.64l-47.95,22.25s9.54,24.6,37.78,30.47C1462.84,1121.5,1464.57,1112.46,1466.26,1103.49Z" transform="translate(-615.24 -576.94)" fill-opacity="0.2"/><path d="M1471.86,1026.63v51.62l-37.37,38.14a52.58,52.58,0,1,0,37.38-89.76Z" transform="translate(-615.24 -576.94)" fill="#fff" stroke="#000" stroke-linecap="round" stroke-linejoin="round" stroke-width="3.65"/><path d="M1387.6,1185.3a36.3,36.3,0,0,0-4.22.23,19.54,19.54,0,0,0-31.82-12.53,16.17,16.17,0,0,0-31.84,4c0,.42,0,.82,0,1.24-13.5,1.09-24,10.8-24,22.63,0,12.56,11.92,21.54,26.61,21.54h65.25c14.7,0,22.45-8.3,22.45-18.54S1402.3,1185.3,1387.6,1185.3Z" transform="translate(-615.24 -576.94)" fill="#fff" stroke="#000" stroke-linecap="round" stroke-linejoin="round" stroke-width="3.65"/><line x1="1705.97" y1="535.77" x2="1733.75" y2="535.77" fill="none" stroke="#000" stroke-linecap="round" stroke-linejoin="round" stroke-width="3.65"/><line x1="1719.86" y1="549.66" x2="1719.86" y2="521.88" fill="none" stroke="#000" stroke-linecap="round" stroke-linejoin="round" stroke-width="3.65"/><path d="M2550.08,891.85l-54.92-36-25.67-61.42a12.48,12.48,0,0,0-21.81,12.13l26.37,63.13a30.43,30.43,0,0,0,7.6,7l57.23,37.49a12.49,12.49,0,1,0,11.2-22.33Z" transform="translate(-615.24 -576.94)" fill="#fff" stroke="#000" stroke-linecap="round" stroke-linejoin="round" stroke-width="3.65"/><path d="M2546.28,888A19.38,19.38,0,0,0,2526.59,876l-69.8,8.87a17.34,17.34,0,1,0,4.37,34.41l57-7.24,25,69a17.34,17.34,0,1,0,32.6-11.83Z" transform="translate(-615.24 -576.94)" fill="#fff" stroke="#000" stroke-linecap="round" stroke-linejoin="round" stroke-width="3.65"/><path d="M2234.8,1108.32a78.75,78.75,0,0,0,7.28-25.17c3-27-10.07-81-54.6-91-12-2.72-28.21,3.21-38.74,9-11.88-13.63-30.13-19.63-46.89-10.75a36.67,36.67,0,0,0-16.64,18.3,30.17,30.17,0,0,0-50.79,30.38c-.6-.38-1.21-.76-1.85-1.1a26.5,26.5,0,0,0-34.51,38,38.94,38.94,0,1,0,1.19,73.89,38.93,38.93,0,0,0,66.59,18.38,30.15,30.15,0,0,0,55.69-6.13,36.48,36.48,0,0,0,59.95-22,69.47,69.47,0,0,0,7.87.61C2210.14,1141.1,2226,1126.57,2234.8,1108.32Z" transform="translate(-615.24 -576.94)" fill="#fff" stroke="#000" stroke-linecap="round" stroke-linejoin="round" stroke-width="3.65"/><path d="M2184.54,1130.43a24.32,24.32,0,0,0,21.25-24,47.18,47.18,0,0,0,5.24-.38c13.73-1.72,22.76-12.84,26.76-25.72a52.47,52.47,0,0,0,2.32-17.29c-.66-18-14.57-52.3-44.87-54.57-8.17-.61-18.26,4.88-24.63,9.69-9.16-7.8-21.76-10-31.93-2.47a24.3,24.3,0,0,0-9.15,13.68,20.08,20.08,0,0,0-30.47,25,14.27,14.27,0,0,0-1.33-.55,17.64,17.64,0,0,0-19,28.4" transform="translate(-615.24 -576.94)" fill-opacity="0.2"/><path d="M2288.59,992.87c-5.68.83-11.5,1.93-17.36,3.32-52.85,12.51-84.68,69.14-84.68,69.14s53.85,36.35,106.69,23.84c5.87-1.4,11.55-3,17-4.84Z" transform="translate(-615.24 -576.94)" fill="#fff" stroke="#000" stroke-linecap="round" stroke-linejoin="round" stroke-width="3.65" fill-rule="evenodd"/><path d="M2085.21,1036.48l4.27-2.58a3,3,0,0,0,1-4.11l-2.56-4.25a3.55,3.55,0,0,1-.34-2.57h0l-3.7,15.48h0A3,3,0,0,1,2085.21,1036.48Z" transform="translate(-615.24 -576.94)" fill="#fff" stroke="#000" stroke-linecap="round" stroke-linejoin="round" stroke-width="3.65"/><path d="M2106.13,1010.55,2089,1020.87a3.3,3.3,0,0,0-1.41,2.1,3.55,3.55,0,0,0,.34,2.57l2.56,4.25a3,3,0,0,1-1,4.11l-4.27,2.58a3,3,0,0,0-1.31,2,3,3,0,0,0,.28,2.16l13.91,23.06a3,3,0,0,0,4.1,1l26.84-16.2a3,3,0,0,0,1-4.1l-19.81-32.84A3,3,0,0,0,2106.13,1010.55Z" transform="translate(-615.24 -576.94)" fill="#fff" stroke="#000" stroke-linecap="round" stroke-linejoin="round" stroke-width="3.65"/><path d="M2090.68,1032.48a2.86,2.86,0,0,1-1.2,1.42l-4.27,2.58a3,3,0,0,0-1.31,2,3,3,0,0,0,.28,2.16l3.17,5.25Z" transform="translate(-615.24 -576.94)" fill-opacity="0.2"/><line x1="1479.92" y1="461.25" x2="1494.78" y2="452.31" fill="#fff" stroke="#000" stroke-linecap="round" stroke-linejoin="round" stroke-width="3.65"/><line x1="1484" y1="468.47" x2="1498.86" y2="459.53" fill="#fff" stroke="#000" stroke-linecap="round" stroke-linejoin="round" stroke-width="3.65"/><line x1="1488.08" y1="475.7" x2="1502.94" y2="466.76" fill="#fff" stroke="#000" stroke-linecap="round" stroke-linejoin="round" stroke-width="3.65"/><path d="M2293.61,1014.05c-3.06.45-6.17,1-9.34,1.78-28.38,6.71-45.46,37.12-45.46,37.12s28.92,19.52,57.29,12.8c3.16-.74,6.2-1.62,9.14-2.59Z" transform="translate(-615.24 -576.94)" fill="#fff" stroke="#000" stroke-linecap="round" stroke-linejoin="round" stroke-width="3.65" fill-rule="evenodd"/><path d="M2293.61,1014.05c-3.06.45-6.17,1-9.34,1.78-28.38,6.71-45.46,37.12-45.46,37.12s28.92,19.52,57.29,12.8c3.16-.74,6.2-1.62,9.14-2.59Z" transform="translate(-615.24 -576.94)" fill-opacity="0.2" fill-rule="evenodd"/><path d="M2356.93,1082.85l-30.92,30.6c-23.43,5.54-50.94-26-61.48-70.49s-.08-85,23.35-90.58l41.37,13.55" transform="translate(-615.24 -576.94)" fill="#fff" stroke="#000" stroke-linecap="round" stroke-linejoin="round" stroke-width="3.65"/><path d="M2357.59,1085.48l-12.6,7c-8.74,2.07-29.7-23.66-38.19-59.53s-1.3-68.31,7.43-70.37l15.46,5.31" transform="translate(-615.24 -576.94)" fill-opacity="0.2"/><path d="M2383.56,1099.42c43.33-9.2,223.83-53,229.24-54.27,45.16-10.7,188.51-81.68,177.83-126.85s-167.75-44.74-212.91-34c-5.87,1.39-187.89,43.24-232.08,55" transform="translate(-615.24 -576.94)" fill="#fff" stroke="#000" stroke-linecap="round" stroke-linejoin="round" stroke-width="3.65" fill-rule="evenodd"/><path d="M2553.88,1018.83A44.59,44.59,0,1,1,2587,965.16,44.6,44.6,0,0,1,2553.88,1018.83Z" transform="translate(-615.24 -576.94)" fill="#fff" stroke="#000" stroke-linecap="round" stroke-linejoin="round" stroke-width="3.65" fill-rule="evenodd"/><path d="M2551.67,1009.51a35,35,0,1,1,26-42.15A35,35,0,0,1,2551.67,1009.51Z" transform="translate(-615.24 -576.94)" fill="#38a1ab" fill-rule="evenodd"/><path d="M2717,953.91a18.13,18.13,0,1,1,13.47-21.82A18.13,18.13,0,0,1,2717,953.91Z" transform="translate(-615.24 -576.94)" fill="#38a1ab" fill-rule="evenodd"/><path d="M2387.9,1098.76c-23.41,5.54-50.91-26-61.44-70.46s-.09-85,23.33-90.54" transform="translate(-615.24 -576.94)" fill="#fff" stroke="#000" stroke-linecap="round" stroke-linejoin="round" stroke-width="3.65" fill-rule="evenodd"/><path d="M2512.11,1069.35c-23.42,5.55-50.93-26-61.45-70.45s-.08-85,23.33-90.54" transform="translate(-615.24 -576.94)" fill="none" stroke="#000" stroke-linecap="round" stroke-linejoin="round" stroke-width="3.65" fill-rule="evenodd"/><path d="M2688.32,1013.83c-19.66,4.65-42.77-21.84-51.62-59.18s-.06-71.4,19.61-76.06" transform="translate(-615.24 -576.94)" fill="#fff" stroke="#000" stroke-linecap="round" stroke-linejoin="round" stroke-width="3.65" fill-rule="evenodd"/><polygon points="1730.27 361.73 1716.91 305.32 1854.33 332.36 1730.27 361.73" fill="#fff" stroke="#000" stroke-linecap="round" stroke-linejoin="round" stroke-width="3.65" fill-rule="evenodd"/><polygon points="1768.43 522.92 1781.58 578.46 1891.06 493.89 1768.43 522.92" fill="#fff" stroke="#000" stroke-linecap="round" stroke-linejoin="round" stroke-width="3.65" fill-rule="evenodd"/><path d="M2469.4,1099.33l36.9-28.5-122.63,29L2388,1118C2415,1111.22,2442,1104.31,2469.4,1099.33Z" transform="translate(-615.24 -576.94)" fill-opacity="0.2" fill-rule="evenodd"/><line x1="2175.39" y1="341.36" x2="2224.81" y2="329.66" fill="#fff" stroke="#000" stroke-linecap="round" stroke-linejoin="round" stroke-width="3.65"/><path d="M2612.8,1045.15c44-10.41,181.07-78,178.33-123.26,0,0-70.64,44.67-144.06,76.06-48.65,20.81-253.52,74.26-269.26,78-26.17,6.27-45.47-25-34.1-5.41,19.75,33.93,39.85,28.86,39.85,28.86C2426.89,1090.22,2607.39,1046.42,2612.8,1045.15Z" transform="translate(-615.24 -576.94)" fill-opacity="0.2" fill-rule="evenodd"/><path d="M2012.2,1111.9a25.85,25.85,0,0,0,20.67,1.53,25.92,25.92,0,0,0,44.33,12.24" transform="translate(-615.24 -576.94)" fill="#fff" stroke="#000" stroke-linecap="round" stroke-linejoin="round" stroke-width="3.65"/><path d="M2177,1147.87a24.31,24.31,0,0,0,24.55-20.58,46.73,46.73,0,0,0,5.23.41c13.84.31,24.41-9.36,30.26-21.51a52.79,52.79,0,0,0,4.85-16.75c2-17.94-6.71-53.88-36.35-60.59-8-1.81-18.78,2.13-25.79,6-7.9-9.07-20-13.07-31.21-7.16a24.42,24.42,0,0,0-11.07,12.18,20.08,20.08,0,0,0-33.81,20.23c-.41-.26-.81-.51-1.24-.74a17.64,17.64,0,0,0-23,25.3" transform="translate(-615.24 -576.94)" fill="#fff" stroke="#000" stroke-linecap="round" stroke-linejoin="round" stroke-width="3.65"/><path d="M2156.62,1099.37a25.85,25.85,0,0,0,15.77-13.44,25.92,25.92,0,0,0,40.12-22.48" transform="translate(-615.24 -576.94)" fill="#fff" stroke="#000" stroke-linecap="round" stroke-linejoin="round" stroke-width="3.65"/><path d="M2411.05,893.07c1.71,19.61,2.5,6.1,17.73,3l21-3.94c5-.3,11.4-3.89,22.36-2.9-.1-4.44-1.77-43.12-.54-65.52,1.24-22.85-9.24-53.09-31.52-47.59-8.91,2.21-18.4,7.1-24.55,17.18C2399.09,820.24,2408.2,860.56,2411.05,893.07Z" transform="translate(-615.24 -576.94)" fill="#fff" stroke="#000" stroke-linecap="round" stroke-linejoin="round" stroke-width="3.65"/><path d="M2461.58,803.21c3.63,17.78-16.12,27.44-32.71,27.89-14.62.4-41.59,1.06-41.59,1.06s-12.53,11.56-19.4,18.75c8.12.82,26.61,4.83,26.61,4.83s28.16-7.74,39-10.38c16.55-4.07,30.08-6.79,34.89-25.07,1.73-6.6.46-12.16-1.9-18.48Z" transform="translate(-615.24 -576.94)" fill="#38a1ab"/><path d="M2538.1,1020.78c.27-4.69-6.71-4.41-9.71-5.11-1.7-.39-4.72-.48-6.15-1.47-6.82-4.7-2.6-19.2-3.14-26.06-.87-10.86-1.85-21.71-2.77-32.56-1-11.69-2-23.7-3-35.28-9.89-1.55-19.76-3.16-29.6-4.57-13.71-2-27.42-3.82-41.1-6.07-5.56-.91-11.18-1.7-16.81-2.52L2420,914.6l59.77,19.74c1.67,19.62,3.47,39.23,4.95,58.87.76,10-.45,25.32,5.76,34,5.6,7.78,17,6.21,25.24,4.85,1.34-.22,3.66-.62,6.32-1.25C2528.8,1029.17,2537.78,1026.1,2538.1,1020.78Z" transform="translate(-615.24 -576.94)" fill-opacity="0.2"/><path d="M2545.2,1008.53c-1.69-.39-3.59,3.68-5,2.7-2.14-1.47-2.11-3.41-3.28-5.38-1.28-2.19-3.86-3.35-5.12-5.7s-2.08-17.69-3.2-20a6.76,6.76,0,0,1-.15-1.41c-.51-.4-3.89.21-4.56.22a159.54,159.54,0,0,0-16.75,1.49c-1.17.15-4.59-.16-5.41,1-1,1.46.85,17.6,1.1,19.19.5,3.15.5,6.42.79,9.64.18,2.09,0,10.61,2.18,11.88,6.45,3.8,19.25,7,27.51,5.68,1.35-.22,3.67-.62,6.33-1.25,6.79-1.59,18.85-3.66,17.93-12.38C2556.88,1008,2548.21,1009.23,2545.2,1008.53Z" transform="translate(-615.24 -576.94)" fill="#fff" stroke="#000" stroke-linecap="round" stroke-linejoin="round" stroke-width="3.65"/><path d="M2546.23,1007.5c-1.69-.4-4.71-.49-6.14-1.47-2.88-2-3.35-5.63-6.74-7.47-3.13-1.7-6.47-.23-9.68,1.09-4.19,1.71-2.41,4.1-5.9,7.6-3.72,2.72-13.14-5.46-15.95-3.75-.18,1.81,1,7.38,1.15,9.32.07.91.54,3.88,1.5,4.44,6.45,3.81,20.79,7.93,29.06,6.57,1.34-.22,3.66-.62,6.32-1.24,6.8-1.6,15.78-4.67,16.1-10C2556.22,1007.92,2549.24,1008.2,2546.23,1007.5Z" transform="translate(-615.24 -576.94)" fill="#fff" stroke="#000" stroke-linecap="round" stroke-linejoin="round" stroke-width="3.65"/><path d="M2525.88,1011.07s1-3.67,5.94-5.69,6.91-.44,6.91-.44" transform="translate(-615.24 -576.94)" fill="none" stroke="#000" stroke-linecap="round" stroke-linejoin="round" stroke-width="3.65"/><path d="M2530.19,1012.53s1-3.67,5.94-5.69,6.91-.44,6.91-.44" transform="translate(-615.24 -576.94)" fill="none" stroke="#000" stroke-linecap="round" stroke-linejoin="round" stroke-width="3.65"/><path d="M2414.11,898.79c-1.38,10.14,5,17,15.19,18.39l64.36,8.47,6.5,75.23a69.5,69.5,0,0,0,36.94-2.45l-7.81-90.55A18.45,18.45,0,0,0,2517.06,892a19,19,0,0,0-4.36-1.16l-46.17-1.9Z" transform="translate(-615.24 -576.94)" fill="#fff" stroke="#000" stroke-linecap="round" stroke-linejoin="round" stroke-width="3.65"/><path d="M2446.67,781.82c-13.79,6.93-22.21-4-43.43-18.28-14.42-9.74,16.59-24.78,19-40-.82,5.19,29.85-19,37.12,16.64C2462.87,757.25,2460.44,774.89,2446.67,781.82Z" transform="translate(-615.24 -576.94)" fill="#fff" stroke="#000" stroke-linecap="round" stroke-linejoin="round" stroke-width="3.65"/><path d="M2435.22,746.55a2.77,2.77,0,0,1-1.44,3.65" transform="translate(-615.24 -576.94)" fill="#fff" stroke="#000" stroke-linecap="round" stroke-linejoin="round" stroke-width="3.65"/><path d="M2453.7,738.73a2.78,2.78,0,0,1-1.45,3.65" transform="translate(-615.24 -576.94)" fill="#fff" stroke="#000" stroke-linecap="round" stroke-linejoin="round" stroke-width="3.65"/><path d="M2441.89,762.61c1.35,4.49,7.92,12.5,15.57-6.82" transform="translate(-615.24 -576.94)" fill="none" stroke="#000" stroke-linecap="round" stroke-linejoin="round" stroke-width="3.65"/><path d="M2457.46,755.79c-4,3.94-11.73,6.81-15.57,6.82" transform="translate(-615.24 -576.94)" fill="none" stroke="#000" stroke-linecap="round" stroke-linejoin="round" stroke-width="3.65"/><polyline points="1828.9 165.88 1835.04 173.81 1831.99 175.88" fill="none" stroke="#000" stroke-linecap="round" stroke-linejoin="round" stroke-width="3.65"/><path d="M2388,766.56a41.4,41.4,0,0,1-2.49-18.86c.33-2.9-.05-6.57,1.08-9.25.37-.85,6.07-6.9,6.82-4.7-1.53-4.47-3-6.62,1.22-9.21,2.63-1.6,8.53-3.55,8.92-7.12.11-1-1.79-1.61-.8-3.09s8.6-1.51,10.18-1.73c2.13-.29,4.54-.4,6.54-1.28a10.6,10.6,0,0,1-3.35-1.51c2.91-3.13,10.6-.93,14.05.27-.17-3.53-3.62-5.24-5.19-8,5-1.72,13.85.65,18.57,2.55,6.09,2.46,10.16,7.8,9.85,14.49-.22,4.65-2.23,8.3-6.41,10.44-7.51,3.83-15.58-.29-23.4,3.17-6.51,2.87-7.72,8.26-5.38,14.67.3.83,4.8,7.58,8.67,10.64,0,0-.24,2.62-5.47-1.66a5.23,5.23,0,0,0-8.58,5.7c2.42,6.62,6,6,8.84,10.24-2.12-2.14.57,1.84-1.88,1-2-.69-3.4,3.25-3.51,4.69-4.74,1.91-8.14-2.49-12.06-1.12-2.79,1-1.26,3-3.89,1-1.69-1.29-1.88-7.25-2.8-9.21a9.58,9.58,0,0,1-2.78,2.43c-1-3.2-1.47-6.73-2.89-9.78C2390.62,763,2389.21,764.78,2388,766.56Z" transform="translate(-615.24 -576.94)" fill="#fff" stroke="#000" stroke-linecap="round" stroke-linejoin="round" stroke-width="3.65"/><line x1="1957.57" y1="185.72" x2="1833.67" y2="2.93" fill="none" stroke="#000" stroke-linecap="round" stroke-linejoin="round" stroke-width="3.65"/><line x1="1956.93" y1="186.78" x2="1833.02" y2="4" fill="none" stroke="#000" stroke-linecap="round" stroke-linejoin="round" stroke-width="3.65"/><path d="M2339.32,644.78c66.64,15.52,56.44-82.28,111.13-66q21.84,32.51,43.68,65c-67.13-27-69.82,82-137,55.09C2350.92,684.28,2344.41,661.59,2339.32,644.78Z" transform="translate(-615.24 -576.94)" fill="#38a1ab"/><path d="M2437.09,804.63l68.21-5.24a27.32,27.32,0,0,0,8.84-4.59l53.54-42.58A12.49,12.49,0,1,0,2550,734.57L2499.22,775l-66.81,5.15" transform="translate(-615.24 -576.94)" fill="#fff" stroke="#000" stroke-linecap="round" stroke-linejoin="round" stroke-width="3.65"/><path d="M2434.33,805.4l71.83-5.51a28.53,28.53,0,0,0,9.31-4.84l44-35q-1.34-2.07-2.88-4a82,82,0,0,0-15-15.12l-41.85,33.3-67.35,6a26.26,26.26,0,0,0-16.88,13.16" transform="translate(-615.24 -576.94)" fill="#fff" stroke="#000" stroke-linecap="round" stroke-linejoin="round" stroke-width="3.65"/></svg>