<svg xmlns="http://www.w3.org/2000/svg" viewBox="0 0 696.67 630"><path d="M466.67,700h-300c-31.07,0-46.6,0-58.85-5.07a66.73,66.73,0,0,1-36.08-36.08c-5.07-12.26-5.07-27.79-5.07-58.85s0-46.59,5.07-58.85a66.73,66.73,0,0,1,36.08-36.08C120.07,500,135.6,500,166.67,500H633.33c31.07,0,46.6,0,58.85,5.07a66.73,66.73,0,0,1,36.08,36.08c5.07,12.26,5.07,27.79,5.07,58.85s0,46.59-5.07,58.85a66.73,66.73,0,0,1-36.08,36.08C679.93,700,664.4,700,633.33,700H600" transform="translate(-51.67 -85)" fill="none" stroke="#38a1ab" stroke-linecap="round" stroke-miterlimit="133.33" stroke-width="30"/><path d="M66.67,400c0-31.06,0-46.59,5.07-58.85a66.73,66.73,0,0,1,36.08-36.08C120.07,300,135.6,300,166.67,300H633.33c31.07,0,46.6,0,58.85,5.07a66.73,66.73,0,0,1,36.08,36.08c5.07,12.26,5.07,27.79,5.07,58.85s0,46.59-5.07,58.85a66.73,66.73,0,0,1-36.08,36.08C679.93,500,664.4,500,633.33,500H166.67c-31.07,0-46.6,0-58.85-5.07a66.73,66.73,0,0,1-36.08-36.08C66.67,446.59,66.67,431.06,66.67,400Z" transform="translate(-51.67 -85)" fill="none" stroke="#38a1ab" stroke-miterlimit="133.33" stroke-width="30"/><path d="M333.33,100h300c31.07,0,46.6,0,58.85,5.07a66.73,66.73,0,0,1,36.08,36.08c5.07,12.26,5.07,27.79,5.07,58.85s0,46.59-5.07,58.85a66.73,66.73,0,0,1-36.08,36.08C679.93,300,664.4,300,633.33,300H166.67c-31.07,0-46.6,0-58.85-5.07a66.73,66.73,0,0,1-36.08-36.08c-5.07-12.26-5.07-27.79-5.07-58.85s0-46.59,5.07-58.85a66.73,66.73,0,0,1,36.08-36.08C120.07,100,135.6,100,166.67,100H200" transform="translate(-51.67 -85)" fill="none" stroke="#38a1ab" stroke-linecap="round" stroke-miterlimit="133.33" stroke-width="30"/><circle cx="115" cy="315" r="33.33" fill="#38a1ab"/><circle cx="115" cy="115" r="33.33" fill="#38a1ab"/><circle cx="115" cy="515" r="33.33" fill="#38a1ab"/></svg>