<svg xmlns="http://www.w3.org/2000/svg" viewBox="0 0 706.67 706.67"><path d="M589.83,133.38a126.16,126.16,0,0,0,76.79,76.79c2.7.94,5.4,1.76,8.07,2.47l10.56-10.55a61.76,61.76,0,0,0-87.34-87.33l-10.55,10.55C588.07,128,588.9,130.69,589.83,133.38Z" transform="translate(-46.67 -46.67)" fill="none"/><path d="M339.86,382.79c-3.13,6.58-5.69,14.15-11.7,32.18l-13.42,40.26,30,30L385,471.84c18-6,25.6-8.57,32.18-11.7a123.81,123.81,0,0,0,22.72-14c5.73-4.48,11.42-10.11,24.86-23.55L628.2,259.14a187,187,0,0,1-87.34-87.34L377.45,335.21c-13.44,13.45-19.08,19.13-23.55,24.86A123.48,123.48,0,0,0,339.86,382.79Z" transform="translate(-46.67 -46.67)" fill="none"/><path d="M733.33,330a20,20,0,0,0-20,20v50c0,79.05,0,136.16-5.92,180.21-5.78,43-16.86,70-37,90.17s-47.15,31.25-90.17,37C536.15,713.33,479,713.33,400,713.33s-136.15,0-180.21-5.92c-43-5.78-70-16.86-90.17-37s-31.25-47.15-37-90.17C86.67,536.15,86.67,479,86.67,400s0-136.15,5.92-180.21c5.78-43,16.86-70,37-90.17s47.14-31.25,90.17-37c44-5.92,101.16-5.92,180.21-5.92h50a20,20,0,0,0,0-40H396.05c-75.54,0-135.29,0-181.59,6.28-51.72,6.95-86.6,21.87-113.12,48.39S59.9,162.74,53,214.46c-6.28,46.71-6.28,107.12-6.28,183.61v3.84c0,76.51,0,136.92,6.28,183.63,6.95,51.72,21.88,86.61,48.39,113.12s61.4,41.44,113.12,48.39c46.71,6.28,107.13,6.28,183.63,6.28h3.82c76.5,0,136.92,0,183.63-6.28,51.72-6.95,86.61-21.88,113.12-48.39s41.44-61.4,48.39-113.12c6.28-46.71,6.28-107.13,6.28-183.63V350A20,20,0,0,0,733.33,330Z" transform="translate(-46.67 -46.67)" fill="#38a1ab"/><path d="M294.73,361.28c-4.59,9.62-7.94,19.67-13.49,36.31L249,494.44a44.75,44.75,0,0,0,56.6,56.6l96.82-32.28c16.69-5.56,26.73-8.9,36.34-13.49a173.15,173.15,0,0,0,32-19.75c8.4-6.55,15.88-14,28.29-26.44L720.6,237.45a111.76,111.76,0,1,0-158.05-158L341,301c-12.42,12.42-19.92,19.92-26.47,28.32A173.15,173.15,0,0,0,294.73,361.28Zm296.11-253.6A71.76,71.76,0,0,1,692.32,209.16l-14.53,14.53-2.71-.64a122.18,122.18,0,0,1-11.74-3.43,136.08,136.08,0,0,1-83-83A121.08,121.08,0,0,1,577,124.93l-.65-2.72Zm-260,270.81A132.73,132.73,0,0,1,346,353.92c4.83-6.2,10.61-12,24.36-25.78L544.11,154.41l2.91,6.78A176.69,176.69,0,0,0,638.81,253l6.78,2.91L471.86,429.62c-13.75,13.75-19.58,19.52-25.78,24.36a132.73,132.73,0,0,1-24.57,15.18c-7.11,3.39-14.88,6-33.32,12.17L342.07,496.7,303.3,457.93l15.37-46.12C324.82,393.37,327.45,385.6,330.84,378.49Z" transform="translate(-46.67 -46.67)" fill="#38a1ab"/></svg>