<svg xmlns="http://www.w3.org/2000/svg" viewBox="0 0 574.29 721.05"><path d="M527.23,193.75H273.44c-12.39,0-21.1,8.7-21.1,20.09,0,11.72,8.71,21.09,21.1,21.09H527.23A20.72,20.72,0,0,0,548,213.84C548,202.45,539,193.75,527.23,193.75Z" transform="translate(-112.85 -39.48)" fill="#38a1ab"/><path d="M393.64,427.45H273.44c-12.39,0-21.1,9.05-21.1,20.76,0,11.39,8.71,20.43,21.1,20.43h120.2a20.6,20.6,0,1,0,0-41.19Z" transform="translate(-112.85 -39.48)" fill="#38a1ab"/><path d="M527.23,310.6H273.44c-12.39,0-21.1,8.71-21.1,20.09,0,11.72,8.71,21.1,21.1,21.1H527.23A20.73,20.73,0,0,0,548,330.69C548,319.31,539,310.6,527.23,310.6Z" transform="translate(-112.85 -39.48)" fill="#38a1ab"/><rect x="20" y="20" width="534.29" height="681.05" rx="93.49" fill="none" stroke="#38a1ab" stroke-miterlimit="10" stroke-width="40"/></svg>