<svg xmlns="http://www.w3.org/2000/svg" width="535" height="660" viewBox="0 0 535 660"><path d="M457.88,102.77C452.46,89.16,436,57.5,400,57.5s-52.46,31.66-57.87,45.27l-1.89,4.73H132.5v610h535v-610H459.76ZM542.5,142.5h90v540h-465v-540h90v100h285Zm-35,65h-215v-65h75V125a32.5,32.5,0,0,1,65,0v17.5h75Z" transform="translate(-132.5 -57.5)" fill="#38a1ab"/><polygon points="242.5 492.28 255.22 480.11 424.86 310.47 399.53 285.14 242.5 442.17 160.47 360.14 135.14 385.47 229.78 480.11 242.5 492.28" fill="#38a1ab"/></svg>