<svg xmlns="http://www.w3.org/2000/svg" xmlns:xlink="http://www.w3.org/1999/xlink" width="800" height="800" viewBox="0 0 800 800"><path d="M764.34,322.74c-15.05-2.25-30.49-4.41-45.91-6.42a4.54,4.54,0,0,1-3.85-3.22,325.19,325.19,0,0,0-30.68-74.05,4.56,4.56,0,0,1,.42-5c9.48-12.32,18.88-24.77,27.93-37a42.18,42.18,0,0,0-4.12-54.56L657.56,91.87A42.16,42.16,0,0,0,603,87.75c-12.22,9-24.67,18.43-37,27.93a4.57,4.57,0,0,1-5,.43A324.77,324.77,0,0,0,486.9,85.42a4.55,4.55,0,0,1-3.23-3.86c-2-15.43-4.17-30.88-6.42-45.9A42.17,42.17,0,0,0,435.76,0H364.24a42.16,42.16,0,0,0-41.49,35.66c-2.25,15-4.41,30.47-6.42,45.91a4.53,4.53,0,0,1-3.23,3.85,324.58,324.58,0,0,0-74.05,30.69,4.59,4.59,0,0,1-5-.43c-12.35-9.5-24.8-18.9-37-27.93a42.18,42.18,0,0,0-54.56,4.12L91.87,142.44A42.17,42.17,0,0,0,87.75,197c9.07,12.26,18.46,24.71,27.93,37a4.57,4.57,0,0,1,.43,5A324.77,324.77,0,0,0,85.42,313.1a4.52,4.52,0,0,1-3.85,3.22c-15.41,2-30.85,4.17-45.9,6.43A42.17,42.17,0,0,0,0,364.24v71.52a42.17,42.17,0,0,0,35.66,41.49c15.06,2.26,30.5,4.42,45.91,6.43a4.52,4.52,0,0,1,3.85,3.22A325.19,325.19,0,0,0,116.1,561a4.56,4.56,0,0,1-.42,5c-9.49,12.33-18.89,24.78-27.93,37a42.16,42.16,0,0,0,4.12,54.56l50.57,50.57A42.16,42.16,0,0,0,197,712.25c12.21-9,24.67-18.43,37-27.93a4.56,4.56,0,0,1,5-.42,324.81,324.81,0,0,0,74.05,30.68,4.52,4.52,0,0,1,3.22,3.85c2,15.44,4.18,30.89,6.43,45.9A42.16,42.16,0,0,0,364.24,800h71.52a42.17,42.17,0,0,0,41.49-35.67c2.25-15,4.41-30.48,6.42-45.9a4.56,4.56,0,0,1,3.23-3.86,324.92,324.92,0,0,0,74-30.68,4.56,4.56,0,0,1,5,.43c12.35,9.5,24.8,18.89,37,27.93a42.18,42.18,0,0,0,54.56-4.13l50.57-50.57A42.18,42.18,0,0,0,712.25,603c-9-12.23-18.45-24.69-27.93-37a4.56,4.56,0,0,1-.43-5,324.4,324.4,0,0,0,30.68-74,4.56,4.56,0,0,1,3.86-3.23c15.41-2,30.86-4.17,45.91-6.42A42.17,42.17,0,0,0,800,435.76V364.23a42.17,42.17,0,0,0-35.66-41.49m-1.7,113a4.58,4.58,0,0,1-3.83,4.55c-14.81,2.22-30,4.34-45.21,6.33a41.81,41.81,0,0,0-35,30.34,287.52,287.52,0,0,1-27.14,65.52,41.83,41.83,0,0,0,3.3,46.27c9.33,12.14,18.59,24.4,27.5,36.45a4.58,4.58,0,0,1-.5,5.93l-50.58,50.57a4.58,4.58,0,0,1-5.92.51c-12-8.9-24.3-18.16-36.46-27.51a41.81,41.81,0,0,0-46.26-3.3A288,288,0,0,1,477,678.57a41.83,41.83,0,0,0-30.35,35c-2,15.19-4.11,30.4-6.32,45.2a4.59,4.59,0,0,1-4.55,3.84H364.24a4.59,4.59,0,0,1-4.55-3.84c-2.21-14.79-4.34-30-6.32-45.2a41.82,41.82,0,0,0-30.35-35,287.55,287.55,0,0,1-65.52-27.15,41.8,41.8,0,0,0-46.26,3.3c-12.16,9.36-24.43,18.61-36.46,27.51a4.57,4.57,0,0,1-5.92-.51l-50.57-50.57a4.57,4.57,0,0,1-.51-5.93c8.91-12,18.16-24.3,27.51-36.45a41.85,41.85,0,0,0,3.3-46.26A287.48,287.48,0,0,1,121.44,477a41.81,41.81,0,0,0-35-30.35c-15.18-2-30.39-4.11-45.21-6.32a4.59,4.59,0,0,1-3.83-4.55V364.25a4.58,4.58,0,0,1,3.83-4.55c14.82-2.22,30-4.35,45.21-6.33a41.81,41.81,0,0,0,35-30.34,286.84,286.84,0,0,1,27.15-65.52,41.86,41.86,0,0,0-3.3-46.27c-9.32-12.12-18.58-24.38-27.51-36.45a4.59,4.59,0,0,1,.51-5.93l50.57-50.57a4.58,4.58,0,0,1,5.92-.51c12,8.9,24.29,18.15,36.45,27.51a41.84,41.84,0,0,0,46.27,3.3A287.55,287.55,0,0,1,323,121.44a41.82,41.82,0,0,0,30.35-35c2-15.21,4.11-30.42,6.32-45.21a4.6,4.6,0,0,1,4.55-3.83h71.52a4.59,4.59,0,0,1,4.55,3.83c2.21,14.79,4.34,30,6.33,45.21a41.81,41.81,0,0,0,30.34,35,287.55,287.55,0,0,1,65.52,27.15,41.84,41.84,0,0,0,46.27-3.3c12.16-9.36,24.42-18.61,36.45-27.51a4.57,4.57,0,0,1,5.92.51l50.58,50.57a4.58,4.58,0,0,1,.5,5.93c-8.91,12.05-18.17,24.31-27.5,36.45a41.83,41.83,0,0,0-3.3,46.27A287.55,287.55,0,0,1,678.57,323a41.8,41.8,0,0,0,35,30.34c15.18,2,30.39,4.11,45.21,6.32a4.6,4.6,0,0,1,3.83,4.55v71.52Z" fill="#38a1ab"/><path d="M400,226.35c-95.75,0-173.65,77.9-173.65,173.65S304.25,573.65,400,573.65,573.65,495.75,573.65,400,495.75,226.35,400,226.35m0,309.94c-75.15,0-136.29-61.14-136.29-136.29S324.85,263.71,400,263.71,536.29,324.85,536.29,400,475.15,536.29,400,536.29" fill="#38a1ab"/></svg>