<svg xmlns="http://www.w3.org/2000/svg" width="750" height="750" viewBox="0 0 750 750"><path d="M466.88,183.83C450.09,166.58,428.6,152.3,403,141.4S351.41,125,325.6,125a195.94,195.94,0,0,0-100.18,27A202.48,202.48,0,0,0,152,225.42,195.94,195.94,0,0,0,125,325.6c0,36.38,9.08,70.36,27,101a196.34,196.34,0,0,0,73.19,72.49,206.8,206.8,0,0,0,100.6,27.13,197.79,197.79,0,0,0,77.29-15.62A195.73,195.73,0,0,0,509.78,403.86a210.26,210.26,0,0,0,16.42-78.69,175.16,175.16,0,0,0-16.1-77.09C498.55,223.05,484,201.44,466.88,183.83Z" transform="translate(-25 -25)" fill="none"/><path d="M569.89,499.71l10.46-16.88c30.42-49.07,45.85-102,45.85-157.23a303.06,303.06,0,0,0-23.69-116.81c-15.66-37.69-37.14-69.85-63.86-95.59C511.58,87.12,479,65.61,441.93,49.28A287,287,0,0,0,325.75,25,305.84,305.84,0,0,0,209,49.39c-36.93,15.76-69.33,37.18-96.3,63.65-26.82,26.33-48.37,58.59-64.07,95.86A299.15,299.15,0,0,0,25,325.6c0,41.69,7.92,81.15,23.55,117.28a305.74,305.74,0,0,0,64.33,95.44c26.93,26.93,59.27,48.56,96.13,64.29A295.49,295.49,0,0,0,325.6,626.2c55.33,0,108.28-15.19,157.38-45.14l16.79-10.25L690,761.06c9.16,9.51,20.21,13.94,34.79,13.94,14.77,0,26.18-4.54,35.92-14.28S775,739.82,775,725.6s-4.59-25.79-14.43-36.08Zm-67.41,3.57a250,250,0,0,1-79.94,53.34A247.42,247.42,0,0,1,325.6,576.2h-.33a256.35,256.35,0,0,1-124.84-33.67,245.81,245.81,0,0,1-91.61-90.71C86.38,413.43,75,371,75,325.6a245.31,245.31,0,0,1,33.82-125.42,251.68,251.68,0,0,1,91.36-91.36A245.28,245.28,0,0,1,325.6,75h0c32.58,0,65.21,6.86,97,20.4s58.68,31.54,80.12,53.57c21.09,21.67,38.85,48,52.78,78.15A225,225,0,0,1,576.2,326a260,260,0,0,1-20.38,97.31A250,250,0,0,1,502.48,503.28Z" transform="translate(-25 -25)" fill="#38a1ab"/></svg>