<svg xmlns="http://www.w3.org/2000/svg" xmlns:xlink="http://www.w3.org/1999/xlink" viewBox="0 0 800 612.24"><defs><clipPath id="a" transform="translate(0 0)"><rect width="800" height="612.24" fill="none"/></clipPath></defs><g clip-path="url(#a)"><path d="M740.64,0H59.36A59.43,59.43,0,0,0,0,59.36V461.08a59.43,59.43,0,0,0,59.36,59.36H321.17L301.4,584.15H280.67a14,14,0,0,0,0,28.09H531.86a14,14,0,0,0,0-28.09H511.13l-19.77-63.71H740.64A59.43,59.43,0,0,0,800,461.08V59.36A59.43,59.43,0,0,0,740.64,0M330.81,584.15l19.77-63.71H462l19.77,63.71ZM771.92,461.08a31.33,31.33,0,0,1-31.28,31.28H59.36a31.33,31.33,0,0,1-31.28-31.28V440.7H771.92Zm0-48.47H28.08V59.36A31.33,31.33,0,0,1,59.36,28.08H740.64a31.33,31.33,0,0,1,31.28,31.28Z" transform="translate(0 0)"/><path d="M348,275.42a47.11,47.11,0,1,0,47.1,47.1,47.16,47.16,0,0,0-47.1-47.1m0,66.12a19,19,0,1,1,19-19,19,19,0,0,1-19,19" transform="translate(0 0)"/><path d="M469.28,275.42a47.11,47.11,0,1,0,47.1,47.1,47.15,47.15,0,0,0-47.1-47.1m0,66.12a19,19,0,1,1,19-19,19,19,0,0,1-19,19" transform="translate(0 0)"/><path d="M539.36,119.2a14,14,0,0,0-10.57-4.8H309.31l-4.46-26.91A14,14,0,0,0,291,75.74H235.64a14,14,0,0,0,0,28.09h43.45l4.43,26.7,17.65,129.8a14,14,0,0,0,13.91,12.15h196A14,14,0,0,0,525,260.33l17.68-130a14.06,14.06,0,0,0-3.34-11.13M498.85,244.39H327.34L313.49,142.48H512.7Z" transform="translate(0 0)"/></g></svg>