<svg xmlns="http://www.w3.org/2000/svg" xmlns:xlink="http://www.w3.org/1999/xlink" width="623.49" height="649.99" viewBox="0 0 623.49 649.99"><defs><clipPath id="a" transform="translate(0 0)"><rect width="623.49" height="649.99" fill="none"/></clipPath></defs><g clip-path="url(#a)"><path d="M528,10C509.62-.35,490-1.39,469.29,1.2c-19.68,2.46-43.62,8.68-72.4,16.16L329.61,34.85c-28.76,7.47-52.71,13.7-71,21.11-19.26,7.8-35.92,18.29-46.73,36.44s-12,37.8-9.24,58.19c2.55,19.23,9,42.57,16.68,70.38l18.09,65.46c7.68,27.82,14.13,51.15,21.83,69,8.17,19,19.08,35.15,37.6,45.52s38,11.35,58.74,8.76c19.68-2.46,43.63-8.68,72.4-16.16l67.28-17.48c28.76-7.48,52.71-13.7,71-21.12,19.26-7.8,35.92-18.28,46.73-36.44s12-37.79,9.24-58.19c-2.55-19.23-9-42.57-16.68-70.37l-18.09-65.47c-7.68-27.82-14.13-51.15-21.82-69C557.46,36.49,546.55,20.33,528,10M407.83,66.18c30.83-8,51.61-13.36,67.66-15.37,15.39-1.92,22.76-.22,28.11,2.78s10.25,8,16.11,21.66c6.17,14.34,11.75,34.31,20,64.27l17.15,62.07c8.28,30,13.74,49.95,15.79,65.35,1.94,14.62.2,21.25-2.64,26s-8.21,9.86-22.54,15.66c-14.92,6.05-35.66,11.49-66.5,19.5l-64,16.63c-30.83,8-51.61,13.36-67.66,15.37-15.39,1.92-22.75.23-28.11-2.77S311,349.3,305.12,335.7c-6.17-14.35-11.75-34.32-20-64.27L268,209.36c-8.28-30-13.74-50-15.79-65.35-1.94-14.63-.2-21.25,2.65-26s8.2-9.86,22.53-15.66c14.92-6,35.66-11.48,66.5-19.5Z" transform="translate(0 0)" fill="#16646b" fill-rule="evenodd"/><path d="M31.69,82.49a25,25,0,0,0-13.37,48.18l56.79,15.76a40.23,40.23,0,0,1,28.36,27.71l65.05,235.44q-3.75.74-7.49,1.71c-65.9,17.13-106.18,83.42-88.09,148.9C91,625.36,159.4,663,225.05,645.89c57.44-14.93,95.41-67.22,92.23-123.76L598,449.19a25,25,0,1,0-12.58-48.4l-281.27,73.1c-16.94-32.91-48.06-55.8-83.55-63.68L151.67,160.83c-8.44-30.54-32.63-54.1-63.19-62.58ZM173.6,459.68c40.39-10.5,80.92,12.95,91.33,50.62,10.32,37.35-12.33,76.77-52.46,87.19-40.39,10.5-80.92-12.94-91.33-50.61-10.32-37.36,12.33-76.77,52.46-87.2" transform="translate(0 0)" fill="#16646b" fill-rule="evenodd"/></g></svg>