<svg xmlns="http://www.w3.org/2000/svg" xmlns:xlink="http://www.w3.org/1999/xlink" width="646.3" height="800" viewBox="0 0 646.3 800"><defs><clipPath id="a" transform="translate(0 0)"><rect width="646.3" height="800" fill="none"/></clipPath></defs><g clip-path="url(#a)"><path d="M323.15,0C145,0,0,145,0,323.15c0,218.33,188.24,368.92,300.72,458.9l22.43,18,22.43-18c112.47-90,300.72-240.57,300.72-458.9C646.3,145,501.33,0,323.15,0m0,707.89C192.82,601.78,71.81,483.6,71.81,323.15c0-138.59,112.75-251.34,251.34-251.34S574.49,184.56,574.49,323.15c0,160.45-121,278.63-251.34,384.74" transform="translate(0 0)" fill="#17646b"/><path d="M323.15,251.34A71.81,71.81,0,1,0,395,323.15a71.89,71.89,0,0,0-71.81-71.81" transform="translate(0 0)" fill="#17646b"/></g></svg>