<svg xmlns="http://www.w3.org/2000/svg" xmlns:xlink="http://www.w3.org/1999/xlink" viewBox="0 0 666.67 666.67"><defs><clipPath id="a" transform="translate(0 0)"><rect width="666.67" height="666.67" fill="none"/></clipPath></defs><g clip-path="url(#a)"><g style="isolation:isolate"><g clip-path="url(#a)"><path d="M666.67,333.33c0,184.1-149.24,333.34-333.34,333.34S0,517.43,0,333.33,149.24,0,333.33,0,666.67,149.24,666.67,333.33" transform="translate(0 0)" fill="#16646b"/></g></g><path d="M467.68,232.32a25,25,0,0,1,0,35.36L301,434.34a25,25,0,0,1-35.35,0L199,367.68a25,25,0,0,1,35.35-35.36l49,49,74.5-74.49,74.49-74.5a25,25,0,0,1,35.36,0" transform="translate(0 0)" fill="#fff"/></g></svg>