<svg xmlns="http://www.w3.org/2000/svg" viewBox="0 0 533.33 533.33"><circle cx="266.67" cy="266.67" r="266.67" fill="#29a9ea"/><path d="M444.32,397.69l179.57-74c17.73-7.71,77.84-32.37,77.84-32.37s27.75-10.79,25.44,15.41c-.77,10.79-6.94,48.56-13.11,89.41l-19.26,121s-1.54,17.72-14.65,20.81-34.68-10.79-38.53-13.88c-3.09-2.31-57.81-37-77.84-54-5.4-4.62-11.56-13.87.77-24.66,27.74-25.43,60.88-57,80.92-77.07,9.25-9.25,18.5-30.83-20-4.62L516.76,437s-12.33,7.71-35.45.77-50.1-16.18-50.1-16.18S412.72,410,444.32,397.69Z" transform="translate(-333.33 -133.33)" fill="#fff"/></svg>