<svg xmlns="http://www.w3.org/2000/svg" xmlns:xlink="http://www.w3.org/1999/xlink" viewBox="0 0 666.67 666.67"><path d="M33.33,241V425.72a66.68,66.68,0,0,0,19.53,47.14l141,140.95A66.67,66.67,0,0,0,241,633.33H425.72a66.67,66.67,0,0,0,47.14-19.52L613.81,472.86a66.67,66.67,0,0,0,19.52-47.14V241a66.67,66.67,0,0,0-19.52-47.14L472.86,52.86a66.68,66.68,0,0,0-47.14-19.53H241a66.68,66.68,0,0,0-47.14,19.53l-140.95,141A66.68,66.68,0,0,0,33.33,241Z" transform="translate(0 0)" fill="none" stroke="#ab3838" stroke-linecap="round" stroke-linejoin="round" stroke-width="66.67"/><line x1="333.33" y1="200" x2="333.33" y2="366.67" fill="none" stroke="#ab3838" stroke-linecap="round" stroke-miterlimit="133.33" stroke-width="66.67"/><line x1="333.33" y1="466.67" x2="333.33" y2="466.29" fill="none" stroke="#ab3838" stroke-linecap="round" stroke-miterlimit="133.33" stroke-width="66.67"/></svg>