<svg xmlns="http://www.w3.org/2000/svg" xmlns:xlink="http://www.w3.org/1999/xlink" viewBox="0 0 673.65 172.07"><defs><clipPath id="a" transform="translate(0 0.05)"><path d="M152.15,37.23a133.14,133.14,0,0,0,1-17.79V14.69H170.3V50.12h-21a68.5,68.5,0,0,0,2.88-12.89m-7.34-30V18q0,4.18-.18,8.68T144,35.57a74.36,74.36,0,0,1-1.29,8.14,27.11,27.11,0,0,1-2.2,6.41h-5.4V67H143V57.6h33.84V67h7.92V50.12h-5.83V7.2Z" fill="none"/></clipPath><linearGradient id="b" y1="173.07" x2="1" y2="173.07" gradientTransform="matrix(-495.98, 0, 0, 495.98, 676.45, -85800.35)" gradientUnits="userSpaceOnUse"><stop offset="0" stop-color="#155b61"/><stop offset="1" stop-color="#42acb7"/></linearGradient><clipPath id="c" transform="translate(0 0.05)"><polygon points="193.41 7.2 193.41 57.6 227.25 57.6 227.25 50.12 202.05 50.12 202.05 35.43 225.09 35.43 225.09 27.94 202.05 27.94 202.05 14.69 227.25 14.69 227.25 7.2 193.41 7.2" fill="none"/></clipPath><linearGradient id="d" y1="173.07" x2="1" y2="173.07" gradientTransform="matrix(-495.98, 0, 0, 495.98, 676.45, -85805.03)" xlink:href="#b"/><clipPath id="e" transform="translate(0 0.05)"><path d="M241.29,7.2v13q0,7.86-.22,13.22a73.91,73.91,0,0,1-.75,8.67,19.41,19.41,0,0,1-1.37,5,4.77,4.77,0,0,1-2,2.34,6.18,6.18,0,0,1-2.81.61A4.55,4.55,0,0,1,233,50v8.21a6,6,0,0,0,1.26.18c.46,0,.88,0,1.26,0a14.83,14.83,0,0,0,5.08-.83,8.72,8.72,0,0,0,4-3.06,18.73,18.73,0,0,0,2.8-6.37,63.47,63.47,0,0,0,1.7-10.62q.57-6.48.57-15.92V14.69h18.29V57.6h8.64V7.2Z" fill="none"/></clipPath><linearGradient id="f" y1="173.07" x2="1" y2="173.07" gradientTransform="matrix(-495.98, 0, 0, 495.98, 676.45, -85804.64)" xlink:href="#b"/><clipPath id="g" transform="translate(0 0.05)"><path d="M298.17,33.7h9q6.84,0,9.36,2.09a7.49,7.49,0,0,1,2.52,6.12A7.49,7.49,0,0,1,316.53,48q-2.52,2.09-9.36,2.09h-9ZM289.53,7.2V57.6h18.36q10.16,0,15-4.28a14.49,14.49,0,0,0,4.83-11.41,14.49,14.49,0,0,0-4.83-11.41q-4.82-4.29-15-4.29h-9.72V7.2Z" fill="none"/></clipPath><clipPath id="i" transform="translate(0 0.05)"><polygon points="326.97 7.2 326.97 14.69 343.89 14.69 343.89 57.6 352.53 57.6 352.53 14.69 369.45 14.69 369.45 7.2 326.97 7.2" fill="none"/></clipPath><clipPath id="k" transform="translate(0 0.05)"><path d="M390.11,18l7.35,20.74H382.63ZM386,7.2,366.93,57.6h8.64l4.25-11.37h20.44l4.25,11.37h9.22L394.65,7.2Z" fill="none"/></clipPath><clipPath id="m" transform="translate(0 0.05)"><polygon points="173.54 79.2 148.77 115.92 148.77 79.2 140.13 79.2 140.13 129.6 148.48 129.6 173.25 92.88 173.25 129.6 181.89 129.6 181.89 79.2 173.54 79.2" fill="none"/></clipPath><linearGradient id="n" y1="173.07" x2="1" y2="173.07" gradientTransform="matrix(-495.98, 0, 0, 495.98, 676.45, -85733.03)" xlink:href="#b"/><clipPath id="o" transform="translate(0 0.05)"><polygon points="227.97 79.2 227.97 99.94 203.49 99.94 203.49 79.2 194.85 79.2 194.85 129.6 203.49 129.6 203.49 107.43 227.97 107.43 227.97 129.6 236.61 129.6 236.61 79.2 227.97 79.2" fill="none"/></clipPath><clipPath id="q" transform="translate(0 0.05)"><polygon points="302.06 79.2 287.01 100.3 282.69 100.3 282.69 79.2 274.05 79.2 274.05 100.3 269.73 100.3 254.97 79.2 245.61 79.2 262.89 103.4 244.89 129.6 254.54 129.6 269.73 107.07 274.05 107.07 274.05 129.6 282.69 129.6 282.69 107.07 287.01 107.07 302.06 129.6 311.85 129.6 293.85 103.11 311.13 79.2 302.06 79.2" fill="none"/></clipPath><clipPath id="s" transform="translate(0 0.05)"><polygon points="353.54 79.2 328.77 115.92 328.77 79.2 320.13 79.2 320.13 129.6 328.48 129.6 353.25 92.88 353.25 129.6 361.89 129.6 361.89 79.2 353.54 79.2" fill="none"/></clipPath><clipPath id="u" transform="translate(0 0.05)"><polygon points="407.97 79.2 407.97 99.94 383.49 99.94 383.49 79.2 374.85 79.2 374.85 129.6 383.49 129.6 383.49 107.43 407.97 107.43 407.97 129.6 416.61 129.6 416.61 79.2 407.97 79.2" fill="none"/></clipPath><clipPath id="w" transform="translate(0 0.05)"><polygon points="462.98 79.2 438.21 115.92 438.21 79.2 429.57 79.2 429.57 129.6 437.92 129.6 462.69 92.88 462.69 129.6 471.33 129.6 471.33 79.2 462.98 79.2" fill="none"/></clipPath><clipPath id="y" transform="translate(0 0.05)"><path d="M492.93,86.69h9q6.84,0,9.36,2.16t2.52,6.41q0,4.32-2.52,6.44t-9.36,2.13h-9Zm-8.64-7.49v50.4h8.64V111.32h9.72a27.27,27.27,0,0,0,11.16-2,13.86,13.86,0,0,0,6.51-5.58,18,18,0,0,0,0-17,13.92,13.92,0,0,0-6.51-5.58,27.27,27.27,0,0,0-11.16-2Z" fill="none"/></clipPath><clipPath id="aa" transform="translate(0 0.05)"><polygon points="565.22 79.2 540.45 115.92 540.45 79.2 531.81 79.2 531.81 129.6 540.16 129.6 564.93 92.88 564.93 129.6 573.57 129.6 573.57 79.2 565.22 79.2" fill="none"/></clipPath><clipPath id="ac" transform="translate(0 0.05)"><polygon points="619.65 79.2 619.65 99.94 595.17 99.94 595.17 79.2 586.53 79.2 586.53 129.6 595.17 129.6 595.17 107.43 619.65 107.43 619.65 129.6 628.29 129.6 628.29 79.2 619.65 79.2" fill="none"/></clipPath><clipPath id="ae" transform="translate(0 0.05)"><polygon points="641.25 79.2 641.25 129.6 649.89 129.6 649.89 86.69 673.65 86.69 673.65 79.2 641.25 79.2" fill="none"/></clipPath><clipPath id="ag" transform="translate(0 0.05)"><rect width="673.65" height="173.07" fill="none"/></clipPath><clipPath id="ah" transform="translate(0 0.05)"><path d="M105.71,71.69c-1.76,2-4,3.39-6,5.16-2.36,2.13-4.9,4.08-7.42,6-4.92,3.84-9.77,7.78-14.93,11.31-.65.44-1.12,1.12-1.75,1.52-1.29.79-2.5,1.68-3.7,2.58-5.09,3.85-10.34,7.48-15.52,11.21-3.15,2.26-6.39,4.38-9.58,6.59Q36.29,123.38,25.32,130A183.44,183.44,0,0,1,8.8,139.2a33.48,33.48,0,0,1-7.35,2.67c-.48.11-1,0-1.45.39.09.21.28.2.46.23a21.17,21.17,0,0,0,3.44.32c2.93.08,5.83.63,8.76.6.83,0,1.67.09,2.5.14,2.24.12,4.47.48,6.72.64a25.88,25.88,0,0,1,2.92.2,36.75,36.75,0,0,0,6.43.62c1.47,0,2.82.49,4.27.52a47.4,47.4,0,0,1,4.85.65c2.51.31,5,.51,7.52.89s4.78,1,7.19,1.3A87,87,0,0,1,63.84,150c5.94,1.32,11.76,3.14,17.54,5,4,1.32,8,2.82,12,4.34,3.27,1.26,6.48,2.68,9.72,4a22.14,22.14,0,0,0,2.52.89c.45.12,1.06.3,1.06-.62,0-2.22,0-4.44,0-6.66q0-42.46,0-84.93c0-.28.19-.68-.2-.82a.35.35,0,0,0-.14,0c-.26,0-.43.29-.6.47" fill="none"/></clipPath><linearGradient id="ai" y1="173.07" x2="1" y2="173.07" gradientTransform="matrix(106.7, 0, 0, -106.7, 0, 18583.9)" xlink:href="#b"/><clipPath id="aj" transform="translate(0 0.05)"><path d="M30.06,50.91v60.17c0,3,.1,3.06,2.74,1.52,4.92-2.87,9.73-5.94,14.46-9.1,5.12-3.42,10.15-7,15.18-10.51,2-1.43,4-2.92,6.08-4.3,1.43-.94,2.73-2.08,4.11-3.09,2.62-1.91,5.32-3.7,7.86-5.71,3.5-2.78,7.13-5.4,10.49-8.35,2.76-2.42,5.71-4.62,8.32-7.22a26.07,26.07,0,0,0,3.11-3.77c.89-1.32.7-2.17-.6-3.09a9.64,9.64,0,0,0-2.51-1.19,58.83,58.83,0,0,0-8-1.94c-2.15-.39-4.31-.69-6.47-1-1.55-.2-3.09-.43-4.64-.59-2.27-.24-4.54-.48-6.82-.65a48.1,48.1,0,0,1-5.21-.51A31.47,31.47,0,0,0,65,51.33c-2.16-.16-4.35,0-6.48-.28-1.83-.26-3.67-.31-5.49-.45a70.31,70.31,0,0,0-7.68-.27,17.88,17.88,0,0,1-2.83-.2,16.41,16.41,0,0,0-3.13-.19A43,43,0,0,1,34,49.82c-1.31-.08-2.63-.17-3.94-.23,0,.44,0,.88,0,1.32" fill="none"/></clipPath><linearGradient id="ak" y1="173.06" x2="1" y2="173.06" gradientTransform="matrix(72.9, 0, 0, -72.9, 30.06, 12698.69)" gradientUnits="userSpaceOnUse"><stop offset="0" stop-color="#2d4753"/><stop offset="1" stop-color="#231f20"/></linearGradient><clipPath id="al" transform="translate(0 0.05)"><path d="M75.2,13.3c-3.61,2.22-7.18,4.51-10.66,6.94-4.3,3-8.62,6-12.72,9.27a21.3,21.3,0,0,0-2.94,2.41.66.66,0,0,1-.67.26,15.55,15.55,0,0,1-2.15,1.9c-1.37,1.37-3.22,2.14-4.56,3.57A13.1,13.1,0,0,1,40.08,39a66.31,66.31,0,0,0-7.41,6.81,9.43,9.43,0,0,0-2.58,3.76c1.31.06,2.63.15,3.94.23a43,43,0,0,0,5.32.12,16.41,16.41,0,0,1,3.13.19,17.88,17.88,0,0,0,2.83.2A70.31,70.31,0,0,1,53,50.6c1.82.14,3.66.19,5.49.45,2.13.3,4.32.12,6.48.28a31.47,31.47,0,0,1,3.24.22,48.1,48.1,0,0,0,5.21.51c2.28.17,4.55.41,6.82.65,1.55.16,3.09.39,4.64.59a24.9,24.9,0,0,1,.06-4.23c0-10.14,0-20.27,0-30.41,0-3.07-.38-6.14,0-9.22a.74.74,0,0,0-.29-.74,44.75,44.75,0,0,0-9.43,4.6" fill="none"/></clipPath><linearGradient id="am" y1="173.07" x2="1" y2="173.07" gradientTransform="matrix(54.86, 0, 0, -54.86, 30.09, 9525.68)" xlink:href="#b"/><clipPath id="an" transform="translate(0 0.05)"><path d="M48.16.8c.11.19,0,.5,0,.75V28.77c0,1.14,0,2.27,0,3.41a.66.66,0,0,0,.67-.26,21.3,21.3,0,0,1,2.94-2.41c4.1-3.29,8.42-6.27,12.72-9.27,3.48-2.43,7-4.72,10.66-6.94a44.75,44.75,0,0,1,9.43-4.6,2.53,2.53,0,0,0-1.4-1.86,23.51,23.51,0,0,0-4.89-2A92.18,92.18,0,0,0,68.15,2.33C64.24,1.63,60.33.88,56.36.51A65.34,65.34,0,0,0,48.84,0H48.4c-.37,0-.66.1-.24.8" fill="none"/></clipPath><linearGradient id="ao" x1="0" y1="173.07" x2="1" y2="173.07" gradientTransform="matrix(36.68, 0, 0, -36.68, 47.95, 6364.28)" xlink:href="#ak"/></defs><g clip-path="url(#a)"><rect x="135.09" y="7.26" width="49.68" height="59.76" fill="url(#b)"/></g><g clip-path="url(#c)"><rect x="193.41" y="7.26" width="33.84" height="50.4" fill="url(#d)"/></g><g clip-path="url(#e)"><rect x="233.01" y="7.26" width="43.56" height="51.19" fill="url(#f)"/></g><g clip-path="url(#g)"><rect x="289.53" y="7.26" width="38.16" height="50.4" fill="url(#d)"/></g><g clip-path="url(#i)"><rect x="326.97" y="7.26" width="42.48" height="50.4" fill="url(#d)"/></g><g clip-path="url(#k)"><rect x="366.93" y="7.26" width="46.8" height="50.4" fill="url(#d)"/></g><g clip-path="url(#m)"><rect x="140.13" y="79.26" width="41.76" height="50.4" fill="url(#n)"/></g><g clip-path="url(#o)"><rect x="194.85" y="79.26" width="41.76" height="50.4" fill="url(#n)"/></g><g clip-path="url(#q)"><rect x="244.89" y="79.26" width="66.96" height="50.4" fill="url(#n)"/></g><g clip-path="url(#s)"><rect x="320.13" y="79.26" width="41.76" height="50.4" fill="url(#n)"/></g><g clip-path="url(#u)"><rect x="374.85" y="79.26" width="41.76" height="50.4" fill="url(#n)"/></g><g clip-path="url(#w)"><rect x="429.57" y="79.26" width="41.76" height="50.4" fill="url(#n)"/></g><g clip-path="url(#y)"><rect x="484.29" y="79.26" width="38.16" height="50.4" fill="url(#n)"/></g><g clip-path="url(#aa)"><rect x="531.81" y="79.26" width="41.76" height="50.4" fill="url(#n)"/></g><g clip-path="url(#ac)"><rect x="586.53" y="79.26" width="41.76" height="50.4" fill="url(#n)"/></g><g clip-path="url(#ae)"><rect x="641.25" y="79.26" width="32.4" height="50.4" fill="url(#n)"/></g><g clip-path="url(#ag)"><path d="M152,164.7h0a9.77,9.77,0,0,1-7.67-3.31,12.54,12.54,0,0,1-2.94-8.66,12.91,12.91,0,0,1,3.06-9,10.08,10.08,0,0,1,7.86-3.42,9.77,9.77,0,0,1,7.74,3.33,12.62,12.62,0,0,1,2.9,8.61q0,5.83-3.11,9.13A10.29,10.29,0,0,1,152,164.7Zm.11-2.48h0a6.49,6.49,0,0,0,5.53-2.8,11.64,11.64,0,0,0,2-7,11.53,11.53,0,0,0-2-6.72,6.33,6.33,0,0,0-5.54-2.87,6.41,6.41,0,0,0-5.6,2.87,11.88,11.88,0,0,0-2,7,11.12,11.12,0,0,0,2,6.74A6.43,6.43,0,0,0,152.14,162.22Z" transform="translate(0 0.05)" fill="#2d4753"/><path d="M179.75,139.08l-.14,2.56a18.57,18.57,0,0,1-3.54.77c-2.87.44-4.88,1.5-6,3.18a11.82,11.82,0,0,0-1.85,5.6h.1a6.21,6.21,0,0,1,2.43-2.82,6.61,6.61,0,0,1,3.48-1,6.7,6.7,0,0,1,5.22,2.2,8.86,8.86,0,0,1,2,6.16,9.68,9.68,0,0,1-2.06,6.56,7.22,7.22,0,0,1-5.78,2.4,7.06,7.06,0,0,1-3.72-1,6.59,6.59,0,0,1-2.47-2.63,14.54,14.54,0,0,1-1.3-3.58,20.27,20.27,0,0,1-.41-4.17q0-5.91,2.58-9.38a8.3,8.3,0,0,1,3-2.64,14.27,14.27,0,0,1,4.36-1.35A31.24,31.24,0,0,0,179.75,139.08ZM178.28,156v0a10.21,10.21,0,0,0-.39-2.87,5.18,5.18,0,0,0-1.5-2.38,4,4,0,0,0-2.84-1,4.1,4.1,0,0,0-3.84,2.31,7.25,7.25,0,0,0-.85,3.57,10.64,10.64,0,0,0,.46,3.05,6.34,6.34,0,0,0,1.59,2.66,3.67,3.67,0,0,0,2.72,1.15,3.82,3.82,0,0,0,3.51-1.89A8.56,8.56,0,0,0,178.28,156Z" transform="translate(0 0.05)" fill="#2d4753"/><path d="M192.21,164.7h0a7.73,7.73,0,0,1-5.81-2.4,8.7,8.7,0,0,1-2.31-6.31,8.92,8.92,0,0,1,2.4-6.56,8.06,8.06,0,0,1,6-2.44,7.7,7.7,0,0,1,5.9,2.42,8.78,8.78,0,0,1,2.26,6.26q0,4.41-2.52,6.72A8.43,8.43,0,0,1,192.21,164.7Zm.07-2.31h0a4.5,4.5,0,0,0,3.68-1.87,7.45,7.45,0,0,0,1.47-4.74,8.14,8.14,0,0,0-1.28-4.48,4.22,4.22,0,0,0-3.8-2,4.38,4.38,0,0,0-3.85,2,8.09,8.09,0,0,0-1.33,4.62,7.38,7.38,0,0,0,1.44,4.66A4.43,4.43,0,0,0,192.28,162.39Z" transform="translate(0 0.05)" fill="#2d4753"/><path d="M204.49,171.25V152.91c0-2.27,0-4.11-.14-5.53h2.77l.17,2.9h.07a6.94,6.94,0,0,1,11.15-.89,9.21,9.21,0,0,1,2.05,6.21,9.34,9.34,0,0,1-2.26,6.72,7.21,7.21,0,0,1-5.44,2.38,5.64,5.64,0,0,1-5.22-2.66h-.07v9.21Zm3.08-16.77v2.94a5.1,5.1,0,0,0,.14,1.26,4.54,4.54,0,0,0,1.67,2.61,4.63,4.63,0,0,0,2.92,1,4.5,4.5,0,0,0,3.78-1.79,7.62,7.62,0,0,0,1.36-4.76,7.39,7.39,0,0,0-1.33-4.48,4.29,4.29,0,0,0-3.67-1.82,4.55,4.55,0,0,0-2.92,1.05,5.06,5.06,0,0,0-1.77,2.77A9.75,9.75,0,0,0,207.57,154.48Z" transform="translate(0 0.05)" fill="#2d4753"/><path d="M221.85,147.38h3.36l3.68,10a36,36,0,0,1,1.12,3.46h.07c0-.07.17-.55.43-1.45s.49-1.59.65-2.08l3.36-9.94h3.26l-4.62,12.07a63.49,63.49,0,0,1-3,6.86,13.71,13.71,0,0,1-2.82,3.75,8.61,8.61,0,0,1-3.78,2l-.77-2.56a7.4,7.4,0,0,0,2.69-1.5,9,9,0,0,0,2.59-3.43,2.41,2.41,0,0,0,.25-.74,2,2,0,0,0-.25-.8Z" transform="translate(0 0.05)" fill="#2d4753"/><path d="M241.7,147.38H253V162l1.72,0-.18,7.63h-2.38l-.14-5.35H240.3l-.14,5.35h-2.42L237.6,162l1.44,0a13.92,13.92,0,0,0,1.68-3.47,22.84,22.84,0,0,0,1-6.79Zm2.69,2.34v2.77a21.53,21.53,0,0,1-.87,6.33,16.74,16.74,0,0,1-1.33,3.15H250V149.72Z" transform="translate(0 0.05)" fill="#2d4753"/><path d="M265.25,164.7h0a7.72,7.72,0,0,1-5.81-2.4A8.7,8.7,0,0,1,257.1,156a9,9,0,0,1,2.39-6.56,8.07,8.07,0,0,1,6-2.44,7.69,7.69,0,0,1,5.89,2.42,8.78,8.78,0,0,1,2.26,6.26q0,4.41-2.52,6.72A8.43,8.43,0,0,1,265.25,164.7Zm.07-2.31h0a4.48,4.48,0,0,0,3.67-1.87,7.45,7.45,0,0,0,1.47-4.74,8.14,8.14,0,0,0-1.28-4.48,4.21,4.21,0,0,0-3.79-2,4.37,4.37,0,0,0-3.85,2,8,8,0,0,0-1.33,4.62,7.37,7.37,0,0,0,1.43,4.66A4.43,4.43,0,0,0,265.32,162.39Z" transform="translate(0 0.05)" fill="#2d4753"/><path d="M277.43,164.32V147.55a33.13,33.13,0,0,1,5.39-.38q7.56,0,7.56,4.27a3.37,3.37,0,0,1-1,2.5,5.09,5.09,0,0,1-2.53,1.35v.07a5.76,5.76,0,0,1,3.13,1.33,3.61,3.61,0,0,1,1.17,2.83q0,5-8.92,5Q280.16,164.53,277.43,164.32Zm2.94-7.81v5.81c.86.07,1.68.11,2.45.11a9.39,9.39,0,0,0,3.62-.65,2.31,2.31,0,0,0,1.56-2.29,2.34,2.34,0,0,0-1.44-2.33,9.8,9.8,0,0,0-3.95-.65Zm0-7.07v5.08h2.31a7.53,7.53,0,0,0,3.27-.65,2.13,2.13,0,0,0,1.34-2.05q0-2.52-4.54-2.52C282.13,149.3,281.34,149.35,280.41,149.44Z" transform="translate(0 0.05)" fill="#2d4753"/><path d="M307,153.92v6.34a28.44,28.44,0,0,0,.24,4.06h-2.76l-.28-2.14h-.11A5.5,5.5,0,0,1,302,164a6.48,6.48,0,0,1-3.08.72,5,5,0,0,1-3.81-1.43,4.8,4.8,0,0,1-1.36-3.43,5.2,5.2,0,0,1,2.64-4.71q2.64-1.63,7.54-1.59v-.35a6.17,6.17,0,0,0-.12-1.25,4.81,4.81,0,0,0-.49-1.24,2.57,2.57,0,0,0-1.19-1,4.94,4.94,0,0,0-2-.38,7.74,7.74,0,0,0-4.45,1.26l-.69-2.07a10.29,10.29,0,0,1,5.59-1.47Q307,147,307,153.92Zm-3,4.69v-2.94c-4.78-.09-7.18,1.18-7.18,3.82a2.8,2.8,0,0,0,.83,2.18,2.88,2.88,0,0,0,2,.76,4.26,4.26,0,0,0,2.66-.83,4.18,4.18,0,0,0,1.51-2A3.17,3.17,0,0,0,304,158.61Z" transform="translate(0 0.05)" fill="#2d4753"/><path d="M311.8,147.38h3.08v6.82h8v-6.82H326v16.94h-3.08v-7.67h-8v7.67H311.8Z" transform="translate(0 0.05)" fill="#2d4753"/><path d="M330.91,147.38h2.94v7.14q0,3.15-.21,6.82h.1q2.2-4.26,2.77-5.21l5.28-8.75h3.61v16.94h-2.94v-7.21q0-2.84.21-6.93h-.07c-1.08,2.12-2,3.88-2.84,5.28-.6,1-1.54,2.57-2.81,4.71s-2.1,3.52-2.47,4.15h-3.57Z" transform="translate(0 0.05)" fill="#2d4753"/><path d="M364,156.41H352.15a5.69,5.69,0,0,0,1.66,4.39,6,6,0,0,0,4.12,1.45,11.68,11.68,0,0,0,4.69-.87l.56,2.2a13.63,13.63,0,0,1-5.67,1.09,8,8,0,0,1-6.09-2.35,8.56,8.56,0,0,1-2.24-6.19,9.85,9.85,0,0,1,2.18-6.53,7.19,7.19,0,0,1,5.8-2.61,7,7,0,0,1,3.39.79,5.42,5.42,0,0,1,2.17,2.07,10,10,0,0,1,1.4,5.12A7.79,7.79,0,0,1,364,156.41Zm-11.83-2.21h9a7.43,7.43,0,0,0-.18-1.61,6.1,6.1,0,0,0-.63-1.61,3.37,3.37,0,0,0-1.33-1.29,4.18,4.18,0,0,0-2.1-.49,3.94,3.94,0,0,0-3.32,1.54A6.68,6.68,0,0,0,352.19,154.2Z" transform="translate(0 0.05)" fill="#2d4753"/><path d="M377.18,147.38h11.3V162l1.72,0-.18,7.63h-2.38l-.14-5.35H375.78l-.14,5.35h-2.42l-.14-7.63,1.44,0a13.92,13.92,0,0,0,1.68-3.47,22.84,22.84,0,0,0,1-6.79Zm2.69,2.34v2.77a21.53,21.53,0,0,1-.87,6.33,16.74,16.74,0,0,1-1.33,3.15h7.8V149.72Z" transform="translate(0 0.05)" fill="#2d4753"/><path d="M395.13,147.38h11.79v16.94h-3.08V149.79H398v4.34a26.06,26.06,0,0,1-.56,6.15,5.17,5.17,0,0,1-2.09,3.23,5.28,5.28,0,0,1-3.37,1.05l-.31-2.41a3.49,3.49,0,0,0,1.68-.7A3.89,3.89,0,0,0,394.8,159a27,27,0,0,0,.33-4.88Z" transform="translate(0 0.05)" fill="#2d4753"/><path d="M424.42,147.52v16.8h-3v-7.11H419.1a4,4,0,0,0-2.8.95,3.62,3.62,0,0,0-.84,1,9,9,0,0,0-.59,1.14c-.14.33-.32.79-.53,1.38l-.45,1.26a11.37,11.37,0,0,1-.7,1.4H409.9a12.25,12.25,0,0,0,1.05-1.93,15.85,15.85,0,0,0,.63-1.63,14.54,14.54,0,0,1,.91-2.1,5.06,5.06,0,0,1,1.12-1.38,4.4,4.4,0,0,1,1.92-1v-.07a6,6,0,0,1-3.15-1.29,3.63,3.63,0,0,1-1.33-2.94,4,4,0,0,1,2.24-3.68,11.55,11.55,0,0,1,5.71-1.15A44.74,44.74,0,0,1,424.42,147.52Zm-3,7.59v-5.7a18.69,18.69,0,0,0-2.56-.18,9.22,9.22,0,0,0-2.11.23,3.68,3.68,0,0,0-1.72.93,2.32,2.32,0,0,0-.75,1.78,2.42,2.42,0,0,0,1.43,2.23,6.58,6.58,0,0,0,3.08.75l1.54,0Z" transform="translate(0 0.05)" fill="#2d4753"/><path d="M436.74,164.32V147.55a33.13,33.13,0,0,1,5.39-.38q7.56,0,7.56,4.27a3.37,3.37,0,0,1-1,2.5,5.09,5.09,0,0,1-2.53,1.35v.07a5.76,5.76,0,0,1,3.13,1.33,3.61,3.61,0,0,1,1.17,2.83q0,5-8.92,5Q439.47,164.53,436.74,164.32Zm2.94-7.81v5.81c.86.07,1.68.11,2.45.11a9.36,9.36,0,0,0,3.62-.65,2.31,2.31,0,0,0,1.56-2.29,2.35,2.35,0,0,0-1.43-2.33,9.89,9.89,0,0,0-4-.65Zm0-7.07v5.08H442a7.53,7.53,0,0,0,3.27-.65,2.14,2.14,0,0,0,1.35-2.05q0-2.52-4.55-2.52C441.44,149.3,440.65,149.35,439.72,149.44Z" transform="translate(0 0.05)" fill="#2d4753"/><path d="M466.28,153.92v6.34a26.88,26.88,0,0,0,.25,4.06h-2.77l-.28-2.14h-.1a5.5,5.5,0,0,1-2.1,1.8,6.51,6.51,0,0,1-3.08.72,5,5,0,0,1-3.82-1.43,4.8,4.8,0,0,1-1.36-3.43,5.2,5.2,0,0,1,2.64-4.71q2.64-1.63,7.54-1.59v-.35a6.17,6.17,0,0,0-.12-1.25,4.81,4.81,0,0,0-.49-1.24,2.57,2.57,0,0,0-1.19-1,4.94,4.94,0,0,0-2-.38,7.68,7.68,0,0,0-4.44,1.26l-.7-2.07a10.32,10.32,0,0,1,5.6-1.47Q466.28,147,466.28,153.92Zm-3,4.69v-2.94q-7.17-.13-7.17,3.82a2.8,2.8,0,0,0,.82,2.18,2.89,2.89,0,0,0,2.05.76,4.28,4.28,0,0,0,2.66-.83,4.22,4.22,0,0,0,1.5-2A3.17,3.17,0,0,0,463.27,158.61Z" transform="translate(0 0.05)" fill="#2d4753"/><path d="M471.11,147.38h3.05V161.9h5.91V147.38h3V161.9H489V147.38H492v16.94H471.11Z" transform="translate(0 0.05)" fill="#2d4753"/><path d="M510.66,156.41H498.79a5.69,5.69,0,0,0,1.67,4.39,5.92,5.92,0,0,0,4.11,1.45,11.65,11.65,0,0,0,4.69-.87l.56,2.2a13.63,13.63,0,0,1-5.67,1.09,8,8,0,0,1-6.09-2.35,8.6,8.6,0,0,1-2.24-6.19A9.8,9.8,0,0,1,498,149.6,7.17,7.17,0,0,1,503.8,147a7,7,0,0,1,3.39.79,5.42,5.42,0,0,1,2.17,2.07,10,10,0,0,1,1.4,5.12A7.79,7.79,0,0,1,510.66,156.41Zm-11.83-2.21h9a7.43,7.43,0,0,0-.18-1.61A5.48,5.48,0,0,0,507,151a3.31,3.31,0,0,0-1.33-1.29,4.18,4.18,0,0,0-2.1-.49,3.94,3.94,0,0,0-3.32,1.54A6.76,6.76,0,0,0,498.83,154.2Z" transform="translate(0 0.05)" fill="#2d4753"/><path d="M514.47,147.38H524.9v2.45h-7.35v14.49h-3.08Z" transform="translate(0 0.05)" fill="#2d4753"/><path d="M534.28,164.7h0a7.72,7.72,0,0,1-5.81-2.4,8.7,8.7,0,0,1-2.31-6.31,8.92,8.92,0,0,1,2.4-6.56,8,8,0,0,1,6-2.44,7.69,7.69,0,0,1,5.89,2.42,8.78,8.78,0,0,1,2.26,6.26q0,4.41-2.52,6.72A8.43,8.43,0,0,1,534.28,164.7Zm.07-2.31h0a4.48,4.48,0,0,0,3.67-1.87,7.45,7.45,0,0,0,1.47-4.74,8.06,8.06,0,0,0-1.28-4.48,4.21,4.21,0,0,0-3.79-2,4.37,4.37,0,0,0-3.85,2,8,8,0,0,0-1.33,4.62,7.43,7.43,0,0,0,1.43,4.66A4.43,4.43,0,0,0,534.35,162.39Z" transform="translate(0 0.05)" fill="#2d4753"/><path d="M566.94,139.08l-.14,2.56a19,19,0,0,1-3.54.77q-4.31.66-6,3.18a11.72,11.72,0,0,0-1.86,5.6h.11a6.09,6.09,0,0,1,2.43-2.82,6.56,6.56,0,0,1,3.48-1,6.7,6.7,0,0,1,5.22,2.2,8.86,8.86,0,0,1,2,6.16,9.73,9.73,0,0,1-2.06,6.56,7.23,7.23,0,0,1-5.78,2.4,7.12,7.12,0,0,1-3.73-1,6.56,6.56,0,0,1-2.46-2.63,13.77,13.77,0,0,1-1.3-3.58,19.58,19.58,0,0,1-.42-4.17q0-5.91,2.59-9.38a8.22,8.22,0,0,1,3-2.64,14.27,14.27,0,0,1,4.36-1.35A31.24,31.24,0,0,0,566.94,139.08ZM565.47,156v0a10.21,10.21,0,0,0-.39-2.87,5.34,5.34,0,0,0-1.5-2.38,4,4,0,0,0-2.84-1,4.11,4.11,0,0,0-3.85,2.31,7.25,7.25,0,0,0-.84,3.57,10.3,10.3,0,0,0,.46,3.05,6.34,6.34,0,0,0,1.59,2.66,3.67,3.67,0,0,0,2.71,1.15,3.82,3.82,0,0,0,3.52-1.89A8.56,8.56,0,0,0,565.47,156Z" transform="translate(0 0.05)" fill="#2d4753"/><path d="M572.36,147.38h2.94v7.14q0,3.15-.21,6.82h.11q2.2-4.26,2.76-5.21l5.29-8.75h3.6v16.94h-2.94v-7.21q0-2.84.21-6.93h-.07c-1.07,2.12-2,3.88-2.83,5.28-.61,1-1.55,2.57-2.82,4.71l-2.47,4.15h-3.57Z" transform="translate(0 0.05)" fill="#2d4753"/><path d="M593.29,156.58l0-2.1h1.47a5.62,5.62,0,0,0,3.14-.79,2.3,2.3,0,0,0,1.2-2,2.15,2.15,0,0,0-.91-1.81,3.88,3.88,0,0,0-2.38-.68,7.72,7.72,0,0,0-4.09,1.23l-.77-1.93a10.91,10.91,0,0,1,5.63-1.5,8.5,8.5,0,0,1,2.65.4,4.93,4.93,0,0,1,2.17,1.45,3.82,3.82,0,0,1,.92,2.59,3.26,3.26,0,0,1-1.13,2.51,5.63,5.63,0,0,1-2.68,1.34v.07a6,6,0,0,1,3.31,1.33,3.67,3.67,0,0,1,1.31,2.91,4.11,4.11,0,0,1-2.15,3.78,10.08,10.08,0,0,1-5.17,1.26,11.1,11.1,0,0,1-5.49-1.37l.8-2.1a8.79,8.79,0,0,0,4.48,1.19,5.2,5.2,0,0,0,3-.8,2.47,2.47,0,0,0,1.14-2.1q0-2.91-4.94-2.91Z" transform="translate(0 0.05)" fill="#2d4753"/><path d="M606.83,147.38h3.08v6.82h8v-6.82H621v16.94h-3.08v-7.67h-8v7.67h-3.08Z" transform="translate(0 0.05)" fill="#2d4753"/><path d="M639.66,156.41H627.8a5.69,5.69,0,0,0,1.66,4.39,6,6,0,0,0,4.11,1.45,11.65,11.65,0,0,0,4.69-.87l.56,2.2a13.63,13.63,0,0,1-5.67,1.09,8,8,0,0,1-6.09-2.35,8.6,8.6,0,0,1-2.24-6.19A9.8,9.8,0,0,1,627,149.6,7.18,7.18,0,0,1,632.8,147a7,7,0,0,1,3.4.79,5.49,5.49,0,0,1,2.17,2.07,10.67,10.67,0,0,1,1.07,2.55,10.24,10.24,0,0,1,.33,2.57A7.64,7.64,0,0,1,639.66,156.41Zm-11.83-2.21h9a8.08,8.08,0,0,0-.17-1.61A6.1,6.1,0,0,0,636,151a3.44,3.44,0,0,0-1.33-1.29,4.23,4.23,0,0,0-2.1-.49,4,4,0,0,0-3.33,1.54A6.76,6.76,0,0,0,627.83,154.2Z" transform="translate(0 0.05)" fill="#2d4753"/><path d="M655.13,161.38l.53,2.31a11.32,11.32,0,0,1-4.87,1,8.16,8.16,0,0,1-6.12-2.38,8.63,8.63,0,0,1-2.31-6.27,8.64,8.64,0,0,1,9.1-9,9,9,0,0,1,4.27.91l-.7,2.35a7.58,7.58,0,0,0-3.57-.81,5.55,5.55,0,0,0-4.4,1.84,6.73,6.73,0,0,0-1.59,4.57,6.41,6.41,0,0,0,1.66,4.6,5.62,5.62,0,0,0,4.22,1.73A9.33,9.33,0,0,0,655.13,161.38Z" transform="translate(0 0.05)" fill="#2d4753"/><path d="M671.27,153.92v6.34a28.44,28.44,0,0,0,.24,4.06h-2.76l-.28-2.14h-.11a5.5,5.5,0,0,1-2.1,1.8,6.51,6.51,0,0,1-3.08.72,5,5,0,0,1-3.81-1.43,4.81,4.81,0,0,1-1.37-3.43,5.2,5.2,0,0,1,2.64-4.71c1.77-1.09,4.28-1.62,7.55-1.59v-.35a6.15,6.15,0,0,0-.13-1.25,4.48,4.48,0,0,0-.49-1.24,2.53,2.53,0,0,0-1.19-1,4.92,4.92,0,0,0-2-.38,7.74,7.74,0,0,0-4.45,1.26l-.7-2.07a10.32,10.32,0,0,1,5.6-1.47Q671.27,147,671.27,153.92Zm-3,4.69v-2.94q-7.18-.13-7.18,3.82a2.83,2.83,0,0,0,.82,2.18,2.89,2.89,0,0,0,2.05.76,4.32,4.32,0,0,0,4.17-2.84A3.17,3.17,0,0,0,668.26,158.61Z" transform="translate(0 0.05)" fill="#2d4753"/></g><g clip-path="url(#ah)"><rect y="71.27" width="106.84" height="93.35" fill="url(#ai)"/></g><g clip-path="url(#aj)"><rect x="30.05" y="49.64" width="73.24" height="64.55" fill="url(#ak)"/></g><g clip-path="url(#al)"><rect x="30.09" y="8.76" width="54.88" height="44.6" fill="url(#am)"/></g><g clip-path="url(#an)"><rect x="47.74" width="36.89" height="32.28" fill="url(#ao)"/></g></svg>