<svg xmlns="http://www.w3.org/2000/svg" xmlns:xlink="http://www.w3.org/1999/xlink" viewBox="0 0 106.7 164.38"><defs><linearGradient id="a" x1="100.98" y1="313.99" x2="207.67" y2="313.99" gradientUnits="userSpaceOnUse"><stop offset="0" stop-color="#155b61"/><stop offset="1" stop-color="#42acb7"/></linearGradient><linearGradient id="b" x1="131.03" y1="277.78" x2="203.93" y2="277.78" gradientUnits="userSpaceOnUse"><stop offset="0" stop-color="#2d4753"/><stop offset="1"/></linearGradient><linearGradient id="c" x1="131.06" y1="227.19" x2="185.92" y2="227.19" xlink:href="#a"/><linearGradient id="d" x1="148.93" y1="212.29" x2="185.61" y2="212.29" xlink:href="#b"/></defs><path d="M101,338.45c.41-.39,1-.27,1.45-.38a34.46,34.46,0,0,0,7.34-2.67,188.69,188.69,0,0,0,16.53-9.16c7.3-4.46,14.48-9.09,21.52-13.95,3.19-2.2,6.44-4.32,9.58-6.59,5.18-3.72,10.44-7.35,15.53-11.2a43.71,43.71,0,0,1,3.7-2.59c.63-.39,1.1-1.07,1.75-1.52,5.15-3.53,10-7.47,14.93-11.31,2.51-2,5.05-3.91,7.42-6,2-1.76,4.2-3.17,6-5.15.2-.22.4-.57.75-.45s.2.54.2.82q0,42.47,0,84.94c0,2.21-.07,4.43-.06,6.65,0,.92-.6.74-1.06.62a22.63,22.63,0,0,1-2.51-.88c-3.25-1.33-6.46-2.76-9.73-4-3.95-1.52-7.93-3-12-4.33-5.78-1.9-11.59-3.72-17.54-5a89.12,89.12,0,0,0-8.77-1.64c-2.42-.28-4.79-.94-7.2-1.3s-5-.57-7.51-.89a47.22,47.22,0,0,0-4.86-.65c-1.45,0-2.79-.52-4.27-.52a36.84,36.84,0,0,1-6.43-.62,28.45,28.45,0,0,0-2.92-.2c-2.25-.15-4.47-.52-6.71-.64-.83,0-1.67-.14-2.51-.13-2.93,0-5.82-.53-8.76-.6a21,21,0,0,1-3.43-.33C101.26,338.65,101.06,338.67,101,338.45Z" transform="translate(-100.98 -196.19)" fill="url(#a)"/><path d="M185.84,249.49c2.16.34,4.33.64,6.48,1a60.72,60.72,0,0,1,8,1.93,9.36,9.36,0,0,1,2.51,1.2c1.3.91,1.48,1.77.59,3.09a24.79,24.79,0,0,1-3.1,3.76c-2.62,2.6-5.56,4.8-8.32,7.22-3.37,3-7,5.57-10.5,8.35-2.53,2-5.24,3.8-7.85,5.71-1.39,1-2.69,2.15-4.12,3.1-2.07,1.37-4.05,2.86-6.08,4.29-5,3.55-10.06,7.09-15.17,10.51-4.74,3.17-9.54,6.23-14.46,9.1-2.64,1.54-2.75,1.46-2.75-1.51V247.11c0-.44,0-.89,0-1.33,1.32.06,2.63.15,3.94.23a43,43,0,0,0,5.32.12c2-.13,4,.46,6,.4a70.14,70.14,0,0,1,7.68.26c1.83.15,3.67.19,5.5.45,2.13.31,4.32.13,6.47.28a31.47,31.47,0,0,1,3.24.22,48.3,48.3,0,0,0,5.22.52c2.27.16,4.54.4,6.81.64C182.75,249.07,184.3,249.29,185.84,249.49Z" transform="translate(-100.98 -196.19)" fill="url(#b)"/><path d="M185.84,249.49c-1.54-.2-3.09-.42-4.64-.59-2.27-.24-4.54-.48-6.81-.64a48.3,48.3,0,0,1-5.22-.52,31.47,31.47,0,0,0-3.24-.22c-2.15-.15-4.34,0-6.47-.28-1.83-.26-3.67-.3-5.5-.45a70.14,70.14,0,0,0-7.68-.26c-2,.06-3.94-.53-6-.4A43,43,0,0,1,135,246c-1.31-.08-2.62-.17-3.94-.23a9.5,9.5,0,0,1,2.58-3.76,67.28,67.28,0,0,1,7.41-6.81,12.24,12.24,0,0,0,1.42-1.37c1.34-1.43,3.19-2.19,4.57-3.56a17,17,0,0,0,2.15-1.91.69.69,0,0,0,.67-.25,20.4,20.4,0,0,1,2.93-2.41c4.1-3.29,8.42-6.28,12.73-9.28,3.48-2.43,7-4.72,10.66-6.93a43.57,43.57,0,0,1,9.43-4.6.74.74,0,0,1,.28.73c-.35,3.08.05,6.15,0,9.23,0,10.13,0,20.27,0,30.41A25.86,25.86,0,0,0,185.84,249.49Z" transform="translate(-100.98 -196.19)" fill="url(#c)"/><path d="M185.61,204.9a43.57,43.57,0,0,0-9.43,4.6c-3.62,2.21-7.18,4.5-10.66,6.93-4.31,3-8.63,6-12.73,9.28a20.4,20.4,0,0,0-2.93,2.41.69.69,0,0,1-.67.25c0-1.13,0-2.27,0-3.4V197.74c0-.25.09-.56,0-.74-.59-1,.24-.78.68-.79a63,63,0,0,1,7.52.5c4,.37,7.89,1.11,11.8,1.81A94.31,94.31,0,0,1,179.31,201a22.6,22.6,0,0,1,4.89,2A2.48,2.48,0,0,1,185.61,204.9Z" transform="translate(-100.98 -196.19)" fill="url(#d)"/></svg>