<svg xmlns="http://www.w3.org/2000/svg" xmlns:xlink="http://www.w3.org/1999/xlink" width="545.58" height="123.46" viewBox="0 0 545.58 123.46"><defs><linearGradient id="a" x1="131.65" y1="291.11" x2="211.1" y2="291.11" gradientUnits="userSpaceOnUse"><stop offset="0" stop-color="#155b61"/><stop offset="1" stop-color="#42acb7"/></linearGradient><linearGradient id="b" x1="154.03" y1="264.15" x2="208.32" y2="264.15" gradientUnits="userSpaceOnUse"><stop offset="0" stop-color="#2d4753"/><stop offset="1"/></linearGradient><linearGradient id="c" x1="154.05" y1="226.48" x2="194.91" y2="226.48" xlink:href="#a"/><linearGradient id="d" x1="167.36" y1="215.38" x2="194.67" y2="215.38" xlink:href="#b"/></defs><path d="M131.65,309.33c.31-.3.72-.21,1.08-.29a25,25,0,0,0,5.47-2,135.48,135.48,0,0,0,12.31-6.82q8.15-5,16-10.38c2.38-1.64,4.8-3.22,7.14-4.91,3.86-2.77,7.77-5.47,11.56-8.34.89-.68,1.8-1.34,2.75-1.93.47-.29.83-.8,1.31-1.13,3.84-2.63,7.45-5.56,11.12-8.42,1.87-1.46,3.76-2.91,5.52-4.5a52.21,52.21,0,0,0,4.44-3.84c.14-.16.29-.42.55-.33s.15.4.15.61l0,63.25c0,1.65,0,3.3,0,4.95,0,.69-.45.55-.79.46a16.07,16.07,0,0,1-1.88-.65c-2.41-1-4.8-2.06-7.24-3-2.94-1.14-5.9-2.25-8.9-3.23-4.31-1.41-8.64-2.77-13.06-3.75a66,66,0,0,0-6.54-1.22c-1.8-.22-3.56-.7-5.35-1s-3.74-.43-5.6-.66c-1.21-.15-2.41-.46-3.62-.49s-2.08-.39-3.17-.39a26.81,26.81,0,0,1-4.8-.46c-.71-.12-1.45-.1-2.17-.15-1.67-.11-3.33-.38-5-.47-.62,0-1.24-.11-1.86-.1-2.19,0-4.34-.39-6.53-.45a15.71,15.71,0,0,1-2.55-.24C131.86,309.48,131.72,309.49,131.65,309.33Z" transform="translate(-131.65 -202.34)" fill="url(#a)"/><path d="M194.85,243.09c1.6.25,3.22.47,4.82.77a42.93,42.93,0,0,1,5.92,1.44,6.9,6.9,0,0,1,1.88.89,1.42,1.42,0,0,1,.44,2.3,19.38,19.38,0,0,1-2.32,2.8c-1.94,1.94-4.13,3.58-6.19,5.38-2.51,2.2-5.21,4.14-7.82,6.22-1.88,1.49-3.9,2.82-5.84,4.25-1,.75-2,1.6-3.07,2.3-1.54,1-3,2.14-4.53,3.2-3.74,2.64-7.49,5.28-11.3,7.82-3.52,2.36-7.1,4.65-10.76,6.78-2,1.15-2.05,1.09-2.05-1.13v-44.8c0-.33,0-.66,0-1l2.94.17a32.73,32.73,0,0,0,4,.1c1.5-.1,3,.34,4.44.29a49.63,49.63,0,0,1,5.72.2c1.36.1,2.73.14,4.09.33,1.58.23,3.22.09,4.82.21a23.78,23.78,0,0,1,2.41.16,36.34,36.34,0,0,0,3.89.39c1.69.12,3.38.3,5.07.48C192.55,242.77,193.69,242.94,194.85,243.09Z" transform="translate(-131.65 -202.34)" fill="url(#b)"/><path d="M194.85,243.09c-1.16-.15-2.3-.32-3.46-.44-1.69-.18-3.38-.36-5.07-.48a36.34,36.34,0,0,1-3.89-.39,23.78,23.78,0,0,0-2.41-.16c-1.6-.12-3.24,0-4.82-.21-1.36-.19-2.73-.23-4.09-.33a49.63,49.63,0,0,0-5.72-.2c-1.49.05-2.94-.39-4.44-.29a32.73,32.73,0,0,1-4-.1l-2.94-.17a7.16,7.16,0,0,1,1.93-2.8,49.08,49.08,0,0,1,5.52-5.07,9.19,9.19,0,0,0,1.05-1c1-1.06,2.38-1.63,3.4-2.65a12.78,12.78,0,0,0,1.6-1.42.53.53,0,0,0,.5-.19,15,15,0,0,1,2.19-1.79c3-2.46,6.27-4.68,9.47-6.91,2.59-1.81,5.25-3.52,7.94-5.17a33.29,33.29,0,0,1,7-3.42.54.54,0,0,1,.21.55,62.78,62.78,0,0,0,0,6.86c0,7.55,0,15.1,0,22.65A18.4,18.4,0,0,0,194.85,243.09Z" transform="translate(-131.65 -202.34)" fill="url(#c)"/><path d="M194.67,209.88a33.29,33.29,0,0,0-7,3.42c-2.69,1.65-5.35,3.36-7.94,5.17-3.2,2.23-6.42,4.45-9.47,6.91a15,15,0,0,0-2.19,1.79.53.53,0,0,1-.5.19c0-.85,0-1.69,0-2.54V204.55c0-.19.06-.41,0-.55-.44-.75.18-.58.51-.59a47.72,47.72,0,0,1,5.6.37c3,.27,5.87.83,8.78,1.35A69.3,69.3,0,0,1,190,207a17,17,0,0,1,3.63,1.52A1.88,1.88,0,0,1,194.67,209.88Z" transform="translate(-131.65 -202.34)" fill="url(#d)"/><path d="M273.47,202.34v44.25l4.33.14-.44,17h-5l-.44-11.89H240.74l-.44,11.89h-5l-.44-17,3.75-.14a59,59,0,0,0,4.84-10.86c1.69-5.73,2.35-12.33,2.35-20.84V202.34Zm-21.72,14.6c0,7.93-.73,14.6-2.49,20.18a48.14,48.14,0,0,1-4,9.39h21.87V207.62H251.75Z" transform="translate(-131.65 -202.34)" fill="#38a1ab"/><path d="M308.91,228.61H289.68v17.83h21.43v5.36H283.3V202.34H310v5.36H289.68v15.63h19.23Z" transform="translate(-131.65 -202.34)" fill="#38a1ab"/><path d="M351.24,202.34V251.8h-6.45V207.7H328.42v15c0,10.71-.44,22.67-7.41,27.37a14.89,14.89,0,0,1-7.56,2.34l-.8-5.13a11.39,11.39,0,0,0,5.21-2.64c4-3.89,4.33-13.51,4.33-21.43V202.34Z" transform="translate(-131.65 -202.34)" fill="#38a1ab"/><path d="M366.14,202.34v18.49a53.14,53.14,0,0,1,6.09-.37c10.12,0,19.07,4.48,19.07,15.41a14.93,14.93,0,0,1-3.81,10.57c-4,4.26-10.93,5.8-17.76,5.8a75.52,75.52,0,0,1-10-.59V202.34Zm0,44.54a27.17,27.17,0,0,0,5.28.37c7.12,0,13.21-3.45,13.21-11,0-7.78-6.24-10.71-13.28-10.71a39.56,39.56,0,0,0-5.21.37Z" transform="translate(-131.65 -202.34)" fill="#38a1ab"/><path d="M401.28,207.77h-15v-5.43h36.61v5.43H407.74v44h-6.46Z" transform="translate(-131.65 -202.34)" fill="#38a1ab"/><path d="M427.84,236.24l-5.13,15.56H416.1l16.81-49.46h7.7l16.88,49.46h-6.83l-5.28-15.56Zm16.22-5L439.22,217c-1.1-3.23-1.84-6.17-2.57-9h-.15c-.73,2.94-1.54,5.94-2.49,8.95l-4.85,14.31Z" transform="translate(-131.65 -202.34)" fill="#38a1ab"/><path d="M245.66,269.34v20.84c0,7.85-.15,14.31-.59,20.91l.15.08c2.49-5.14,5.58-10.5,9.17-16.37l16-25.46h6.38V318.8h-6V297.74c0-8,.07-13.87.58-20.11l-.22-.07A150.31,150.31,0,0,1,262,294.22L246.47,318.8h-6.83V269.34Z" transform="translate(-131.65 -202.34)" fill="#38a1ab"/><path d="M291.74,269.34V290h23.92V269.34h6.46V318.8h-6.46V295.61H291.74V318.8h-6.39V269.34Z" transform="translate(-131.65 -202.34)" fill="#38a1ab"/><path d="M334.07,269.34l15.34,21.94h1.91V269.34h6.23v21.94h2l15.26-21.94h7.48l-17.53,22.75c7.77.81,10.93,5.65,13.35,12.69,1.69,4.7,2.86,9.47,4.92,14h-6.53c-1.69-3.3-2.87-8.07-4.11-11.59-2.28-6.76-4.77-11.09-12.7-11.09h-2.13V318.8h-6.23V296.12h-2.2c-7.93,0-10.42,4.33-12.77,11.09-1.18,3.52-2.35,8.29-4,11.59h-6.54c2.13-4.55,3.31-9.32,4.92-13.94,2.5-7,5.65-11.82,13.36-12.77l-17.54-22.75Z" transform="translate(-131.65 -202.34)" fill="#38a1ab"/><path d="M392.84,269.34v20.84c0,7.85-.14,14.31-.58,20.91l.14.08c2.5-5.14,5.58-10.5,9.18-16.37l16-25.46H424V318.8h-6V297.74c0-8,.07-13.87.59-20.11l-.22-.07a150.43,150.43,0,0,1-9.18,16.66L393.65,318.8h-6.82V269.34Z" transform="translate(-131.65 -202.34)" fill="#38a1ab"/><path d="M438.92,269.34V290h23.92V269.34h6.46V318.8h-6.46V295.61H438.92V318.8h-6.38V269.34Z" transform="translate(-131.65 -202.34)" fill="#38a1ab"/><path d="M483.82,269.34v20.84c0,7.85-.14,14.31-.58,20.91l.14.08c2.5-5.14,5.58-10.5,9.18-16.37l16-25.46h6.39V318.8h-6V297.74c0-8,.07-13.87.59-20.11l-.22-.07a150.43,150.43,0,0,1-9.18,16.66L484.63,318.8h-6.82V269.34Z" transform="translate(-131.65 -202.34)" fill="#38a1ab"/><path d="M523.52,269.93a73.19,73.19,0,0,1,12.25-1c6.31,0,10.94,1.47,13.87,4.11A13.29,13.29,0,0,1,554,283.43c0,4.48-1.32,8-3.81,10.57-3.38,3.59-8.88,5.43-15.12,5.43a22.39,22.39,0,0,1-5.14-.44V318.8h-6.38Zm6.38,23.85a21.85,21.85,0,0,0,5.29.51c7.7,0,12.4-3.74,12.4-10.57,0-6.53-4.63-9.68-11.67-9.68a27.08,27.08,0,0,0-6,.51Z" transform="translate(-131.65 -202.34)" fill="#38a1ab"/><path d="M566,269.34v20.84c0,7.85-.15,14.31-.59,20.91l.15.08c2.5-5.14,5.58-10.5,9.17-16.37l16-25.46h6.38V318.8h-6V297.74c0-8,.07-13.87.58-20.11l-.22-.07a150.31,150.31,0,0,1-9.17,16.66L566.81,318.8H560V269.34Z" transform="translate(-131.65 -202.34)" fill="#38a1ab"/><path d="M612.08,269.34V290H636V269.34h6.46V318.8H636V295.61H612.08V318.8H605.7V269.34Z" transform="translate(-131.65 -202.34)" fill="#38a1ab"/><path d="M677.23,269.34v5.36H657.35v44.1H651V269.34Z" transform="translate(-131.65 -202.34)" fill="#38a1ab"/></svg>