<svg xmlns="http://www.w3.org/2000/svg" xmlns:xlink="http://www.w3.org/1999/xlink" viewBox="0 0 673.65 172.05"><defs><linearGradient id="a" x1="751.84" y1="248.65" x2="255.86" y2="248.65" gradientUnits="userSpaceOnUse"><stop offset="0" stop-color="#155b61"/><stop offset="1" stop-color="#42acb7"/></linearGradient><linearGradient id="b" x1="751.84" y1="243.97" x2="255.86" y2="243.97" xlink:href="#a"/><linearGradient id="c" x1="751.84" y1="244.36" x2="255.86" y2="244.36" xlink:href="#a"/><linearGradient id="g" x1="751.84" y1="315.97" x2="255.86" y2="315.97" xlink:href="#a"/><linearGradient id="q" x1="75.38" y1="329.36" x2="182.08" y2="329.36" xlink:href="#a"/><linearGradient id="r" x1="105.44" y1="293.15" x2="178.34" y2="293.15" gradientUnits="userSpaceOnUse"><stop offset="0" stop-color="#2d4753"/><stop offset="1"/></linearGradient><linearGradient id="s" x1="105.47" y1="242.56" x2="160.33" y2="242.56" xlink:href="#a"/><linearGradient id="t" x1="123.33" y1="227.66" x2="160.01" y2="227.66" xlink:href="#r"/></defs><path d="M210.47,278.53V261.68h5.4a26.67,26.67,0,0,0,2.2-6.41,76.55,76.55,0,0,0,1.3-8.13q.47-4.39.64-8.9t.18-8.67v-10.8h34.13v42.91h5.83v16.85h-7.92v-9.36H218.39v9.36Zm14.19-16.85h21V226.26H228.55V231a134.68,134.68,0,0,1-1,17.78A69.92,69.92,0,0,1,224.66,261.68Z" transform="translate(-75.38 -211.56)" fill="url(#a)"/><path d="M268.79,269.17v-50.4h33.84v7.49h-25.2V239.5h23V247h-23v14.69h25.2v7.49Z" transform="translate(-75.38 -211.56)" fill="url(#b)"/><path d="M310.91,270c-.38,0-.8,0-1.26,0a6.07,6.07,0,0,1-1.26-.18v-8.2a5.35,5.35,0,0,0,1.08.07,6.31,6.31,0,0,0,2.81-.61,4.76,4.76,0,0,0,2.05-2.34,19.65,19.65,0,0,0,1.37-5,76,76,0,0,0,.76-8.68q.21-5.37.21-13.21v-13H352v50.4h-8.64V226.26H325v6.91q0,9.44-.57,15.91a64.66,64.66,0,0,1-1.69,10.62,18.73,18.73,0,0,1-2.81,6.37,8.72,8.72,0,0,1-4,3.06A14.79,14.79,0,0,1,310.91,270Z" transform="translate(-75.38 -211.56)" fill="url(#c)"/><path d="M364.91,269.17v-50.4h8.64v19h9.72q10.16,0,15,4.28a15.91,15.91,0,0,1,0,22.82q-4.83,4.29-15,4.29Zm8.64-7.49h9q6.84,0,9.36-2.09a8.69,8.69,0,0,0,0-12.24q-2.52-2.08-9.36-2.09h-9Z" transform="translate(-75.38 -211.56)" fill="url(#b)"/><path d="M419.27,269.17V226.26H402.35v-7.49h42.48v7.49H427.91v42.91Z" transform="translate(-75.38 -211.56)" fill="url(#b)"/><path d="M442.31,269.17l19.08-50.4H470l19.08,50.4h-9.22l-4.24-11.38H455.2L451,269.17ZM458,250.3h14.83l-7.35-20.73Z" transform="translate(-75.38 -211.56)" fill="url(#b)"/><path d="M215.51,341.17v-50.4h8.64v36.72l24.77-36.72h8.35v50.4h-8.64V304.45l-24.76,36.72Z" transform="translate(-75.38 -211.56)" fill="url(#g)"/><path d="M270.23,341.17v-50.4h8.64V311.5h24.48V290.77H312v50.4h-8.64V319H278.87v22.18Z" transform="translate(-75.38 -211.56)" fill="url(#g)"/><path d="M320.27,341.17l18-26.21L321,290.77h9.36l14.76,21.09h4.32V290.77h8.64v21.09h4.32l15.05-21.09h9.07l-17.28,23.9,18,26.5h-9.79l-15.05-22.54h-4.32v22.54h-8.64V318.63h-4.32l-15.19,22.54Z" transform="translate(-75.38 -211.56)" fill="url(#g)"/><path d="M395.51,341.17v-50.4h8.64v36.72l24.77-36.72h8.35v50.4h-8.64V304.45l-24.77,36.72Z" transform="translate(-75.38 -211.56)" fill="url(#g)"/><path d="M450.23,341.17v-50.4h8.64V311.5h24.48V290.77H492v50.4h-8.64V319H458.87v22.18Z" transform="translate(-75.38 -211.56)" fill="url(#g)"/><path d="M505,341.17v-50.4h8.64v36.72l24.77-36.72h8.35v50.4h-8.64V304.45L513.3,341.17Z" transform="translate(-75.38 -211.56)" fill="url(#g)"/><path d="M559.67,341.17v-50.4H578a27.27,27.27,0,0,1,11.16,2,13.94,13.94,0,0,1,6.52,5.58,18.08,18.08,0,0,1,0,17,13.94,13.94,0,0,1-6.52,5.58,27.27,27.27,0,0,1-11.16,2h-9.72v18.29Zm8.64-25.78h9q6.84,0,9.36-2.12t2.52-6.45q0-4.24-2.52-6.4t-9.36-2.16h-9Z" transform="translate(-75.38 -211.56)" fill="url(#g)"/><path d="M607.19,341.17v-50.4h8.64v36.72l24.77-36.72H649v50.4h-8.64V304.45l-24.77,36.72Z" transform="translate(-75.38 -211.56)" fill="url(#g)"/><path d="M661.91,341.17v-50.4h8.64V311.5H695V290.77h8.64v50.4H695V319H670.55v22.18Z" transform="translate(-75.38 -211.56)" fill="url(#g)"/><path d="M716.63,341.17v-50.4H749v7.49H725.27v42.91Z" transform="translate(-75.38 -211.56)" fill="url(#g)"/><path d="M238.34,363.84c0,8.12-4.94,12.43-11,12.43-6.23,0-10.61-4.83-10.61-12,0-7.49,4.66-12.39,11-12.39S238.34,356.84,238.34,363.84Zm-18.31.38c0,5,2.73,9.56,7.52,9.56s7.57-4.45,7.57-9.8c0-4.69-2.45-9.59-7.53-9.59S220,359,220,364.22Z" transform="translate(-75.38 -211.56)" fill="#2d4753"/><path d="M255,353.2a24.12,24.12,0,0,1-3.53.77c-2.73.42-4.73,1.33-6,3.18a12.06,12.06,0,0,0-1.86,5.6h.11a6.4,6.4,0,0,1,5.88-3.81c4.16,0,7.21,3,7.21,8.36s-2.87,9-7.84,9c-5.95,0-7.91-5.71-7.91-11.35,0-3.85.8-7,2.62-9.38,1.65-2.34,4-3.43,7.28-4a24.47,24.47,0,0,0,4.2-.91Zm-6.05,8a4.13,4.13,0,0,0-3.82,2.31,7.43,7.43,0,0,0-.84,3.61c0,2.8,1.37,6.83,4.73,6.83s4.65-3.29,4.65-6.41C253.66,364.79,252.58,361.21,248.94,361.21Z" transform="translate(-75.38 -211.56)" fill="#2d4753"/><path d="M276,367.27c0,6.27-4.34,9-8.43,9-4.59,0-8.12-3.36-8.12-8.72,0-5.67,3.71-9,8.4-9C272.7,358.55,276,362.09,276,367.27Zm-13.44.18c0,3.71,2.14,6.51,5.15,6.51s5.14-2.77,5.14-6.58c0-2.88-1.43-6.52-5.07-6.52S262.55,364.22,262.55,367.45Z" transform="translate(-75.38 -211.56)" fill="#2d4753"/><path d="M279.88,364.47c0-2.17-.07-3.92-.14-5.53h2.76l.14,2.9h.07a6.68,6.68,0,0,1,6-3.29c4.1,0,7.18,3.47,7.18,8.62,0,6.09-3.71,9.1-7.7,9.1a6,6,0,0,1-5.22-2.66h-.07v9.2h-3Zm3,4.52a7,7,0,0,0,.14,1.26,4.76,4.76,0,0,0,4.62,3.6c3.26,0,5.15-2.66,5.15-6.55,0-3.39-1.79-6.3-5-6.3a4.93,4.93,0,0,0-4.66,3.82,5.27,5.27,0,0,0-.21,1.26Z" transform="translate(-75.38 -211.56)" fill="#2d4753"/><path d="M300.56,358.94l3.71,10c.39,1.12.81,2.45,1.09,3.47h.07c.31-1,.66-2.31,1.08-3.54l3.36-9.94h3.26L308.51,371c-2.21,5.81-3.71,8.78-5.81,10.6a8.39,8.39,0,0,1-3.78,2l-.77-2.59a8.25,8.25,0,0,0,2.69-1.51,9.25,9.25,0,0,0,2.59-3.43,2.23,2.23,0,0,0,.25-.73,2.71,2.71,0,0,0-.21-.81l-6.27-15.61Z" transform="translate(-75.38 -211.56)" fill="#2d4753"/><path d="M328.35,358.94v14.63l1.75,0-.17,7.66h-2.42l-.14-5.39H315.64l-.14,5.39h-2.41l-.14-7.66,1.43,0a12.88,12.88,0,0,0,1.68-3.46,22.28,22.28,0,0,0,1-6.76v-4.41Zm-8.57,5.14a22.48,22.48,0,0,1-.88,6.31,16.71,16.71,0,0,1-1.36,3.15h7.8V361.28h-5.56Z" transform="translate(-75.38 -211.56)" fill="#2d4753"/><path d="M349,367.27c0,6.27-4.34,9-8.44,9-4.59,0-8.12-3.36-8.12-8.72,0-5.67,3.71-9,8.4-9C345.68,358.55,349,362.09,349,367.27Zm-13.45.18c0,3.71,2.14,6.51,5.15,6.51s5.14-2.77,5.14-6.58c0-2.88-1.43-6.52-5.07-6.52S335.52,364.22,335.52,367.45Z" transform="translate(-75.38 -211.56)" fill="#2d4753"/><path d="M352.78,359.15a36,36,0,0,1,5.39-.39c2.83,0,7.52.46,7.52,4.24,0,2.1-1.61,3.39-3.53,3.81v.07c2.48.36,4.3,1.75,4.3,4.2,0,4.45-5.6,5-8.92,5-1.89,0-3.85-.14-4.76-.21Zm2.9,14.7a18,18,0,0,0,2.49.14c2.06,0,5.14-.49,5.14-2.94s-2.45-3-5.39-3h-2.24Zm0-7.81H358c2.27,0,4.62-.66,4.62-2.66,0-1.68-1.47-2.48-4.55-2.48a21.64,21.64,0,0,0-2.38.14Z" transform="translate(-75.38 -211.56)" fill="#2d4753"/><path d="M379.73,375.88l-.25-2.13h-.1a6.32,6.32,0,0,1-5.18,2.52A4.83,4.83,0,0,1,369,371.4c0-4.1,3.64-6.34,10.18-6.3v-.35c0-1.4-.38-3.92-3.85-3.92a8.45,8.45,0,0,0-4.41,1.26l-.7-2a10.52,10.52,0,0,1,5.57-1.51c5.18,0,6.44,3.54,6.44,6.93v6.34a23.81,23.81,0,0,0,.28,4.06Zm-.46-8.64c-3.36-.07-7.17.52-7.17,3.81A2.72,2.72,0,0,0,375,374a4.22,4.22,0,0,0,4.1-2.83,3.43,3.43,0,0,0,.17-1Z" transform="translate(-75.38 -211.56)" fill="#2d4753"/><path d="M390.19,358.94v6.82h8.05v-6.82h3.05v16.94h-3.05v-7.67h-8.05v7.67h-3V358.94Z" transform="translate(-75.38 -211.56)" fill="#2d4753"/><path d="M409.16,358.94v7.14c0,2.7,0,4.38-.17,6.79l.1,0c1-2.07,1.61-3.26,2.73-5.22l5.29-8.75h3.6v16.94h-2.94v-7.17c0-2.77.07-4.21.21-6.94h-.1c-1.09,2.17-1.82,3.54-2.8,5.26-1.61,2.62-3.47,5.88-5.29,8.85h-3.53V358.94Z" transform="translate(-75.38 -211.56)" fill="#2d4753"/><path d="M427.43,368c.07,4.17,2.73,5.88,5.81,5.88a11.11,11.11,0,0,0,4.69-.87l.53,2.2a13.75,13.75,0,0,1-5.64,1.05c-5.21,0-8.33-3.43-8.33-8.54s3-9.14,7.95-9.14c5.53,0,7,4.87,7,8a10.37,10.37,0,0,1-.11,1.43Zm9-2.21c0-2-.8-5-4.27-5-3.11,0-4.48,2.87-4.72,5Z" transform="translate(-75.38 -211.56)" fill="#2d4753"/><path d="M463.79,358.94v14.63l1.75,0-.17,7.66H463l-.15-5.39H451.09l-.14,5.39h-2.42l-.14-7.66,1.44,0a13.51,13.51,0,0,0,1.68-3.46,22.6,22.6,0,0,0,1-6.76v-4.41Zm-8.57,5.14a22.48,22.48,0,0,1-.88,6.31,16.71,16.71,0,0,1-1.36,3.15h7.8V361.28h-5.56Z" transform="translate(-75.38 -211.56)" fill="#2d4753"/><path d="M482.24,358.94v16.94h-3.05V361.35h-5.81v4.41c0,4.77-.45,7.95-2.66,9.39a5,5,0,0,1-3.36,1.05l-.31-2.42a3.78,3.78,0,0,0,1.68-.7c1.57-1.15,1.75-3.54,1.75-7.32v-6.82Z" transform="translate(-75.38 -211.56)" fill="#2d4753"/><path d="M499.77,375.88h-3v-7.1h-2.28a4,4,0,0,0-2.83.94c-1.26,1-1.72,3.12-2.38,4.76a10.74,10.74,0,0,1-.7,1.4h-3.29A11.9,11.9,0,0,0,486.3,374c.73-1.65,1.15-3.85,2.66-5.12a3.94,3.94,0,0,1,1.92-1v-.11c-2.2-.25-4.48-1.61-4.48-4.2a4.1,4.1,0,0,1,2.24-3.68,11.93,11.93,0,0,1,5.67-1.15,46.09,46.09,0,0,1,5.46.35Zm-3-14.91a16.5,16.5,0,0,0-2.56-.18c-2.1,0-4.58.6-4.58,2.94,0,2.18,2.69,2.94,4.51,2.94h2.63Z" transform="translate(-75.38 -211.56)" fill="#2d4753"/><path d="M512.13,359.15a36,36,0,0,1,5.39-.39c2.83,0,7.52.46,7.52,4.24,0,2.1-1.61,3.39-3.53,3.81v.07c2.48.36,4.3,1.75,4.3,4.2,0,4.45-5.6,5-8.92,5-1.89,0-3.85-.14-4.76-.21Zm2.9,14.7a18,18,0,0,0,2.49.14c2.06,0,5.14-.49,5.14-2.94s-2.45-3-5.39-3H515Zm0-7.81h2.31c2.27,0,4.62-.66,4.62-2.66,0-1.68-1.47-2.48-4.55-2.48a21.64,21.64,0,0,0-2.38.14Z" transform="translate(-75.38 -211.56)" fill="#2d4753"/><path d="M539.08,375.88l-.25-2.13h-.11a6.3,6.3,0,0,1-5.18,2.52,4.83,4.83,0,0,1-5.18-4.87c0-4.1,3.64-6.34,10.19-6.3v-.35c0-1.4-.38-3.92-3.85-3.92a8.43,8.43,0,0,0-4.41,1.26l-.7-2a10.51,10.51,0,0,1,5.56-1.51c5.18,0,6.44,3.54,6.44,6.93v6.34a23.75,23.75,0,0,0,.29,4.06Zm-.46-8.64c-3.36-.07-7.18.52-7.18,3.81a2.72,2.72,0,0,0,2.91,2.94,4.23,4.23,0,0,0,4.1-2.83,3.43,3.43,0,0,0,.17-1Z" transform="translate(-75.38 -211.56)" fill="#2d4753"/><path d="M549.5,358.94v14.53h5.92V358.94h3v14.53h5.92V358.94h3v16.94h-20.9V358.94Z" transform="translate(-75.38 -211.56)" fill="#2d4753"/><path d="M574.11,368c.07,4.17,2.73,5.88,5.81,5.88a11.18,11.18,0,0,0,4.69-.87l.52,2.2a13.69,13.69,0,0,1-5.63,1.05c-5.22,0-8.33-3.43-8.33-8.54s3-9.14,7.94-9.14c5.53,0,7,4.87,7,8A12.76,12.76,0,0,1,586,368Zm9-2.21c0-2-.81-5-4.27-5-3.12,0-4.48,2.87-4.73,5Z" transform="translate(-75.38 -211.56)" fill="#2d4753"/><path d="M600.25,358.94v2.48H592.9v14.46h-3V358.94Z" transform="translate(-75.38 -211.56)" fill="#2d4753"/><path d="M618,367.27c0,6.27-4.34,9-8.43,9-4.59,0-8.12-3.36-8.12-8.72,0-5.67,3.71-9,8.4-9C614.74,358.55,618,362.09,618,367.27Zm-13.44.18c0,3.71,2.14,6.51,5.15,6.51s5.14-2.77,5.14-6.58c0-2.88-1.43-6.52-5.07-6.52S604.59,364.22,604.59,367.45Z" transform="translate(-75.38 -211.56)" fill="#2d4753"/><path d="M642.15,353.2a24.56,24.56,0,0,1-3.54.77c-2.73.42-4.73,1.33-6,3.18a12.17,12.17,0,0,0-1.86,5.6h.11a6.4,6.4,0,0,1,5.88-3.81c4.17,0,7.21,3,7.21,8.36s-2.87,9-7.84,9c-6,0-7.91-5.71-7.91-11.35,0-3.85.8-7,2.62-9.38,1.65-2.34,4-3.43,7.29-4a24.89,24.89,0,0,0,4.2-.91Zm-6.06,8a4.13,4.13,0,0,0-3.82,2.31,7.43,7.43,0,0,0-.84,3.61c0,2.8,1.37,6.83,4.73,6.83s4.66-3.29,4.66-6.41C640.82,364.79,639.73,361.21,636.09,361.21Z" transform="translate(-75.38 -211.56)" fill="#2d4753"/><path d="M650.65,358.94v7.14c0,2.7,0,4.38-.18,6.79l.11,0c1-2.07,1.61-3.26,2.73-5.22l5.28-8.75h3.61v16.94h-2.94v-7.17c0-2.77.07-4.21.21-6.94h-.1c-1.09,2.17-1.83,3.54-2.8,5.26-1.61,2.62-3.47,5.88-5.29,8.85h-3.54V358.94Z" transform="translate(-75.38 -211.56)" fill="#2d4753"/><path d="M668.6,366h1.47c2.59,0,4.34-1.19,4.34-2.76s-1.36-2.45-3.29-2.45A8.12,8.12,0,0,0,667,362l-.77-1.89a10.73,10.73,0,0,1,5.63-1.54c2.59,0,5.74,1.15,5.74,4.44,0,2.1-1.92,3.47-3.81,3.85V367c2.52.21,4.62,1.75,4.62,4.23,0,3.68-3.75,5-7.32,5a11.59,11.59,0,0,1-5.49-1.36l.8-2.07a9.73,9.73,0,0,0,4.48,1.16c2.56,0,4.17-1.23,4.17-2.91,0-2.27-2.38-2.9-4.94-2.9H668.6Z" transform="translate(-75.38 -211.56)" fill="#2d4753"/><path d="M685.26,358.94v6.82h8v-6.82h3.05v16.94h-3.05v-7.67h-8v7.67h-3V358.94Z" transform="translate(-75.38 -211.56)" fill="#2d4753"/><path d="M703.11,368c.07,4.17,2.73,5.88,5.81,5.88a11.11,11.11,0,0,0,4.69-.87l.53,2.2a13.75,13.75,0,0,1-5.64,1.05c-5.21,0-8.33-3.43-8.33-8.54s3-9.14,8-9.14c5.53,0,7,4.87,7,8A10.37,10.37,0,0,1,715,368Zm9-2.21c0-2-.8-5-4.27-5-3.11,0-4.48,2.87-4.72,5Z" transform="translate(-75.38 -211.56)" fill="#2d4753"/><path d="M731,375.25a11.37,11.37,0,0,1-4.87,1c-5.11,0-8.43-3.46-8.43-8.65s3.57-9,9.1-9a10.31,10.31,0,0,1,4.27.87l-.7,2.38a7.16,7.16,0,0,0-3.57-.8c-3.89,0-6,2.87-6,6.41,0,3.92,2.52,6.33,5.88,6.33a8.66,8.66,0,0,0,3.78-.84Z" transform="translate(-75.38 -211.56)" fill="#2d4753"/><path d="M744.1,375.88l-.25-2.13h-.1a6.33,6.33,0,0,1-5.19,2.52,4.83,4.83,0,0,1-5.18-4.87c0-4.1,3.64-6.34,10.19-6.3v-.35c0-1.4-.38-3.92-3.85-3.92a8.43,8.43,0,0,0-4.41,1.26l-.7-2a10.51,10.51,0,0,1,5.56-1.51c5.19,0,6.45,3.54,6.45,6.93v6.34a23.81,23.81,0,0,0,.28,4.06Zm-.46-8.64c-3.36-.07-7.18.52-7.18,3.81a2.72,2.72,0,0,0,2.91,2.94,4.22,4.22,0,0,0,4.1-2.83,3.43,3.43,0,0,0,.17-1Z" transform="translate(-75.38 -211.56)" fill="#2d4753"/><path d="M75.38,353.82c.41-.39,1-.27,1.46-.38a34.66,34.66,0,0,0,7.34-2.67,188.69,188.69,0,0,0,16.53-9.16c7.29-4.46,14.48-9.09,21.52-13.95,3.19-2.2,6.44-4.32,9.58-6.59,5.18-3.72,10.43-7.35,15.53-11.2,1.19-.91,2.41-1.8,3.69-2.59.64-.39,1.11-1.07,1.75-1.52,5.16-3.53,10-7.47,14.93-11.31,2.52-2,5.06-3.91,7.42-6,2-1.76,4.21-3.17,6-5.15.2-.22.4-.57.75-.45s.2.54.2.82q0,42.47,0,84.94c0,2.21-.06,4.43,0,6.65,0,.92-.6.74-1.06.62a22.79,22.79,0,0,1-2.52-.88c-3.24-1.33-6.45-2.76-9.72-4-4-1.52-7.93-3-12-4.33-5.78-1.9-11.59-3.72-17.54-5-2.91-.64-5.81-1.29-8.78-1.64-2.41-.28-4.78-.94-7.19-1.3s-5-.57-7.51-.89a48,48,0,0,0-4.86-.65c-1.45,0-2.8-.52-4.27-.52a36.75,36.75,0,0,1-6.43-.62,28.45,28.45,0,0,0-2.92-.2c-2.25-.15-4.48-.52-6.72-.64-.83,0-1.66-.14-2.5-.13-2.93,0-5.83-.53-8.76-.6a21.19,21.19,0,0,1-3.44-.33C75.66,354,75.47,354,75.38,353.82Z" transform="translate(-75.38 -211.56)" fill="url(#q)"/><path d="M160.25,264.86c2.16.34,4.33.64,6.47,1a60.33,60.33,0,0,1,8,1.93,9.42,9.42,0,0,1,2.52,1.2c1.3.91,1.48,1.77.59,3.09a24.85,24.85,0,0,1-3.11,3.76c-2.61,2.6-5.56,4.8-8.31,7.22-3.37,3-7,5.57-10.5,8.35-2.53,2-5.24,3.8-7.86,5.71-1.38,1-2.68,2.15-4.11,3.1-2.07,1.37-4.05,2.86-6.08,4.29-5,3.55-10.06,7.09-15.18,10.51-4.73,3.17-9.54,6.23-14.46,9.1-2.64,1.54-2.74,1.46-2.74-1.51V262.48c0-.44,0-.89,0-1.33,1.31.06,2.63.15,3.94.23a43,43,0,0,0,5.32.12c2-.13,4,.46,6,.4a70.22,70.22,0,0,1,7.68.26c1.83.15,3.66.19,5.5.45,2.12.31,4.31.13,6.47.28a31.47,31.47,0,0,1,3.24.22,48.12,48.12,0,0,0,5.21.52c2.28.16,4.55.4,6.82.64C157.16,264.44,158.7,264.66,160.25,264.86Z" transform="translate(-75.38 -211.56)" fill="url(#r)"/><path d="M160.25,264.86c-1.55-.2-3.09-.42-4.64-.59-2.27-.24-4.54-.48-6.82-.64a48.12,48.12,0,0,1-5.21-.52,31.47,31.47,0,0,0-3.24-.22c-2.16-.15-4.35,0-6.47-.28-1.84-.26-3.67-.3-5.5-.45a70.22,70.22,0,0,0-7.68-.26c-2,.06-4-.53-6-.4a43,43,0,0,1-5.32-.12c-1.31-.08-2.63-.17-3.94-.23a9.5,9.5,0,0,1,2.58-3.76,67.28,67.28,0,0,1,7.41-6.81,12.24,12.24,0,0,0,1.42-1.37c1.34-1.43,3.19-2.19,4.57-3.56a16.88,16.88,0,0,0,2.14-1.91.68.68,0,0,0,.67-.25,20.48,20.48,0,0,1,2.94-2.41c4.1-3.29,8.42-6.28,12.73-9.28,3.48-2.43,7-4.72,10.66-6.93a43.72,43.72,0,0,1,9.42-4.6.73.73,0,0,1,.29.73c-.35,3.08,0,6.15,0,9.23-.05,10.13,0,20.27,0,30.41A24.79,24.79,0,0,0,160.25,264.86Z" transform="translate(-75.38 -211.56)" fill="url(#s)"/><path d="M160,220.27a43.72,43.72,0,0,0-9.42,4.6c-3.62,2.21-7.18,4.5-10.66,6.93-4.31,3-8.63,6-12.73,9.28a20.48,20.48,0,0,0-2.94,2.41.68.68,0,0,1-.67.25c0-1.13,0-2.27,0-3.4V213.11c0-.25.09-.56,0-.74-.59-1,.24-.78.68-.79a63.17,63.17,0,0,1,7.52.5c4,.37,7.88,1.11,11.79,1.81a94.48,94.48,0,0,1,10.19,2.47,22.81,22.81,0,0,1,4.89,2A2.49,2.49,0,0,1,160,220.27Z" transform="translate(-75.38 -211.56)" fill="url(#t)"/></svg>