<svg width="0" height="0" class="hidden">
  <symbol xmlns="http://www.w3.org/2000/svg" xmlns:xlink="http://www.w3.org/1999/xlink" viewBox="0 0 800 800" id="ic_add">
    <path d="M400,750C206.7,750,50,593.25,50,400S206.7,50,400,50,750,206.75,750,400,593.3,750,400,750M400,0C179.08,0,0,179,0,400S179.08,800,400,800,800,621,800,400,620.92,0,400,0M550,375H425V250a25,25,0,0,0-50,0V375H250a25,25,0,0,0,0,50H375V550a25,25,0,0,0,50,0V425H550a25,25,0,0,0,0-50" fill-rule="evenodd" fill="currentColor"></path>
  </symbol>
  <symbol xmlns="http://www.w3.org/2000/svg" xmlns:xlink="http://www.w3.org/1999/xlink" viewBox="0 0 439.87 239.44" id="ic_arr_ver">
    <path d="M430.11,229.56a33.35,33.35,0,0,0,0-47.14L267,19.5a66.67,66.67,0,0,0-94.26,0l-163,163A33.33,33.33,0,1,0,56.9,229.68L196.42,90.16a33.33,33.33,0,0,1,47.14,0L383,229.56a33.35,33.35,0,0,0,47.14,0" fill="currentColor"></path>
  </symbol>
  <symbol xmlns="http://www.w3.org/2000/svg" xmlns:xlink="http://www.w3.org/1999/xlink" viewBox="0 0 583.33 450" id="ic_arrow_hor">
    <path d="M558.33,225H25m533.33,0-200,200m200-200-200-200" fill="none" stroke="currentColor" stroke-linecap="round" stroke-linejoin="round" stroke-width="50"></path>
  </symbol>
  <symbol xmlns="http://www.w3.org/2000/svg" xmlns:xlink="http://www.w3.org/1999/xlink" viewBox="0 0 683.34 650" id="ic_cart">
    <path d="M25,25h83.33L175,491.67H525a66.67,66.67,0,1,1-66.67,66.66m-200-466.66h400l-66.67,200m-33.34,100H160.71M325,558.33a66.67,66.67,0,1,1-66.67-66.66A66.67,66.67,0,0,1,325,558.33Z" fill="none" stroke="currentColor" stroke-linecap="round" stroke-linejoin="round" stroke-width="50"></path>
  </symbol>
  <symbol xmlns="http://www.w3.org/2000/svg" viewBox="0 0 573.33 443.56" id="ic_catalog">
    <path d="M133.33,200H666.67M133.33,400H357.48M133.33,600H300" transform="translate(-113.33 -180)" fill="none" stroke="currentColor" stroke-linecap="round" stroke-linejoin="round" stroke-width="40"></path>
    <path d="M554.1,504.8l98.76,98.76m-181-65.84A115.22,115.22,0,1,1,587,422.5,115.21,115.21,0,0,1,471.81,537.72Z" transform="translate(-113.33 -180)" fill="none" stroke="currentColor" stroke-linecap="round" stroke-linejoin="round" stroke-width="40"></path>
  </symbol>
  <symbol xmlns="http://www.w3.org/2000/svg" xmlns:xlink="http://www.w3.org/1999/xlink" viewBox="0 0 716.67 716.67" id="ic_check">
    <polyline points="241.67 375 308.33 441.67 475 275" fill="none" stroke="currentColor" stroke-linecap="round" stroke-linejoin="round" stroke-width="50"></polyline>
    <path d="M191.67,69.59A331.8,331.8,0,0,1,358.33,25c184.1,0,333.34,149.24,333.34,333.33S542.43,691.67,358.33,691.67,25,542.43,25,358.33A331.8,331.8,0,0,1,69.59,191.67" fill="none" stroke="currentColor" stroke-linecap="round" stroke-miterlimit="133.33" stroke-width="50"></path>
  </symbol>
  <symbol xmlns="http://www.w3.org/2000/svg" xmlns:xlink="http://www.w3.org/1999/xlink" viewBox="0 0 600.1 600.1" id="ic_close">
    <path d="M590.34,9.76a33.35,33.35,0,0,0-47.14,0L300.05,252.91,56.9,9.76A33.33,33.33,0,0,0,9.76,56.9L252.91,300.05,9.76,543.19A33.34,33.34,0,1,0,56.9,590.34L300.05,347.19,543.2,590.34a33.33,33.33,0,0,0,47.14-47.14L347.19,300.05,590.34,56.9a33.35,33.35,0,0,0,0-47.14" fill="currentColor"></path>
  </symbol>
  <symbol xmlns="http://www.w3.org/2000/svg" viewBox="0 0 650 716.67" id="ic_compare">
    <path d="M633.33,233.33V66.67" transform="translate(-75 -41.67)" fill="none" stroke="currentColor" stroke-linecap="round" stroke-linejoin="round" stroke-width="50"></path>
    <path d="M400,733.33V566.67" transform="translate(-75 -41.67)" fill="none" stroke="currentColor" stroke-linecap="round" stroke-linejoin="round" stroke-width="50"></path>
    <path d="M166.67,233.33V66.67" transform="translate(-75 -41.67)" fill="none" stroke="currentColor" stroke-linecap="round" stroke-linejoin="round" stroke-width="50"></path>
    <path d="M166.67,733.33V366.67" transform="translate(-75 -41.67)" fill="none" stroke="currentColor" stroke-linecap="round" stroke-linejoin="round" stroke-width="50"></path>
    <path d="M100,366.67H233.33" transform="translate(-75 -41.67)" fill="none" stroke="currentColor" stroke-linecap="round" stroke-linejoin="round" stroke-width="50"></path>
    <path d="M633.33,733.33V366.67" transform="translate(-75 -41.67)" fill="none" stroke="currentColor" stroke-linecap="round" stroke-linejoin="round" stroke-width="50"></path>
    <path d="M566.67,366.67H700" transform="translate(-75 -41.67)" fill="none" stroke="currentColor" stroke-linecap="round" stroke-linejoin="round" stroke-width="50"></path>
    <path d="M400,433.33V66.67" transform="translate(-75 -41.67)" fill="none" stroke="currentColor" stroke-linecap="round" stroke-linejoin="round" stroke-width="50"></path>
    <path d="M333.33,433.33H466.67" transform="translate(-75 -41.67)" fill="none" stroke="currentColor" stroke-linecap="round" stroke-linejoin="round" stroke-width="50"></path>
  </symbol>
  <symbol xmlns="http://www.w3.org/2000/svg" viewBox="0 0 800 800" id="ic_download">
    <path d="M700,550V700H100V550H0V800H800V550ZM350,0V261.1l-56.8-56.8L222.5,275,399.3,451.8,576,275l-70.65-70.7L450,259.65V0Z" fill="currentColor"></path>
  </symbol>
  <symbol xmlns="http://www.w3.org/2000/svg" xmlns:xlink="http://www.w3.org/1999/xlink" viewBox="0 0 666.67 533.33" id="ic_email">
    <polyline points="66.67 90 333.33 286.67 600 90" fill="none" stroke="currentColor" stroke-linecap="round" stroke-linejoin="round" stroke-width="66.67"></polyline>
    <rect x="33.33" y="33.33" width="600" height="466.67" rx="66.67" stroke-width="66.67" stroke="currentColor" stroke-linecap="round" stroke-linejoin="round" fill="none"></rect>
  </symbol>
  <symbol xmlns="http://www.w3.org/2000/svg" viewBox="0 0 640 506.67" id="ic_email2">
    <path d="M119.9,266.67,301.56,387.78c42.77,28.51,64.15,42.76,87.26,48.3a133.22,133.22,0,0,0,62.15,0c23.11-5.54,44.5-19.79,87.26-48.3L719.9,266.67M226.56,633.33H613.23c37.34,0,56,0,70.27-7.26a66.64,66.64,0,0,0,29.13-29.14c7.27-14.26,7.27-32.93,7.27-70.26V273.33c0-37.33,0-56-7.27-70.26a66.64,66.64,0,0,0-29.13-29.14c-14.26-7.26-32.93-7.26-70.27-7.26H226.56c-37.33,0-56,0-70.26,7.26a66.62,66.62,0,0,0-29.14,29.14c-7.26,14.26-7.26,32.93-7.26,70.26V526.67c0,37.33,0,56,7.26,70.26a66.62,66.62,0,0,0,29.14,29.14C170.56,633.33,189.23,633.33,226.56,633.33Z" transform="translate(-99.9 -146.67)" fill="none" stroke="currentColor" stroke-linecap="round" stroke-linejoin="round" stroke-width="40"></path>
  </symbol>
  <symbol xmlns="http://www.w3.org/2000/svg" xmlns:xlink="http://www.w3.org/1999/xlink" viewBox="0 0 366.67 500" id="ic_favorite">
    <path d="M308.33,16.67h-250c-23,0-41.66,19.58-41.66,43.75V483.33L183.33,366.67,350,483.33V60.42C350,36.25,331.35,16.67,308.33,16.67Z" fill="none" stroke="currentColor" stroke-linecap="round" stroke-linejoin="round" stroke-width="33.33"></path>
  </symbol>
  <symbol xmlns="http://www.w3.org/2000/svg" viewBox="0 0 333.33 466.67" id="ic_favorite2">
    <path d="M525,166.67H275c-23,0-41.67,19.58-41.67,43.75V633.33L400,516.67,566.67,633.33V210.42C566.67,186.25,548,166.67,525,166.67Z" transform="translate(-233.33 -166.67)" fill="currentColor"></path>
  </symbol>
  <symbol xmlns="http://www.w3.org/2000/svg" xmlns:xlink="http://www.w3.org/1999/xlink" viewBox="0 0 716.67 616.67" id="ic_filter">
    <path d="M216.67,495a25,25,0,0,0-25-25H25a25,25,0,0,0,0,50H191.67a25,25,0,0,0,25-25" fill-rule="evenodd" fill="currentColor"></path>
    <path d="M500,128.34a25,25,0,0,1,25-25H691.67a25,25,0,0,1,0,50H525a25,25,0,0,1-25-25" fill-rule="evenodd" fill="currentColor"></path>
    <path d="M716.67,495a25,25,0,0,0-25-25h-300a25,25,0,0,0,0,50h300a25,25,0,0,0,25-25" fill-rule="evenodd" fill="currentColor"></path>
    <path d="M0,128.34a25,25,0,0,1,25-25H325a25,25,0,0,1,0,50H25a25,25,0,0,1-25-25" fill-rule="evenodd" fill="currentColor"></path>
    <path d="M291.67,416.67a75,75,0,1,1-75,75,75,75,0,0,1,75-75m125,75a125,125,0,1,0-125,125,125,125,0,0,0,125-125" fill-rule="evenodd" fill="currentColor"></path>
    <path d="M425,50a75,75,0,1,0,75,75,75,75,0,0,0-75-75M300,125A125,125,0,1,1,425,250,125,125,0,0,1,300,125" fill-rule="evenodd" fill="currentColor"></path>
  </symbol>
  <symbol xmlns="http://www.w3.org/2000/svg" xmlns:xlink="http://www.w3.org/1999/xlink" viewBox="0 0 600 733.33" id="ic_location">
    <path d="M66.67,283.33C66.67,169.79,167,66.67,300,66.67S533.33,169.79,533.33,283.33c0,71.5-43.74,151.36-101.31,225.37-45.5,58.5-96.11,109.06-132,144.45-35.91-35.39-86.52-85.95-132-144.45-57.57-74-101.31-153.87-101.31-225.37M300,0C133,0,0,130.21,0,283.33c0,95.17,56.26,190.32,115.35,266.3C166.5,615.38,224,671.91,259.91,707.24c6.19,6.1,11.75,11.56,16.52,16.33a33.34,33.34,0,0,0,47.14,0c4.77-4.77,10.33-10.23,16.52-16.32h0C376,671.91,433.5,615.38,484.65,549.63,543.74,473.65,600,378.5,600,283.33,600,130.21,467,0,300,0m0,383.33A83.33,83.33,0,1,0,216.67,300,83.33,83.33,0,0,0,300,383.33" fill-rule="evenodd" fill="currentColor"></path>
  </symbol>
  <symbol xmlns="http://www.w3.org/2000/svg" xmlns:xlink="http://www.w3.org/1999/xlink" viewBox="0 0 720 560" id="ic_menu">
    <path d="M720,40a40,40,0,0,1-40,40H40A40,40,0,0,1,40,0H680a40,40,0,0,1,40,40m0,240a40,40,0,0,1-40,40H40a40,40,0,0,1,0-80H680a40,40,0,0,1,40,40M680,560a40,40,0,0,0,0-80H40a40,40,0,0,0,0,80Z" fill="currentColor" fill-rule="evenodd"></path>
  </symbol>
  <symbol xmlns="http://www.w3.org/2000/svg" xmlns:xlink="http://www.w3.org/1999/xlink" viewBox="0 0 533.33 133.33" id="ic_more">
    <path d="M133.33,66.67A66.67,66.67,0,1,1,66.67,0a66.65,66.65,0,0,1,66.66,66.67M466.67,0a66.67,66.67,0,1,0,66.66,66.67A66.67,66.67,0,0,0,466.67,0m-200,0a66.67,66.67,0,1,0,66.66,66.67A66.67,66.67,0,0,0,266.67,0" fill="currentColor"></path>
  </symbol>
  <symbol xmlns="http://www.w3.org/2000/svg" xmlns:xlink="http://www.w3.org/1999/xlink" viewBox="0 0 699.02 699.02" id="ic_official">
    <path d="M302.37,19.53a66.67,66.67,0,0,1,90-3.9l4.24,3.9L460,82.84h89.54A66.67,66.67,0,0,1,616,144.53l.19,5v89.54l63.31,63.32a66.67,66.67,0,0,1,3.9,90l-3.9,4.24L616.18,460v89.54A66.67,66.67,0,0,1,554.48,616l-5,.19H460l-63.32,63.31a66.67,66.67,0,0,1-90,3.9l-4.24-3.9-63.32-63.31H149.51A66.66,66.66,0,0,1,83,554.49l-.19-5V460L19.53,396.65a66.67,66.67,0,0,1-3.9-90l3.9-4.24,63.31-63.32V149.51A66.66,66.66,0,0,1,144.53,83l5-.19h89.54Zm149.79,229.4L310.67,390.41l-58.92-58.92a33.33,33.33,0,0,0-47.14,47.14l80.14,80.14a36.68,36.68,0,0,0,51.85,0l162.7-162.7a33.33,33.33,0,0,0-47.14-47.14" fill="currentColor" fill-rule="evenodd"></path>
  </symbol>
  <symbol xmlns="http://www.w3.org/2000/svg" xmlns:xlink="http://www.w3.org/1999/xlink" viewBox="0 0 658.24 658.33" id="ic_phone">
    <path d="M418.54,443.26l-15.18,16s-36.09,38-134.59-65.71-62.41-141.69-62.41-141.69l9.56-10.07c23.55-24.8,25.77-64.6,5.22-93.67l-42-59.45c-25.43-36-74.58-40.72-103.73-10L23.06,133.7c-14.45,15.22-24.14,35-23,56.83,3,56,26.92,176.44,160.41,317,141.56,149,274.38,155,328.7,149.59,17.18-1.69,32.12-11,44.16-23.63l47.35-49.86c32-33.65,22.95-91.34-17.94-114.88l-63.69-36.65c-26.85-15.46-59.56-10.92-80.55,11.18" fill="currentColor"></path>
    <path d="M342,21A25,25,0,0,1,370.7.33c.85.16,3.56.66,5,1,2.85.63,6.82,1.61,11.76,3.05a295.92,295.92,0,0,1,40.3,15.23C461,34.82,505.15,61.45,551,107.31s72.49,90.06,87.71,123.27A294.87,294.87,0,0,1,654,270.88c1.44,4.94,2.41,8.91,3,11.75.31,1.43.55,2.57.71,3.41l.19,1c2.2,13.63-7,27.05-20.59,29.26a25,25,0,0,1-28.65-20.57c-.07-.37-.26-1.34-.47-2.27-.41-1.84-1.12-4.77-2.25-8.64a244.9,244.9,0,0,0-12.68-33.45c-13-28.34-36.36-67.48-77.62-108.74S435.25,78,406.91,65a245.92,245.92,0,0,0-33.45-12.67c-3.87-1.13-8.74-2.25-10.58-2.66A25.29,25.29,0,0,1,342,21" fill="currentColor"></path>
    <path d="M349.52,136a25,25,0,0,1,30.91-17.17l-6.87,24,6.87-24h.1l.11,0,.26.07.66.21c.5.16,1.13.37,1.88.64,1.49.53,3.47,1.28,5.9,2.32A171.86,171.86,0,0,1,409,132.23c16.32,9.66,38.59,25.7,64.76,51.86s42.2,48.44,51.86,64.76a173.53,173.53,0,0,1,10.12,19.64c1,2.43,1.79,4.4,2.32,5.9.27.75.48,1.38.64,1.88l.2.66.08.26,0,.11,0,.05s0,0-24,6.92l24-6.87a25,25,0,0,1-48,14.07l-.12-.36c-.18-.5-.54-1.49-1.16-2.93a122.77,122.77,0,0,0-7.19-13.87c-7.43-12.56-20.86-31.53-44.19-54.86s-42.31-36.76-54.86-44.19a121.82,121.82,0,0,0-13.88-7.19c-1.44-.62-2.42-1-2.92-1.16l-.36-.13A25,25,0,0,1,349.52,136" fill="currentColor" fill-rule="evenodd"></path>
  </symbol>
  <symbol xmlns="http://www.w3.org/2000/svg" xmlns:xlink="http://www.w3.org/1999/xlink" viewBox="0 0 682.84 683.33" id="ic_phone2">
    <path d="M375,25s77.78,7.07,176.78,106.07S657.84,307.84,657.84,307.84" fill="none" stroke="currentColor" stroke-linecap="round" stroke-miterlimit="133.33" stroke-width="50"></path>
    <path d="M398.57,142.85s33,9.43,82.49,58.93S540,284.28,540,284.28" fill="none" stroke="currentColor" stroke-linecap="round" stroke-miterlimit="133.33" stroke-width="50"></path>
    <path d="M428.36,459.24,410.23,442Zm15.18-16,18.13,17.21Zm80.55-11.18-12.47,21.66Zm63.69,36.65L575.31,490.4Zm17.94,114.88,18.13,17.22Zm-47.35,49.86-18.13-17.22ZM514.21,657.1,516.66,682ZM185.51,507.51l18.13-17.22ZM25.1,190.53l-25,1.34Zm215.82,51.24L259,259Zm5.22-93.67,20.41-14.43Zm-42-59.45L183.7,103.09Zm-103.73-10,18.13,17.22ZM48.06,133.7,29.94,116.49ZM293.77,393.53l18.13-17.22Zm152.71,82.93,15.19-16L425.41,426l-15.18,16Zm65.14-22.72,63.69,36.66,24.94-43.33-63.68-36.66Zm76,112.66-47.36,49.85,36.26,34.43,47.35-49.85Zm-75.85,65.82c-47.83,4.73-172.64.7-308.11-141.93l-36.25,34.43C315,680.17,455.87,688,516.66,682ZM203.64,490.29c-129.2-136-150.88-250.77-153.58-301.1L.13,191.87c3.31,61.64,29.48,187.81,167.26,332.85Zm45.84-221.24L259,259l-36.25-34.44-9.56,10.07Zm17.07-135.38-42-59.45L183.7,103.09l42,59.45ZM82.26,61.4,29.94,116.49l36.25,34.43,52.32-55.08Zm149.1,190.43c-18.13-17.21-18.15-17.19-18.18-17.16s0,0,0,.05l-.1.1-.2.22-.45.5q-.46.54-1,1.23c-.73.93-1.56,2.07-2.43,3.43A53.51,53.51,0,0,0,203.7,251c-3.25,9.15-5,21.27-2.81,36.41,4.36,29.74,23.84,69.73,74.75,123.33l36.26-34.44c-47.59-50.1-59.31-81-61.54-96.14-1.07-7.33,0-11.19.45-12.4.24-.68.4-.87.25-.63s-.23.34-.48.66l-.46.55-.29.33-.17.18-.09.1,0,0s-.05.05-18.17-17.17m44.28,158.92C326.41,464.19,364.74,485.2,394,490c15,2.44,27.16.49,36.36-3.14a50.19,50.19,0,0,0,10.73-5.75,40.67,40.67,0,0,0,3.33-2.62c.45-.4.85-.76,1.19-1.1l.48-.47.21-.21a.94.94,0,0,1,.1-.1l.05-.05s0-.05-18.08-17.27S410.25,442,410.28,442l0-.05.09-.09.17-.18.32-.31c.2-.2.38-.36.54-.5.32-.28.56-.46.71-.57.31-.22.28-.15-.14,0-.65.25-3.68,1.32-10,.3-13.42-2.18-42.37-14-90.11-64.29ZM224.52,74.22C190.74,26.43,123.13,18.37,82.26,61.4l36.25,34.44c17.43-18.35,48.11-16.91,65.19,7.25Zm-174.46,115c-.71-13.31,5.08-26.64,16.13-38.27L29.94,116.49C12.07,135.29-1.5,161.41.13,191.87ZM540.24,616.25c-9.3,9.79-19,15-28.49,16L516.66,682c24.91-2.46,45.06-15.74,59.84-31.3ZM259,259c32.26-34,34.54-87.1,7.51-125.32l-40.82,28.87c14.07,19.9,11.91,46.38-2.94,62ZM575.31,490.4c27.36,15.75,32.71,54.49,12.29,76l36.25,34.43c43.5-45.8,30.83-122.43-23.6-153.76ZM461.67,460.47c12.84-13.52,32.86-16.56,49.95-6.73l25-43.33c-36.62-21.08-82-15-111.16,15.63Z" fill="currentColor"></path>
  </symbol>
  <symbol xmlns="http://www.w3.org/2000/svg" xmlns:xlink="http://www.w3.org/1999/xlink" viewBox="0 0 666.67 666.67" id="ic_search">
    <path d="M433.33,433.33l200,200M266.67,500C137.8,500,33.33,395.53,33.33,266.67S137.8,33.33,266.67,33.33,500,137.8,500,266.67,395.53,500,266.67,500Z" fill="none" stroke="currentColor" stroke-linecap="round" stroke-linejoin="round" stroke-width="66.67"></path>
  </symbol>
  <symbol xmlns="http://www.w3.org/2000/svg" xmlns:xlink="http://www.w3.org/1999/xlink" viewBox="0 0 583.33 583.33" id="ic_sort_direction">
    <line x1="25" y1="425" x2="325" y2="425" fill="none" stroke="currentColor" stroke-linecap="round" stroke-miterlimit="133.33" stroke-width="50"></line>
    <line x1="91.67" y1="258.33" x2="325" y2="258.33" fill="none" stroke="currentColor" stroke-linecap="round" stroke-miterlimit="133.33" stroke-width="50"></line>
    <line x1="158.33" y1="91.67" x2="325" y2="91.67" fill="none" stroke="currentColor" stroke-linecap="round" stroke-miterlimit="133.33" stroke-width="50"></line>
    <polyline points="458.33 25 458.33 558.33 558.33 425" fill="none" stroke="currentColor" stroke-linecap="round" stroke-linejoin="round" stroke-width="50"></polyline>
  </symbol>
  <symbol xmlns="http://www.w3.org/2000/svg" viewBox="0 0 800 800" id="ic_sort_new">
    <path d="M466.67,166.67v100h-100v66.66h100v100h66.66v-100h100V266.67h-100v-100Zm-200-100H733.33V533.33H266.67ZM200,0V600H533.33V733.33H66.67V266.67H200V200H0V800H600V600H800V0Z" fill="currentColor"></path>
  </symbol>
  <symbol xmlns="http://www.w3.org/2000/svg" xmlns:xlink="http://www.w3.org/1999/xlink" viewBox="0 0 716.84 716.86" id="ic_sort_popular">
    <path d="M691.67,391.67V258.33C691.67,91.67,625,25,458.33,25h-200C91.67,25,25,91.67,25,258.33v200C25,625,91.67,691.67,258.33,691.67H391.67" transform="translate(0)" fill="none" stroke="currentColor" stroke-linecap="round" stroke-linejoin="round" stroke-width="50"></path>
    <path d="M202.67,441.33l79.33-103a33.47,33.47,0,0,1,47-6l61,48a33.71,33.71,0,0,0,47-5.66l77-99.34" transform="translate(0)" fill="none" stroke="currentColor" stroke-linecap="round" stroke-linejoin="round" stroke-width="50"></path>
    <path d="M607.67,485.66l9.33,19c4.67,9.34,16.33,18,26.67,20l12.66,2c38,6.34,47,34.34,19.67,62l-11.67,11.67c-7.66,8-12,23.33-9.66,34l1.66,7c10.34,46-14,63.67-54,39.67l-8.66-5c-10.34-6-27-6-37.34,0l-8.66,5c-40.34,24.33-64.67,6.33-54-39.67l1.66-7c2.33-10.67-2-26-9.66-34L474,588.66c-27.33-27.66-18.33-55.66,19.67-62l12.66-2c10-1.66,22-10.66,26.67-20l9.33-19C560.33,449.33,589.67,449.33,607.67,485.66Z" transform="translate(0)" fill="none" stroke="currentColor" stroke-linecap="round" stroke-linejoin="round" stroke-width="50"></path>
  </symbol>
  <symbol xmlns="http://www.w3.org/2000/svg" viewBox="0 0 761.89 761.9" id="ic_sort_star">
    <path d="M400,19.05c20.59,0,97.92,234.57,118.11,250s256.4,20.05,262.69,40.7C787.28,330.48,598.69,480,591.07,505.05c-7.79,24.89,61,262.26,44.4,275.08C618.72,793,425,650.8,400,650.8S181.33,793,164.59,780.13C148,767.3,216.76,529.92,209,505.05c-7.6-25-196.19-174.57-189.71-195.28,6.28-20.65,242.49-25.26,262.68-40.7S379.24,19.05,400,19.05Z" transform="translate(-19.08 -19.05)" fill="currentColor" fill-rule="evenodd"></path>
  </symbol>
  <symbol xmlns="http://www.w3.org/2000/svg" xmlns:xlink="http://www.w3.org/1999/xlink" viewBox="0 0 770.63 741.87" id="ic_star">
    <path d="M611.81,732.54a39.16,39.16,0,0,1-16.88-3.75L393.06,628.16,195.56,737.54c-14.38,8.12-32.5,4.37-43.75-7.5-6.88-7.5-10-18.13-8.75-28.75l33.75-223.13L11.18,323.79a34.24,34.24,0,0,1-9.37-36.25,33.5,33.5,0,0,1,28.12-24.38l223.13-37.5,95-205A36.13,36.13,0,0,1,378.68,0a34.91,34.91,0,0,1,32.5,18.75L515.56,219.41l224.37,27.5a34.41,34.41,0,0,1,28.75,23.75,35.26,35.26,0,0,1-8.12,36.25L602.43,468.79l43.13,221.87a36.51,36.51,0,0,1-6.88,28.75C631.81,727.54,621.81,732.54,611.81,732.54ZM391.81,590a39.14,39.14,0,0,1,16.87,3.75l199.38,99.37-42.5-218.75a34.13,34.13,0,0,1,9.37-31.25L731.18,284.41l-221.25-27.5a35.3,35.3,0,0,1-26.87-18.75L380.56,40.66,286.18,242.54a35.81,35.81,0,0,1-26.25,20l-220,36.25,162.5,151.87a34.37,34.37,0,0,1,10.63,31.25l-33.13,220,195-107.5A56,56,0,0,1,391.81,590Z" fill="currentColor"></path>
  </symbol>
  <symbol xmlns="http://www.w3.org/2000/svg" viewBox="0 0 761.89 761.9" id="ic_star_a">
    <path d="M400,19.05c20.59,0,97.92,234.57,118.11,250s256.4,20.05,262.69,40.7C787.28,330.48,598.69,480,591.07,505.05c-7.79,24.89,61,262.26,44.4,275.08C618.72,793,425,650.8,400,650.8S181.33,793,164.59,780.13C148,767.3,216.76,529.92,209,505.05c-7.6-25-196.19-174.57-189.71-195.28,6.28-20.65,242.49-25.26,262.68-40.7S379.24,19.05,400,19.05Z" transform="translate(-19.08 -19.05)" fill="currentColor" fill-rule="evenodd"></path>
  </symbol>
  <symbol xmlns="http://www.w3.org/2000/svg" xmlns:xlink="http://www.w3.org/1999/xlink" viewBox="0 0 666.67 666.67" id="ic_time">
    <path d="M333.33,500V333.33l83.34-50m216.66,50c0,165.69-134.31,300-300,300s-300-134.31-300-300,134.32-300,300-300S633.33,167.65,633.33,333.33Z" fill="none" stroke="currentColor" stroke-linecap="round" stroke-linejoin="round" stroke-width="66.67"></path>
  </symbol>
  <symbol xmlns="http://www.w3.org/2000/svg" xmlns:xlink="http://www.w3.org/1999/xlink" viewBox="0 0 800 800" id="ic_tooltip">
    <path d="M529.56,221.74c27.83,31.3,40.87,73.91,34.79,119.13-10.44,83.48-71.31,113-125.22,113h-4.35v20.87a34.78,34.78,0,1,1-69.56,0V447c0-28.7,12.17-62.61,73.91-62.61,33.91,0,51.3-17.39,55.65-52.18,1.74-11.3,2.61-41.74-18.26-64.34C460,249.57,433,240,396.52,240c-78.26,0-80.87,51.3-80.87,56.52a34.78,34.78,0,1,1-69.56,0c0-34.78,27-126.09,150.43-126.09,72.18,0,112.18,27.83,133,51.31M397.39,539.13c-11.3,0-22.61,4.35-30.43,13-7.83,7.83-13,19.13-13,30.44s4.35,22.61,13,30.43c7.82,7.83,19.13,13.05,30.43,13.05S420,621.74,427.83,613c7.82-7.82,13-19.13,13-30.43s-4.35-22.61-13-30.44c-7.83-7.82-18.27-13-30.44-13M800,400c0,220.87-179.13,400-400,400S0,620.87,0,400,179.13,0,400,0,800,179.13,800,400m-69.57,0C730.43,217.39,582.61,69.57,400,69.57S69.56,217.39,69.56,400,217.39,730.43,400,730.43,730.43,582.61,730.43,400" fill="currentColor"></path>
  </symbol>
  <symbol xmlns="http://www.w3.org/2000/svg" xmlns:xlink="http://www.w3.org/1999/xlink" viewBox="0 0 550 529.02" id="ic_user">
    <path d="M275,252.08A126,126,0,1,0,149,126a126,126,0,0,0,126,126m0,55.37C107.43,307.45,0,399.93,0,445V529H550V445C550,390.5,448.3,307.45,275,307.45Z" fill="currentColor"></path>
  </symbol>
  <symbol xmlns="http://www.w3.org/2000/svg" viewBox="0 0 800 800" id="ic_whatsapp">
    <path d="M592,459.69c-1.56-.75-59.88-29.47-70.25-33.2-4.23-1.52-8.76-3-13.58-3-7.88,0-14.49,3.93-19.64,11.63-5.83,8.66-23.47,29.28-28.92,35.44-.71.81-1.68,1.78-2.26,1.78s-9.55-3.71-12.28-4.9c-62.57-27.18-110-92.53-116.57-103.55a6.67,6.67,0,0,1-1-2.31c.23-.83,2.33-2.94,3.42-4,3.17-3.14,6.61-7.29,9.94-11.3,1.58-1.89,3.16-3.8,4.71-5.59,4.83-5.62,7-10,9.48-15l1.3-2.62c6.09-12.1.89-22.31-.79-25.6-1.38-2.76-26-62.19-28.62-68.44-6.3-15.07-14.62-22.08-26.18-22.08-1.07,0,0,0-4.5.19-5.48.23-35.31,4.16-48.5,12.47-14,8.82-37.65,36.93-37.65,86.36,0,44.49,28.24,86.5,40.36,102.48.3.4.85,1.22,1.66,2.39,46.42,67.8,104.29,118,163,141.48,56.48,22.56,83.23,25.17,98.43,25.17h0a152.12,152.12,0,0,0,16-.95l2.86-.27c19.51-1.73,62.39-24,72.15-51.05,7.68-21.35,9.7-44.67,4.59-53.14C605.63,466.25,599.6,463.36,592,459.69Z" fill="currentColor"></path>
    <path d="M407.1,0C190.44,0,14.17,175,14.17,390A387.14,387.14,0,0,0,68,587.2L.55,786.28a10.39,10.39,0,0,0,13,13.23l207.58-66a395.59,395.59,0,0,0,186,46.37C623.75,779.92,800,605,800,390S623.75,0,407.1,0Zm0,698.69a311.29,311.29,0,0,1-171.26-51.06,10.39,10.39,0,0,0-8.85-1.21L123,679.47l33.56-99a10.37,10.37,0,0,0-1.45-9.47A304.46,304.46,0,0,1,95.86,390c0-170.24,139.62-308.74,311.24-308.74S718.3,219.74,718.3,390,578.7,698.69,407.1,698.69Z" fill="currentColor"></path>
  </symbol>
  <symbol fill="none" xmlns="http://www.w3.org/2000/svg" viewBox="0 0 24 24" id="ic_zoom">
    <path d="M10 17C13.866 17 17 13.866 17 10C17 6.13401 13.866 3 10 3C6.13401 3 3 6.13401 3 10C3 13.866 6.13401 17 10 17Z" stroke="currentColor" stroke-width="1.5" stroke-linecap="round" stroke-linejoin="round"></path>
    <path d="M20.9992 21L14.9492 14.95" stroke="currentColor" stroke-width="1.5" stroke-linecap="round" stroke-linejoin="round"></path>
    <path d="M6 10H14" stroke="currentColor" stroke-width="1.5" stroke-linecap="round" stroke-linejoin="round"></path>
    <path d="M10 6V14" stroke="currentColor" stroke-width="1.5" stroke-linecap="round" stroke-linejoin="round"></path>
  </symbol>
</svg>